<?xml version="1.0" encoding="UTF-8" standalone="no"?>
<svg width="2424px" height="1177px" viewBox="0 0 2424 1177" version="1.1" xmlns="http://www.w3.org/2000/svg" xmlns:xlink="http://www.w3.org/1999/xlink" xmlns:sketch="http://www.bohemiancoding.com/sketch/ns">
    <!-- Generator: Sketch 3.3.1 (12002) - http://www.bohemiancoding.com/sketch -->
    <title>debian</title>
    <desc>Created with Sketch.</desc>
    <defs></defs>
    <g id="Page-1" stroke="none" stroke-width="1" fill="none" fill-rule="evenodd" sketch:type="MSPage">
        <g id="debian" sketch:type="MSArtboardGroup" fill="#CCCCCC">
            <path d="M878.56059,520.78088 C879.5149,546.3991 871.08508,558.84768 863.46112,580.86067 L849.75069,587.67876 C838.54275,609.45847 850.8641,601.50581 842.83719,618.82142 C825.32011,634.37684 789.75575,667.48115 778.36753,670.51377 C770.043759,670.33344 783.99804,660.69486 785.82186,656.93061 C762.398583,673.0056 767.021742,681.06433 731.192287,690.85141 L730.153141,688.50803 C641.825509,730.07397 519.1211,647.7161 520.73282,535.36079 C519.79973,542.48639 518.05013,540.70498 516.09908,543.56794 C511.53954,485.76793 542.79884,427.71346 595.519734,403.97207 C647.084864,378.45989 707.535762,388.91502 744.446763,423.36597 C724.172731,396.79346 683.783786,368.61981 635.95111,371.22827 C589.072793,371.99173 545.20585,401.77712 530.57294,434.12862 C506.56647,449.23866 503.76713,492.40576 493.31203,500.31603 C479.21988,603.80677 519.78912,648.50078 588.42595,701.10505 C599.199168,708.37911 591.458571,709.49247 592.900668,715.02751 C570.10301,704.36035 549.23521,688.24292 532.05743,668.5097 C541.17648,681.83838 551.00599,694.79594 563.71968,704.97537 C542.20505,697.71192 513.47998,652.88005 505.11378,651.05624 C542.17322,717.41334 655.451066,767.43031 714.799209,742.60738 C687.335987,743.62532 652.460876,743.16939 621.625705,731.77057 C608.636329,725.10091 591.04506,711.30568 594.19431,708.72901 C675.163087,738.95976 758.782772,731.61151 828.82989,675.46565 C846.66507,661.57498 866.1332,637.96085 871.76372,637.64275 C863.29146,650.38822 873.21638,643.77161 866.70581,655.02198 C884.43496,626.38176 858.9758,643.35806 885.04998,605.56697 L894.67799,618.82142 C891.07279,595.02704 924.20892,566.16414 920.83697,528.56391 C928.43975,517.06966 929.30921,540.94887 921.25053,567.39416 C932.43729,538.05412 924.20892,533.33551 927.07188,509.11698 C930.15752,517.26052 934.2611,525.90244 936.34999,534.50192 C929.05476,506.13737 943.8043,486.75406 947.47311,470.26554 C943.84673,468.675 936.22276,482.79895 934.46256,449.31289 C934.72776,434.76481 938.52372,441.68896 939.97641,438.10493 C937.13464,436.46139 929.63794,425.30646 925.08901,403.91905 C928.36552,398.88238 933.91117,416.95083 938.40709,417.68249 C935.51231,400.68497 930.53925,387.71683 930.32718,374.66384 C917.17876,347.20062 925.6722,378.33266 915.02621,362.87267 C901.02953,319.24963 926.62654,352.74627 928.36552,332.93884 C949.55142,363.63613 961.62888,411.24612 967.19574,430.95814 C962.95431,406.91986 956.11503,383.62384 947.74883,361.09129 C954.20638,363.81638 937.36792,311.64689 956.13624,346.19327 C936.1061,272.551553 870.48068,203.734452 810.09339,171.457184 C817.46286,178.21167 826.78341,186.694502 823.45388,188.030574 C793.40339,170.163586 798.68396,168.753286 794.37891,161.203546 C769.937704,151.246805 768.304779,162.020023 752.134341,161.225426 C706.008833,136.752362 697.123064,139.350248 654.676991,124.038709 L656.606856,133.072935 C626.058008,122.893519 621.010689,136.911419 588.00182,133.094765 C585.997727,131.536021 598.584181,127.411246 608.954448,125.916151 C579.412948,129.818251 580.791378,120.084184 551.88608,126.987116 C559.00107,121.992834 566.55081,118.67392 574.14298,114.43249 C550.06229,115.895796 516.62926,128.450392 526.94652,117.019771 C487.66034,134.558041 417.87829,159.168906 378.71934,195.889065 L377.48932,187.660699 C359.5481,209.196503 299.24565,251.981874 294.44225,279.901039 L289.63884,281.014442 C280.3183,296.82433 274.26366,314.73377 266.86237,330.98901 C254.65768,351.80381 248.96359,339.00531 250.70254,342.2712 C226.68549,390.96277 214.73528,431.8713 204.43924,465.44218 C211.77687,476.41684 204.61956,531.52355 207.387,575.62378 C195.34136,793.46331 360.26916,1004.95134 540.5509,1053.77013 C566.97497,1063.23909 606.261155,1062.89979 639.683564,1063.83288 C600.259522,1052.55072 595.169832,1057.86308 556.74252,1044.47079 C529.03541,1031.4072 522.97019,1016.5092 503.33239,999.46928 L511.1048,1013.20089 C472.61387,999.57533 488.72067,996.34125 457.39778,986.42691 L465.70037,975.60069 C453.21996,974.64634 432.64904,954.58441 427.02917,943.44008 L413.37178,943.98087 C396.97867,923.77046 388.23073,909.16936 388.87757,897.85537 L384.46647,905.72322 C379.47219,897.14492 324.12162,829.82291 352.83605,845.49499 C347.50247,840.63856 340.40869,837.57414 332.72111,823.58803 L338.56365,816.91838 C324.76843,799.13622 313.13632,776.34916 314.02701,768.75699 C321.3965,778.70316 326.50741,780.56939 331.57592,782.27654 C296.67959,695.70907 294.71793,777.51554 268.30446,694.16097 L273.88193,693.71562 C269.6087,687.23685 266.98964,680.24908 263.55406,673.3674 L265.99289,649.13826 C240.88367,620.1269 258.97334,525.65979 262.61037,473.86139 C265.1022,452.80272 283.5736,430.37618 297.6021,395.2042 L289.05563,393.7409 C305.40634,365.23853 382.38819,279.233032 418.05856,283.644126 C435.33176,261.949219 414.62299,283.559236 411.24046,278.109054 C449.1906,238.844057 461.1196,250.370157 486.72721,243.297552 C514.32828,226.915078 463.02826,249.702136 476.11306,237.052057 C523.86089,224.868583 509.93839,209.334383 572.21311,203.152469 C578.787328,206.884938 556.9758,208.920828 551.50438,213.766656 C591.267728,194.298531 677.358023,198.741408 733.302391,224.561087 C798.16438,254.89787 871.08508,344.52976 873.96923,428.8599 L877.24574,429.73999 C875.59159,463.26845 882.37786,502.04566 870.59731,537.65242 L878.56059,520.78213" id="path956" sketch:type="MSShapeGroup"></path>
            <path d="M1241.60946,551.488509 C1241.13229,551.986895 1241.13229,631.078822 1240.14615,651.723972 C1239.17063,668.413981 1237.68614,704.285805 1202.31267,704.285805 C1165.95307,704.285805 1157.10969,662.518398 1154.1619,644.354508 C1150.72633,624.207745 1150.72633,607.485912 1150.72633,600.137633 C1150.72633,576.544722 1152.20024,510.686018 1207.72048,510.686018 C1224.4317,510.686018 1233.76282,515.616653 1241.13229,519.529393 L1241.60946,551.488509 L1241.60946,551.488509 Z M1099.12942,609.479394 C1099.12942,748.025511 1172.83476,748.025511 1183.63979,748.025511 C1214.10381,748.025511 1233.76282,731.314286 1242.10781,702.334755 L1243.09395,746.053244 C1252.43571,745.554889 1261.76683,744.579333 1276.99354,744.579333 C1282.40134,744.579333 1286.81244,744.579333 1290.75697,745.077719 C1294.69089,745.077719 1298.61421,745.554889 1303.03588,746.053244 C1295.17864,730.33876 1289.28306,694.965291 1289.28306,618.290945 C1289.28306,543.610082 1289.28306,417.342879 1295.66642,379.01101 C1277.99028,387.377215 1262.74236,392.78502 1229.33054,395.722204 C1242.59559,409.973384 1242.59559,417.342879 1242.59559,482.183658 C1233.27505,479.246443 1221.4733,475.800296 1201.32654,475.800296 C1113.3806,475.809656 1099.12942,552.464034 1099.12942,609.479394 L1099.12942,609.479394 Z" id="path970" sketch:type="MSShapeGroup"></path>
            <path d="M1365.59689,584.391356 C1366.09524,543.610082 1374.45087,507.250448 1409.32599,507.250448 C1447.65786,507.250448 1450.58443,549.495057 1449.60891,584.391356 L1365.59689,584.391356 L1365.59689,584.391356 Z M1498.24742,589.322022 C1498.24742,531.829523 1486.95464,475.312549 1414.23541,475.312549 C1314.01058,475.312549 1314.01058,586.384839 1314.01058,609.945956 C1314.01058,709.683034 1358.71517,748.990428 1433.89442,748.990428 C1467.28502,748.990428 1483.51907,744.102194 1492.36245,741.620964 C1491.8747,723.934214 1494.32411,712.630825 1497.29311,697.40412 C1486.95464,703.808666 1473.68959,712.153655 1444.21168,712.153655 C1367.55855,712.153655 1366.57241,642.361026 1366.57241,618.290945 L1497.29311,618.290945 L1498.24742,589.322022 L1498.24742,589.322022 Z" id="path972" sketch:type="MSShapeGroup"></path>
            <path d="M1658.0961,610.444311 C1658.0961,656.135036 1649.75111,717.56146 1592.75697,717.56146 C1584.88912,717.56146 1575.07022,716.066364 1568.68689,714.603092 C1567.70075,696.916342 1567.70075,666.452323 1567.70075,631.078822 C1567.70075,588.81306 1572.11182,566.73643 1575.5686,555.899604 C1585.87525,521.024489 1608.96981,520.547319 1613.3809,520.547319 C1650.72664,520.547319 1658.0961,572.133658 1658.0961,610.444311 L1658.0961,610.444311 Z M1517.08997,664.002886 C1517.08997,700.373096 1517.08997,720.99703 1511.19439,736.711514 C1531.34115,744.579333 1556.38676,748.990428 1586.37361,748.990428 C1605.53427,748.990428 1661.0545,748.990428 1691.02016,687.58522 C1705.27134,659.082828 1710.18079,620.750959 1710.18079,591.76082 C1710.18079,574.074101 1708.20853,535.265062 1693.96796,510.686018 C1680.22574,487.612679 1658.10671,475.810904 1634.53498,475.810904 C1587.35974,475.810904 1573.60694,515.118298 1566.24806,535.265062 C1566.24806,510.208848 1566.72523,422.750684 1570.64854,378.035485 C1538.72122,392.78502 1519.05163,395.223849 1497.93992,397.196116 C1517.10055,405.042749 1517.10055,437.500251 1517.10055,543.14352 L1517.10055,664.002886 L1517.08997,664.002886 Z" id="path974" sketch:type="MSShapeGroup"></path>
            <path d="M1804.6373,746.053244 C1794.79721,744.579333 1787.90489,743.593231 1773.65371,743.593231 C1757.96044,743.593231 1747.12358,744.589941 1735.84141,746.053244 C1740.75086,736.711514 1742.71252,732.279203 1744.1864,700.362488 C1746.15867,656.622814 1746.64645,539.676157 1743.21088,515.10769 C1740.75086,496.42423 1736.33977,493.487046 1729.45805,488.577596 C1769.741,484.643671 1781.04439,481.706487 1799.70666,472.863112 C1795.79392,494.462571 1795.27435,505.299398 1795.27435,538.202246 C1794.30944,707.742591 1793.81108,725.90648 1804.6373,746.053244" id="path976" sketch:type="MSShapeGroup"></path>
            <path d="M1961.97292,606.987557 C1960.9974,637.949931 1960.49904,659.570606 1952.13284,676.75897 C1941.81555,698.878 1924.62719,705.261331 1911.84989,705.261331 C1882.34021,705.261331 1875.97806,680.703503 1875.97806,656.633422 C1875.97806,610.454919 1917.25773,606.987557 1935.90939,606.987557 L1961.97292,606.987557 L1961.97292,606.987557 Z M1826.84116,667.438456 C1826.84116,698.40083 1836.18289,729.342019 1863.70973,742.617674 C1875.98867,748.025511 1888.26759,748.025511 1892.21212,748.025511 C1937.4257,748.025511 1952.6418,714.603092 1961.98353,693.96855 C1961.48518,715.589225 1961.98353,728.843664 1963.45744,746.053244 C1972.30079,745.554889 1981.14416,744.579333 1995.89373,744.579333 C2004.23872,744.579333 2012.10657,745.554889 2020.45156,746.053244 C2015.04375,737.708255 2012.10657,732.777589 2010.61147,713.616959 C2009.63595,694.954683 2009.63595,676.2818 2009.63595,650.239484 L2010.1343,550.00402 C2010.1343,512.647677 2000.29419,475.800296 1926.58885,475.800296 C1877.96094,475.800296 1849.46916,490.549862 1835.21798,497.919326 C1841.12417,508.734968 1846.03362,518.044874 1850.44468,539.198987 C1869.62653,522.487762 1894.68274,513.644418 1920.21613,513.644418 C1961.01862,513.644418 1961.01862,540.672867 1961.01862,578.983551 C1951.67689,578.506381 1943.80904,577.530856 1930.53338,577.530856 C1868.11021,577.540216 1826.84116,601.57972 1826.84116,667.438456 L1826.84116,667.438456 Z" id="path978" sketch:type="MSShapeGroup"></path>
            <path d="M2244.98196,697.414697 C2245.48031,714.125922 2245.48031,731.812672 2252.35142,746.063852 C2241.5252,745.088327 2235.14184,743.603807 2215.01629,743.603807 C2203.21455,743.603807 2196.83119,744.600549 2187.48946,746.063852 C2189.44051,739.68049 2190.44786,737.220477 2191.42338,728.854272 C2192.89726,717.572068 2193.8834,679.727978 2193.8834,666.452323 L2193.8834,613.392103 C2193.8834,590.297548 2193.8834,556.875129 2192.3883,545.09457 C2191.41277,536.74955 2188.97395,514.153381 2160.45037,514.153381 C2132.44636,514.153381 2123.11524,534.777315 2119.6691,551.488509 C2115.75635,568.676873 2115.75635,587.360364 2115.75635,660.068961 C2116.23353,722.969297 2116.23353,728.843664 2121.14298,746.053244 C2112.79799,745.077719 2102.4807,744.102194 2087.74177,744.102194 C2075.94,744.102194 2068.08276,744.579333 2058.27446,746.053244 C2061.71003,738.185394 2063.6823,734.251469 2064.65782,706.74585 C2065.65453,679.71737 2067.61619,547.045621 2063.1627,515.616653 C2060.7239,496.434838 2055.79323,492.023743 2050.40661,487.114292 C2090.21239,485.142026 2102.96848,478.748088 2115.26861,472.385942 L2115.26861,524.44942 C2121.15358,509.20153 2133.4325,475.301941 2182.58001,475.301941 C2244.00643,475.301941 2244.4836,520.01714 2244.98196,549.484449 L2244.98196,697.414697" id="path980" sketch:type="MSShapeGroup"></path>
            <path d="M1808.78329,403.324949 L1768.08685,444.000238 L1727.41159,403.324949 L1768.08685,362.649692 L1808.78329,403.324949" id="path982" sketch:type="MSShapeGroup"></path>
        </g>
    </g>
</svg>