<?xml version="1.0" encoding="UTF-8" standalone="no"?><!DOCTYPE svg PUBLIC "-//W3C//DTD SVG 1.1//EN" "http://www.w3.org/Graphics/SVG/1.1/DTD/svg11.dtd"><svg width="100%" height="100%" viewBox="0 0 15000 3883" version="1.1" xmlns="http://www.w3.org/2000/svg" xmlns:xlink="http://www.w3.org/1999/xlink" xml:space="preserve" style="fill-rule:evenodd;clip-rule:evenodd;stroke-linejoin:round;stroke-miterlimit:1.41421;"><path d="M5380.8,3007.6l-237.4,0l0,-876.7c0,-322.8 -113.9,-484.2 -341.8,-484.2c-52.8,0 -101.3,11.1 -145.6,33.3c-44.3,22.2 -82.8,52.2 -115.5,90.2c-32.7,38 -58,81.2 -76,129.7c-18,48.5 -26.9,99.2 -26.9,151.9l0,955.8l-237.3,0l0,-933.6c0,-126.6 -27.5,-229.5 -82.3,-308.6c-54.9,-79.1 -136.1,-118.7 -243.7,-118.7c-54.8,0 -105.5,12.1 -151.9,36.4c-46.4,24.3 -86.5,57 -120.3,98.1c-33.8,41.1 -60.1,87.6 -79.1,139.3c-19,51.7 -28.5,103.9 -28.5,156.7l0,930.4l-237.3,0l0,-1129.8c0,-61.2 -1.1,-125 -3.2,-191.5c-2.1,-66.5 -5.3,-135.6 -9.5,-207.3l212.1,0l0,250l22.1,0c107.6,-187.8 265.8,-281.7 474.7,-281.7c101.3,0 189.4,27.5 264.3,82.3c74.9,54.9 128.1,129.8 159.8,224.7l6.3,0c54.8,-101.3 125,-177.7 210.4,-229.4c85.5,-51.7 183,-77.6 292.8,-77.6c149.8,0 269.5,57.5 359.2,172.5c89.7,115 134.5,274.9 134.5,479.5l0,908.3l0.1,0Zm1234.5,0l-22.1,-196.2l-9.5,0c-103.4,154 -257.4,231 -462.1,231c-65.4,0 -125.6,-10.6 -180.4,-31.6c-54.9,-21.1 -102.4,-51.1 -142.4,-90.2c-40,-39.1 -71.7,-84.9 -94.9,-137.7c-23.2,-52.7 -34.8,-110.8 -34.8,-174.1c0,-185.7 77,-326.5 231,-422.5c154,-96 377.7,-144 670.9,-144l0,-34.8c0,-251 -117.1,-376.6 -351.3,-376.6c-145.6,0 -274.3,36.9 -386.1,110.8l-57,-164.6c135,-86.5 294.3,-129.8 477.9,-129.8c371.3,0 557,203.6 557,610.8l0,585.6c0,73.8 1.6,140.9 4.8,201c3.2,60.2 9,114.5 17.4,163l-218.4,0l0,-0.1Zm-41.1,-791.2l-47.5,0c-409.3,0 -614,120.3 -614,360.8c0,95 25.3,165.6 76,212.1c50.6,46.4 113.9,69.6 189.9,69.6c48.5,0 96.5,-8.4 144,-25.3c47.5,-16.9 89.7,-40.6 126.6,-71.2c36.9,-30.6 67,-68 90.2,-112.3c23.2,-44.3 34.8,-93.9 34.8,-148.7l0,-285l0,0Zm1649,-496.9c-92.9,-50.7 -200.5,-76 -322.8,-76c-86.5,0 -163.6,15.3 -231.1,45.9c-67.5,30.6 -124.5,72.8 -170.9,126.6c-46.4,53.8 -82.3,117.6 -107.6,191.5c-25.3,73.8 -38,154 -38,240.5c0,88.6 13.2,169.9 39.6,243.7c26.4,73.8 63.3,136.6 110.8,188.3c47.4,51.7 103.9,91.8 169.3,120.3c65.4,28.5 138.2,42.7 218.4,42.7c113.9,0 226.8,-25.3 338.7,-76l47.4,183.5c-118.2,59.1 -261.6,88.6 -430.4,88.6c-111.9,0 -213.1,-18.5 -303.9,-55.4c-90.7,-36.9 -168.8,-89.7 -234.2,-158.2c-65.4,-68.6 -115.5,-150.3 -150.3,-245.3c-34.8,-95 -52.2,-201.5 -52.2,-319.7c0,-120.3 19.5,-230 58.5,-329.2c39,-99.1 93.4,-184.6 163,-256.3c69.6,-71.7 153.5,-127.7 251.6,-167.7c98.1,-40.1 206.2,-60.2 324.4,-60.2c154,0 280.6,27.5 379.8,82.3l-60.1,190.1l0,0Zm2095.3,199.4c0,166.7 -22.7,318.6 -68.1,455.7c-45.4,137.2 -109.7,255.3 -193.1,354.5c-83.3,99.2 -183.6,176.2 -300.7,231c-117.1,54.8 -247.4,82.3 -390.8,82.3c-137.2,0 -262.7,-26.9 -376.6,-80.7c-114,-53.8 -212.1,-128.7 -294.4,-224.7c-82.3,-96 -146.1,-210 -191.5,-341.8c-45.4,-131.8 -68,-276.9 -68,-435.2c0,-164.5 23.7,-315.9 71.2,-454.1c47.5,-138.2 113.4,-256.3 197.8,-354.5c84.4,-98.1 185.1,-174.6 302.2,-229.4c117.2,-54.8 245.4,-82.3 384.7,-82.3c139.2,0 266.3,26.4 381.3,79.1c115,52.8 212.6,126.6 292.8,221.6c80.2,95 142.4,208.9 186.7,341.8c44.3,132.9 66.5,278.5 66.5,436.7Zm-256.4,12.7c0,-126.6 -16.9,-244.2 -50.7,-352.9c-33.8,-108.6 -80.7,-203.6 -140.8,-284.8c-60.2,-81.2 -131.9,-144.5 -215.2,-189.9c-83.3,-45.3 -175.7,-68 -276.9,-68c-103.4,0 -197.8,22.7 -283.3,68c-85.5,45.4 -158.2,108.6 -218.4,189.9c-60.2,81.2 -107.1,178.3 -140.9,291.2c-33.8,112.9 -50.6,235.8 -50.6,368.7c0,124.5 16.9,241.1 50.6,349.7c33.8,108.7 80.7,203.1 140.9,283.3c60.1,80.2 132.4,143.5 216.8,189.9c84.4,46.4 177.2,69.6 278.5,69.6c103.4,0 197.8,-23.2 283.3,-69.6c85.5,-46.4 158.2,-110.8 218.4,-193.1c60.2,-82.3 106.5,-178.8 139.3,-289.6c32.6,-110.8 49,-231.6 49,-362.4l0,0Zm1693.4,503.2c0,90.7 -16.9,173.6 -50.7,248.5c-33.8,74.9 -81.8,138.8 -144,191.5c-62.2,52.8 -137.6,93.4 -226.3,121.9c-88.6,28.5 -187.8,42.7 -297.5,42.7c-219.5,0 -393.5,-45.3 -522.2,-136.1l66.4,-199.4c141.3,88.6 298.5,132.9 471.6,132.9c145.6,0 258.5,-34.8 338.7,-104.4c80.2,-69.6 120.3,-162.4 120.3,-278.5c0,-107.6 -31.2,-194.6 -93.4,-261.1c-62.3,-66.4 -165.1,-127.1 -308.6,-182c-365,-137.1 -547.5,-337.6 -547.5,-601.3c0,-82.2 16.3,-158.2 49,-227.8c32.7,-69.6 78.6,-129.8 137.7,-180.4c59.1,-50.6 129.2,-89.6 210.4,-117.1c81.2,-27.4 169.3,-41.1 264.3,-41.1c183.5,0 333.3,33.8 449.4,101.3l-72.8,196.2c-103.4,-65.4 -232.1,-98.1 -386.1,-98.1c-122.4,0 -221.6,30.6 -297.5,91.8c-76,61.2 -113.9,142.4 -113.9,243.7c0,48.5 6.8,91.8 20.5,129.8c13.7,38 36.4,73.8 68.1,107.6c31.6,33.8 74.4,66 128.2,96.5c53.8,30.6 121.9,62.8 204.1,96.5c94.9,38 176.2,78.6 243.7,121.9c67.5,43.3 122.9,90.2 166.2,140.8c43.3,50.7 74.4,106.1 93.4,166.2c19,59.8 28.5,125.7 28.5,197.5Z" style="fill:#ccc;fill-rule:nonzero;"/></svg>