<?xml version="1.0" encoding="UTF-8" standalone="no"?>
<svg width="673px" height="204px" viewBox="0 0 673 204" version="1.1" xmlns="http://www.w3.org/2000/svg" xmlns:xlink="http://www.w3.org/1999/xlink" xmlns:sketch="http://www.bohemiancoding.com/sketch/ns">
    <!-- Generator: Sketch 3.3.1 (12002) - http://www.bohemiancoding.com/sketch -->
    <title>openbsd</title>
    <desc>Created with Sketch.</desc>
    <defs></defs>
    <g id="Page-1" stroke="none" stroke-width="1" fill="none" fill-rule="evenodd" sketch:type="MSPage">
        <g id="openbsd" sketch:type="MSArtboardGroup">
            <g id="g3769" sketch:type="MSLayerGroup" transform="translate(4.125042, 38.941380)">
                <path d="M151.625,109.28125 C150.20141,112.17444 147.65217,118.68169 153.125,118.375 C312.64256,119.05289 472.1672,118.51456 631.6875,118.6875 L654.625,118.6875 C656.07215,115.61985 658.88689,110.26428 655.84375,108.25 C487.94791,108.2148 320.05208,108.1611 152.15625,108.09375 L151.74788,109.00657 L151.625,109.28125 L151.625,109.28125 Z" id="path6235" fill="#464646" sketch:type="MSShapeGroup"></path>
                <path d="M355.59375,8.59375 C354.6012,12.06756 356.16441,15.84695 360.1875,15.28125 C363.94951,15.37155 370.01986,16.16122 369.40625,21.34375 C369.43415,43.23234 370.14083,65.48086 369.15625,87.1875 C367.03228,92.59485 358.11552,89.27639 355.6299,92.84209 C354.70126,96.05665 355.48143,100.72989 359.78051,99.78843 C380.64822,99.70113 401.69833,100.30281 422.46875,99.15625 C436.01234,97.44573 451.79323,93.05749 457.375,79.25 C461.25195,68.46983 454.21891,57.21538 444.40625,52.71875 C442.16455,51.11645 437.25547,50.26349 436.34375,49.15625 C446.267,46.41852 455.53961,36.56736 452.375,25.65625 C449.22982,12.92879 434.72136,8.8888 423.375,7.28125 C400.8499,6.04249 378.24293,6.99075 355.6875,6.6875 L355.6384,7.68629 L355.5938,8.59375 L355.59375,8.59375 Z M405.96875,15.625 C412.88772,14.64962 420.71935,19.22333 420.53125,26.84375 C421.20675,33.26687 420.91498,42.28301 413.21875,44.21875 C409.23327,45.54078 404.96517,45.49453 400.8125,45.78125 C401.39945,36.16275 399.98161,25.91651 401.6875,16.59375 C402.91351,15.84042 404.43078,15.52686 405.96875,15.625 L405.96875,15.625 Z M402,55.21875 C410.53178,54.92586 421.66825,57.07691 424.21875,66.65625 C426.70728,75.02736 425.13376,86.99961 415.15625,89.53125 C410.89972,89.94851 404.11431,92.16485 401.25,87.96875 C400.70179,77.07358 400.9939,66.13142 400.8125,55.21875 L401.8125,55.21875 L402,55.21875 L402,55.21875 Z" id="path6207" fill="#464646" sketch:type="MSShapeGroup"></path>
                <path d="M173.78121,48.93362 C173.07115,48.93362 171.98566,49.10998 170.99996,49.37112 C170.01426,49.63226 169.13092,49.95895 168.87496,50.21487 C168.76549,50.32438 168.50997,50.43362 168.28121,50.43362 C167.75308,50.43362 163.95669,53.4376 162.24996,55.21487 C161.03712,56.47783 158.60271,59.84974 158.59371,60.27737 C158.59171,60.38227 158.15895,61.2877 157.65621,62.27737 C156.32425,64.89939 154.68746,68.74118 154.68746,69.24612 C154.68746,69.48628 154.43877,70.10679 154.12496,70.62112 C153.81116,71.13541 153.25569,72.51051 152.90621,73.65237 C152.55673,74.79421 152.1708,75.84965 152.03121,76.02737 C151.89163,76.20506 151.46019,77.31026 151.09371,78.46487 C150.72724,79.61948 150.17673,81.2339 149.87496,82.05862 C149.17245,83.97854 148.57998,85.9017 148.15621,87.52737 C147.73244,89.15304 147.49996,90.47109 147.49996,91.24612 C147.49996,92.1208 147.54166,92.69091 147.81246,93.18362 C148.0833,93.67633 148.57453,94.10783 149.40621,94.74612 C149.78583,95.03746 150.08618,95.18419 150.62496,95.27737 C151.16374,95.37057 151.94501,95.40237 153.24996,95.40237 C154.66988,95.40237 155.423,95.39087 156.09371,95.24612 C156.76442,95.10132 157.34429,94.83767 158.37496,94.30862 C159.56241,93.69907 160.94558,92.85498 161.43746,92.43362 C163.05067,91.05168 166.37496,87.61074 166.37496,87.33987 C166.37496,87.19409 166.61125,86.90246 166.87496,86.68362 C167.45246,86.20438 169.96871,82.35956 169.96871,81.96487 C169.96871,81.81132 170.1863,81.51705 170.43746,81.30862 C170.68861,81.10022 171.64995,79.34845 172.56246,77.43362 C173.47497,75.5188 174.45021,73.47967 174.74996,72.90237 C175.04971,72.32506 175.38471,71.45971 175.49996,70.96487 C175.6152,70.47004 176.02725,69.30956 176.40621,68.40237 C176.78517,67.49517 177.23965,66.2184 177.40621,65.55862 C177.57277,64.89884 178.05641,63.1354 178.49996,61.65237 C179.03821,59.85272 179.34831,57.75925 179.40621,55.90237 C179.43521,54.97393 179.41021,54.09875 179.31251,53.37112 C179.21471,52.64349 179.04163,52.06703 178.81251,51.68362 C178.34923,50.90834 177.59182,50.20966 176.68751,49.71487 C175.7832,49.22008 174.73494,48.93362 173.78126,48.93362 L173.78121,48.93362 Z" id="path6205" fill="#CF4229" sketch:type="MSShapeGroup"></path>
                <path d="M173.78121,48.93362 C174.73489,48.93362 175.78315,49.22008 176.68746,49.71487 C177.59177,50.20966 178.34918,50.90834 178.81246,51.68362 C179.04158,52.06703 179.21461,52.64349 179.31246,53.37112 C179.41026,54.09875 179.43516,54.97393 179.40616,55.90237 C179.34826,57.75925 179.03816,59.85272 178.49991,61.65237 C178.05636,63.1354 177.57272,64.89884 177.40616,65.55862 C177.2396,66.2184 176.78512,67.49517 176.40616,68.40237 C176.0272,69.30956 175.61515,70.47004 175.49991,70.96487 C175.38466,71.45971 175.04966,72.32506 174.74991,72.90237 C174.45016,73.47967 173.47492,75.5188 172.56241,77.43362 C171.6499,79.34845 170.68856,81.10022 170.43741,81.30862 C170.18625,81.51705 169.96866,81.81132 169.96866,81.96487 C169.96866,82.35956 167.45241,86.20438 166.87491,86.68362 C166.6112,86.90246 166.37491,87.19409 166.37491,87.33987 C166.37491,87.61074 163.05062,91.05168 161.43741,92.43362 C160.94553,92.85498 159.56236,93.69907 158.37491,94.30862 C157.34424,94.83767 156.76437,95.10132 156.09366,95.24612 C155.42295,95.39092 154.66983,95.40237 153.24991,95.40237 C151.94496,95.40237 151.16369,95.37057 150.62491,95.27737 C150.08613,95.18417 149.78578,95.03746 149.40616,94.74612 C148.57448,94.10783 148.08325,93.67633 147.81241,93.18362 C147.54157,92.69091 147.49991,92.1208 147.49991,91.24612 C147.49991,90.47109 147.73239,89.15304 148.15616,87.52737 C148.57993,85.9017 149.1724,83.97854 149.87491,82.05862 C150.17668,81.2339 150.72719,79.61948 151.09366,78.46487 C151.46014,77.31026 151.89158,76.20506 152.03116,76.02737 C152.17075,75.84965 152.55668,74.79421 152.90616,73.65237 C153.25564,72.51051 153.81111,71.13541 154.12491,70.62112 C154.43872,70.10679 154.68741,69.48628 154.68741,69.24612 C154.68741,68.74118 156.3242,64.89939 157.65616,62.27737 C158.1589,61.2877 158.59158,60.38227 158.59366,60.27737 C158.60266,59.84974 161.03707,56.47783 162.24991,55.21487 C163.95664,53.4376 167.75303,50.43362 168.28116,50.43362 C168.50992,50.43362 168.76544,50.32438 168.87491,50.21487 C169.13087,49.95895 170.01421,49.63226 170.99991,49.37112 C171.98561,49.10998 173.0711,48.93362 173.78116,48.93362 L173.78121,48.93362 Z" id="path6203" fill="#CF4229" sketch:type="MSShapeGroup"></path>
                <path d="M248.71871,43.80862 C248.01571,43.80862 246.64894,44.2321 245.40621,44.74612 C244.16348,45.26014 243.04361,45.87265 242.84371,46.24612 C242.67611,46.55933 242.38786,46.83687 242.18746,46.83987 C241.98706,46.84287 241.28476,47.43543 240.62496,48.18362 C239.96506,48.93181 239.10911,49.92619 238.71871,50.37112 C237.89501,51.30986 235.95631,54.0952 235.34371,55.24612 C235.11191,55.68166 234.41301,57.03222 233.78121,58.24612 C233.14951,59.46003 232.49561,60.58942 232.34371,60.74612 C232.19191,60.90281 232.06246,61.21964 232.06246,61.43362 C232.06246,61.64763 231.66426,62.65229 231.18746,63.68362 C230.71076,64.71497 230.27146,65.89625 230.18746,66.30862 C230.10336,66.72098 229.74471,67.80051 229.40621,68.68362 L228.81246,70.27737 L229.46871,70.08987 C229.83191,69.9864 230.72631,69.77158 231.46871,69.62112 C232.21101,69.47066 233.48766,69.06605 234.31246,68.71487 C235.13736,68.36369 236.07631,67.96868 236.40621,67.83987 C237.80911,67.29217 241.57276,65.29676 242.12496,64.80862 C242.45496,64.517 242.88861,64.24582 243.09371,64.18362 C243.51261,64.05653 244.5182,63.24033 245.59371,62.21487 C246.66922,61.18941 247.81761,59.94735 248.56246,58.96487 C249.39376,57.86832 250.13527,56.65341 250.74996,55.40237 C251.36465,54.15133 251.83961,52.84933 252.18746,51.62112 C252.53531,50.39291 252.75042,49.24293 252.78121,48.21487 C252.81201,47.18681 252.68021,46.30298 252.34371,45.65237 C252.07906,45.14061 251.52322,44.66817 250.87496,44.33987 C250.2267,44.01157 249.46461,43.80862 248.71871,43.80862 L248.71871,43.80862 Z" id="path6197" fill="#CF4229" sketch:type="MSShapeGroup"></path>
                <path d="M248.71871,43.80862 C249.46461,43.80862 250.2267,44.01157 250.87496,44.33987 C251.52322,44.66817 252.07906,45.14061 252.34371,45.65237 C252.68021,46.30298 252.812,47.18681 252.78121,48.21487 C252.75041,49.24293 252.53531,50.39291 252.18746,51.62112 C251.83961,52.84933 251.36465,54.15133 250.74996,55.40237 C250.13527,56.65341 249.39376,57.86832 248.56246,58.96487 C247.81761,59.94735 246.66922,61.18941 245.59371,62.21487 C244.5182,63.24033 243.51261,64.05653 243.09371,64.18362 C242.88861,64.24582 242.45496,64.517 242.12496,64.80862 C241.57276,65.29676 237.80911,67.29217 236.40621,67.83987 C236.07631,67.96868 235.13736,68.36369 234.31246,68.71487 C233.48766,69.06605 232.21101,69.47066 231.46871,69.62112 C230.72631,69.77158 229.83191,69.9864 229.46871,70.08987 L228.81246,70.27737 L229.40621,68.68362 C229.74471,67.80051 230.10336,66.72098 230.18746,66.30862 C230.27146,65.89625 230.71076,64.71497 231.18746,63.68362 C231.66426,62.65229 232.06246,61.64763 232.06246,61.43362 C232.06246,61.21964 232.19191,60.90281 232.34371,60.74612 C232.49561,60.58942 233.14951,59.46003 233.78121,58.24612 C234.41301,57.03222 235.11191,55.68166 235.34371,55.24612 C235.95631,54.0952 237.89501,51.30986 238.71871,50.37112 C239.10911,49.92619 239.96506,48.93181 240.62496,48.18362 C241.28476,47.43543 241.98706,46.8426 242.18746,46.83987 C242.38786,46.83687 242.67611,46.55933 242.84371,46.24612 C243.04361,45.87265 244.16348,45.26014 245.40621,44.74612 C246.64894,44.2321 248.01571,43.80862 248.71871,43.80862 L248.71871,43.80862 Z" id="path6195" fill="#CF4229" sketch:type="MSShapeGroup"></path>
                <path d="M540.34375,10.59375 C539.20292,14.05049 541.0413,17.96542 545.05565,17.39809 C548.76764,17.38599 554.48159,18.62069 553.3363,23.53097 C553.297,45.56516 553.90396,67.92113 553,89.78125 C550.15898,93.55083 544.61381,93.11731 540.4375,93.71875 C539.47776,97.3855 539.89005,103.04314 545.0625,101.8125 C565.34518,101.569 585.76247,102.57691 605.96875,101.03125 C624.22528,98.80352 643.61688,90.08096 651.17886,72.23869 C655.75478,61.97138 656.13952,49.55326 652.2739,39.01348 C645.72655,21.06621 626.51339,11.67155 608.5625,9.46875 C586.25582,7.74099 563.72894,9.15891 541.34375,8.6875 C539.69409,7.94026 540.67816,9.95947 540.34375,10.59375 L540.34375,10.59375 Z M591.65625,18 C602.14697,17.52166 612.51505,23.18572 616.71967,32.89877 C622.32959,44.46715 621.89145,58.04045 619.8125,70.46875 C618.05784,81.04839 609.38924,90.74706 598.0625,91.46875 C594.02784,91.18861 588.06516,93.69574 585.28125,89.78125 C585.64331,66.24978 584.56796,42.43977 585.8125,19.0625 C587.71945,18.50218 589.63616,17.94831 591.65625,18 L591.65625,18 Z" id="path6169" fill="#464646" sketch:type="MSShapeGroup"></path>
                <path d="M531.75,6.5 C529.0243,6.0536 527.89257,8.82824 526.875,10.34375 C518.00367,10.72635 509.74705,5.6691 500.71875,6.65625 C485.71058,5.72589 467.90183,11.36974 462.71875,26.875 C459.93908,35.92655 461.64117,46.75838 469.34375,52.90625 C481.79748,64.69824 500.0332,66.58437 514.125,75.34375 C521.35026,80.08974 517.25786,91.27032 509.8125,93.1875 C497.4015,97.17492 482.14633,92.80735 475.3125,81.15625 C471.58045,77.25302 472.1335,70.90687 468.375,67.28125 C464.94153,65.82632 459.07969,66.62385 460.30456,71.68673 C460.34526,82.05233 459.29182,92.74854 460.8125,102.9375 C462.76069,105.08679 467.733,104.75158 469.40625,103.125 C470.506,97.20362 476.94993,101.10415 480.46875,101.75 C497.81516,105.87098 518.51402,105.91374 533,94.21875 C543.10576,86.21777 545.89689,70.65401 538.34375,59.96875 C529.41857,47.08002 512.48607,44.75345 499.1875,38.25 C492.09919,36.17062 480.34373,30.52678 485.9375,21.3125 C492.57144,13.56398 504.91869,15.1743 513.21875,19.34375 C520.93817,23.44644 525.40844,31.12865 529.0625,38.625 C532.13228,41.20555 539.42954,40.19136 538.05397,34.87526 C538.03267,25.9455 538.64899,16.91134 537.75,8.03125 C536.29953,6.28611 533.79552,6.46569 531.75,6.5 L531.75,6.5 Z" id="path6151" fill="#464646" sketch:type="MSShapeGroup"></path>
                <path d="M136.15621,63.46487 C136.29645,63.02257 136.41283,62.69029 136.53121,62.27737 C136.81495,61.2877 137.29174,59.78959 137.59371,58.96487 C137.89567,58.14014 138.31859,56.86337 138.49996,56.12112 C138.68132,55.37887 139.16014,53.57027 139.59371,52.12112 L140.40621,49.49612 L139.78121,48.68362 C139.38937,48.15563 138.84152,47.77517 137.96871,47.49612 C137.54706,47.36131 136.74999,47.31072 136.15621,47.21487 L136.15621,63.46487 L136.15621,63.46487 Z" id="path6149" fill="#CF4229" sketch:type="MSShapeGroup"></path>
                <path d="M84.9375,7.5625 C59.94039,8.30166 36.481167,23.74945 24.40625,45.25 C17.47948,58.04506 13.176457,75.54732 22.40625,88.375 C33.052909,103.69256 54.306428,106.26126 71.54693,103.04296 C96.42784,98.50862 118.34421,80.30587 127.28125,56.625 C132.41671,43.17571 130.77271,25.38291 118.5,16.75 C109.34399,9.12549 96.71026,6.8541 84.9375,7.5625 L84.9375,7.5625 Z M87.0625,16.9375 C95.0949,16.10473 102.6364,22.92676 101.1875,31.21875 C100.34729,45.71136 95.01398,59.73746 88.21875,72.375 C82.17028,83.39298 72.05376,95.4276 58.15625,94.53125 C50.570737,94.77566 45.201194,87.43087 45.78125,80.125 C47.821009,61.25524 54.775874,41.98968 66.9375,27.40625 C72.12871,21.62606 78.96856,16.84733 87.0625,16.9375 L87.0625,16.9375 Z" id="path5937" fill="#464646" sketch:type="MSShapeGroup"></path>
                <path id="path5901" fill="#F2CA30" sketch:type="MSShapeGroup" d="M83.74996,9.52737 C83.37968,9.53337 83.26018,9.61127 82.93746,9.62107 C84.2779,9.57617 85.45519,9.52837 87.93746,9.52737 C86.20766,9.52812 84.86497,9.50957 83.74996,9.52737 L83.74996,9.52737 Z"></path>
                <path d="M161.21875,36.5 C150.74376,38.28172 140.05446,39.16141 129.4375,40.375 C128.99065,45.44575 128.68006,50.32737 135.1875,49.03125 C137.89904,48.71006 139.10639,50.32344 137.3125,52.71875 C130.97927,73.66043 124.23073,94.69804 117.09375,115.46875 C116.11262,119.99505 111.69556,119.69607 108.09375,120 C104.64818,121.80084 105.62995,129.55419 110.375,128.40625 C123.6955,128.53155 137.23553,129.18535 150.4375,128.03125 C153.55954,125.41816 151.95042,118.37022 146.96875,119.75 C144.3166,119.6567 139.9077,119.55166 141.9375,115.5625 C143.08565,110.94603 144.84389,105.88182 146.46875,101.75 C162.92637,107.49145 180.575,97.80371 190.875,85.28125 C199.63948,74.89336 206.59001,59.82552 201.4375,46.3125 C196.04942,34.8636 179.90562,34.0048 169.9375,39.5 C168.21495,40.10659 163.81907,42.67797 164.75,42.5 C166.85245,39.24327 165.6023,35.55558 161.21875,36.5 L161.21875,36.5 Z" id="path5893" fill="#464646" sketch:type="MSShapeGroup"></path>
                <path d="M246.875,36.46875 C225.874,38.7239 206.04383,55.47474 202.42922,76.58853 C200.61876,86.38375 205.28969,96.99203 214.78125,100.46875 C229.43896,107.16552 248.13067,102.48353 257.90625,89.8125 C260.25015,87.4466 264.85199,82.14753 259.9375,79.84375 C256.25354,76.84871 251.67717,79.07083 249.59375,82.8125 C245.23245,88.14208 235.76981,92.88356 229.875,87.25 C228.07712,84.64918 227.81793,80.41951 229.09375,77.84375 C243.8157,75.41102 260.57278,71.10675 268.9375,57.6875 C273.77097,50.34322 269.353,39.86631 260.90625,37.8125 C256.45797,35.93483 251.58216,36.47148 246.875,36.46875 L246.875,36.46875 Z" id="path5891" fill="#464646" sketch:type="MSShapeGroup"></path>
                <path d="M310.59375,36.46875 C299.81348,38.68683 288.73076,39.07882 277.90625,40.5625 C275.34567,42.88396 276.02783,49.33842 280.46875,48.8125 C282.7175,48.93027 287.51217,48.8145 284.62785,52.52297 C280.17192,68.22196 273.17506,83.47662 269.15625,99.40625 C270.63131,104.01315 277.5708,100.85907 281.03117,101.84675 C285.38025,100.61288 293.5508,104.69041 294.33734,98.51477 C300.05676,82.15984 306.55507,64.45201 320.48453,53.43969 C321.88378,52.35145 326.63946,49.36462 326.90625,51.96875 C322.13509,64.84414 315.36638,76.8974 313.125,90.59375 C311.79196,97.7211 318.41736,103.5134 325.28125,103 C337.98066,104.05654 348.4068,94.78868 354.625,84.65625 C356.08909,80.79842 350.7251,78.87474 347.78125,79.1875 C344.35611,82.09933 342.0382,86.34339 338.28125,88.53125 C342.29667,75.70756 350.04712,63.88122 351.85085,50.40867 C353.47515,42.6487 346.50405,35.29177 338.68793,36.52084 C327.1354,35.02296 317.25129,42.75278 310.0625,50.8125 C310.88609,46.33598 315.73249,41.5524 313.375,37 C312.53334,36.47334 311.56512,36.3596 310.59375,36.46875 L310.59375,36.46875 Z" id="path5889" fill="#464646" sketch:type="MSShapeGroup"></path>
                <path d="M248.71871,43.80862 C250.21051,43.80862 251.81441,44.62885 252.34371,45.65237 C253.68971,48.25481 251.88766,54.57866 248.56246,58.96487 C247.07276,60.92983 243.93151,63.92943 243.09371,64.18362 C242.88861,64.24582 242.45496,64.517 242.12496,64.80862 C241.57276,65.29676 237.80911,67.29217 236.40621,67.83987 C236.07631,67.96868 235.13736,68.36369 234.31246,68.71487 C233.48766,69.06605 232.21101,69.47066 231.46871,69.62112 C230.72631,69.77158 229.83191,69.9864 229.46871,70.08987 L228.81246,70.27737 L229.40621,68.68362 C229.74471,67.80051 230.10336,66.72098 230.18746,66.30862 C230.27146,65.89625 230.71076,64.71497 231.18746,63.68362 C231.66426,62.65229 232.06246,61.64763 232.06246,61.43362 C232.06246,61.21964 232.19191,60.90281 232.34371,60.74612 C232.49561,60.58942 233.14951,59.46003 233.78121,58.24612 C234.41301,57.03222 235.11191,55.68166 235.34371,55.24612 C235.95631,54.0952 237.89501,51.30986 238.71871,50.37112 C239.10911,49.92619 239.96506,48.93181 240.62496,48.18362 C241.28476,47.43543 241.98706,46.8426 242.18746,46.83987 C242.38786,46.83687 242.67611,46.55933 242.84371,46.24612 C243.24351,45.49919 247.31271,43.80862 248.71871,43.80862 L248.71871,43.80862 Z" id="path5887" fill="#F2CA30" sketch:type="MSShapeGroup"></path>
                <path d="M173.78121,48.93362 C175.68857,48.93362 177.88589,50.13305 178.81246,51.68362 C179.72893,53.21727 179.57647,58.05307 178.49996,61.65237 C178.05641,63.1354 177.57277,64.89884 177.40621,65.55862 C177.23965,66.2184 176.78517,67.49517 176.40621,68.40237 C176.02725,69.30956 175.6152,70.47004 175.49996,70.96487 C175.38471,71.45971 175.04971,72.32506 174.74996,72.90237 C174.45021,73.47967 173.47497,75.5188 172.56246,77.43362 C171.64995,79.34845 170.68861,81.10022 170.43746,81.30862 C170.1863,81.51705 169.96871,81.81132 169.96871,81.96487 C169.96871,82.35956 167.45246,86.20438 166.87496,86.68362 C166.61125,86.90246 166.37496,87.19409 166.37496,87.33987 C166.37496,87.61074 163.05067,91.05168 161.43746,92.43362 C160.94558,92.85498 159.56241,93.69907 158.37496,94.30862 C156.31362,95.36672 156.0898,95.40237 153.24996,95.40237 C150.64006,95.40237 150.16544,95.32877 149.40621,94.74612 C147.74285,93.46954 147.49996,92.99549 147.49996,91.24612 C147.49996,89.69606 148.46994,85.89847 149.87496,82.05862 C150.17673,81.2339 150.72724,79.61948 151.09371,78.46487 C151.46019,77.31026 151.89163,76.20506 152.03121,76.02737 C152.1708,75.84965 152.55673,74.79421 152.90621,73.65237 C153.25569,72.51051 153.81116,71.13541 154.12496,70.62112 C154.43877,70.10679 154.68746,69.48628 154.68746,69.24612 C154.68746,68.74118 156.32425,64.89939 157.65621,62.27737 C158.15895,61.2877 158.59163,60.38227 158.59371,60.27737 C158.60271,59.84974 161.03712,56.47783 162.24996,55.21487 C163.95669,53.4376 167.75308,50.43362 168.28121,50.43362 C168.50997,50.43362 168.76549,50.32438 168.87496,50.21487 C169.38687,49.70303 172.36109,48.93362 173.78121,48.93362 L173.78121,48.93362 Z" id="path5885" fill="#F2CA30" sketch:type="MSShapeGroup"></path>
                <path d="M8.09375,109.34375 C6.989091,111.98109 3.855767,118.07084 8.78125,118.4375 C39.277859,118.65074 69.85515,119.12703 100.3125,118.21875 C103.29906,116.12587 103.31023,111.50272 103.375,108.09375 L8.59375,108.09375 L8.222359,109.02223 L8.09375,109.34375 L8.09375,109.34375 Z" id="path5871" fill="#464646" sketch:type="MSShapeGroup"></path>
                <path d="M106.55438,136.29045 C104.51514,135.79847 101.98463,134.03638 100.97761,132.40718 C100.63221,131.84838 100.23176,131.39118 100.08773,131.39118 C99.94369,131.39118 99.73515,130.8851 99.6243,130.26656 C99.51345,129.64802 99.21647,128.90577 98.96435,128.61711 C98.53184,128.12192 96.09954,128.09211 55.88677,128.08905 C9.65313,128.08505 11.98202,128.16595 9.09347,126.47334 C8.41948,126.07841 7.59857,125.45755 7.26923,125.09369 C6.93989,124.72982 6.29089,124.23586 5.82699,123.99597 C3.58683,122.8377 1.27262,119.99528 0.61613,117.59582 C-0.22513,114.52095 0.36652,108.09813 1.58411,107.08774 C1.82387,106.88879 2.02004,106.56747 2.02004,106.37374 C2.02004,106.18 2.52618,105.55229 3.14479,104.97885 C6.45638,101.90902 8.33004,101.41344 16.65125,101.40639 C21.38802,101.40239 22.76773,101.31429 22.88522,101.00812 C22.96922,100.78926 21.95105,99.49306 20.58839,98.08411 C19.24215,96.69212 17.79394,95.01341 17.37016,94.35363 C16.94637,93.69385 16.36211,92.88187 16.07181,92.54923 C15.78151,92.21658 15.21951,91.33422 14.82293,90.58843 C14.42634,89.84267 13.95263,88.96771 13.77022,88.64412 C12.61621,86.59677 11.04382,82.39641 11.02399,81.30802 C11.01599,80.89565 10.74213,79.70277 10.41433,78.65718 C9.64931,76.21696 9.58307,69.37236 10.29342,66.16311 C10.54898,65.00849 10.80461,63.38193 10.86147,62.54848 C10.95557,61.16921 11.89191,57.44816 12.51768,55.96653 C12.65701,55.63664 12.85916,54.96187 12.9669,54.46704 C13.30417,52.918 15.19286,48.22008 16.16194,46.51971 C16.30295,46.27229 16.55083,45.73247 16.71278,45.32011 C16.87473,44.90775 17.20944,44.23298 17.45658,43.82062 C17.70372,43.40825 18.1231,42.6071 18.38854,42.04026 C18.65397,41.47345 19.19625,40.5835 19.59359,40.06264 C19.99094,39.54174 20.31604,39.0099 20.31604,38.8808 C20.31604,38.75166 21.09212,37.57441 22.04066,36.26469 C26.11437,30.63981 30.96334,25.33243 36.05007,20.93087 C38.86857,18.492 44.60698,14.21631 45.46659,13.91464 C45.7382,13.81934 46.23037,13.50492 46.5603,13.21596 C46.89023,12.92701 48.4439,12.02668 50.01292,11.21519 C51.58192,10.40372 53.20157,9.52231 53.61213,9.25654 C54.02268,8.99077 55.05035,8.50284 55.89583,8.1722 C56.74131,7.84159 58.02353,7.30747 58.74521,6.98529 C61.39664,5.80165 66.0661,4.16791 68.30555,3.64033 C78.62405,1.20944 79.25141,1.13216 88.70109,1.12715 C98.21879,1.12215 98.09283,1.10555 107.91654,3.63664 C108.50472,3.78818 109.38203,4.1187 109.86611,4.3711 C110.3502,4.62352 110.8838,4.83087 111.05189,4.83186 C111.5921,4.83486 115.5702,6.59503 117.49026,7.68021 C118.51423,8.25893 119.45312,8.73241 119.57667,8.73241 C119.70021,8.73241 120.04559,9.00232 120.34417,9.33221 C120.64276,9.6621 121.05567,9.93201 121.26177,9.93201 C121.46786,9.93201 122.8328,10.92206 124.29495,12.1321 C127.00219,14.37258 129.51989,16.98081 131.57801,19.67702 C133.59216,22.31562 136.99054,29.56269 136.99054,31.21924 C136.99054,32.89955 137.3535,33.01867 141.48955,32.69574 C146.66351,32.2918 152.75655,31.512 161.009,30.1977 C164.88111,29.58101 167.31403,29.98105 169.76056,31.63673 C170.65713,32.24349 170.28935,32.29219 174.93224,30.95158 C180.49297,29.34598 189.74406,29.6209 194.12805,31.52208 C194.45797,31.66516 195.49544,32.04564 196.43353,32.36759 C197.37163,32.68953 199.12624,33.5966 200.33268,34.3833 C202.60212,35.86318 206.87526,39.7945 206.87526,40.40251 C206.87526,40.59262 207.08559,40.92272 207.34266,41.13604 C207.59973,41.34939 208.2768,42.54676 208.84726,43.79689 C209.41771,45.04702 209.99793,46.27229 210.13663,46.51971 C210.62829,47.39676 211.41079,47.18129 212.78107,45.79155 C214.25303,44.29869 218.96418,40.65554 221.40753,39.12069 C222.71938,38.29662 224.19969,37.48372 228.32061,35.32447 C229.93011,34.4811 231.95061,33.62404 232.32931,33.62404 C232.53291,33.62404 233.07671,33.42893 233.53791,33.19048 C235.76581,32.03854 243.24051,30.4096 248.18981,29.99745 C257.01401,29.26264 264.96081,31.13533 270.80151,35.32591 C272.44831,36.50748 272.63351,36.52701 273.86051,35.64836 C275.99731,34.11813 277.01831,33.85308 281.70891,33.61091 C284.18341,33.48315 287.15271,33.23489 288.30751,33.05918 C289.46221,32.8835 292.22911,32.59719 294.45611,32.42295 C299.12721,32.05749 301.42031,31.72931 309.30291,30.29813 C312.12951,29.78494 315.30251,30.11003 317.21671,31.10897 C318.10501,31.57255 319.20821,32.32812 319.66811,32.78795 C320.61721,33.73693 321.11831,33.81106 322.33411,33.18241 C324.93771,31.83619 330.27241,30.39923 334.16731,29.99502 C339.91621,29.3984 345.54631,30.27471 350.24391,32.49732 C352.30231,33.47121 353.22661,34.14719 355.04291,36.00674 C357.43321,38.45413 359.16621,41.37026 359.56741,43.62013 C359.69001,44.30771 360.01941,45.67999 360.29941,46.66966 C360.88681,48.74547 360.75731,52.19599 360.01811,54.16714 C359.77061,54.82692 359.56231,55.77682 359.55511,56.27801 C359.54311,57.13008 356.74001,65.80482 356.26441,66.46301 C356.14521,66.62795 355.87521,67.3702 355.66431,68.11245 C355.45341,68.8547 355.17771,69.59695 355.05161,69.7619 C354.56441,70.39909 353.78841,73.276 354.03671,73.52428 C354.17961,73.66709 355.37541,74.3272 356.69421,74.99118 C358.01301,75.65513 359.59041,76.62317 360.19971,77.14239 C362.38911,79.0083 362.25351,80.77162 362.16801,51.55181 L362.09101,25.37682 L359.24161,25.19325 C357.67441,25.0923 355.98731,24.90291 355.49241,24.77237 C353.06271,24.13145 350.74901,22.22257 349.20101,19.58177 L348.14401,17.77842 L348.14401,13.73605 C348.14401,9.84309 348.17701,9.62878 349.03791,7.93846 C350.71091,4.65306 352.82031,3.09452 356.64931,2.31469 C360.00661,1.63092 405.35931,1.60804 415.94071,2.28469 C423.26241,2.75298 428.51221,3.37698 431.07591,4.08375 C431.90071,4.31114 433.11541,4.59205 433.77531,4.70799 C435.40411,4.99419 441.53601,7.11306 443.32291,8.00712 C444.12001,8.40599 444.94701,8.73231 445.16071,8.73231 C445.37441,8.73231 445.71171,8.92799 445.91021,9.16716 C446.10871,9.4063 446.83381,9.87703 447.52161,10.21315 C448.20931,10.54931 449.44691,11.3668 450.27171,12.02982 C451.09651,12.69287 452.10881,13.45689 452.52121,13.7277 C453.38741,14.29649 456.21461,17.53222 457.06031,18.92279 C457.84841,20.21845 458.47391,20.00075 459.63891,18.0252 C460.17271,17.12019 461.35401,15.60273 462.26401,14.65301 C463.17411,13.70332 463.92921,12.82611 463.94201,12.70367 C463.98201,12.31874 468.16221,8.91816 469.59631,8.10351 C470.35031,7.6752 471.49211,6.96668 472.13381,6.52904 C472.77541,6.0914 473.45701,5.73332 473.64841,5.73332 C473.83991,5.73332 474.15411,5.57572 474.34681,5.38307 C474.53941,5.19044 475.14011,4.87003 475.68151,4.67105 C478.20971,3.74193 481.33941,2.73184 483.11451,2.27206 C484.18681,1.99433 485.40151,1.6564 485.81391,1.52108 C486.22631,1.38577 487.84601,1.12798 489.41311,0.94819 C490.98031,0.7684 493.20731,0.49384 494.36211,0.33807 C497.22041,-0.04751 504.21011,-0.03677 506.33771,0.35637 C507.29361,0.53307 509.51171,0.85525 511.26671,1.07232 C513.02171,1.28941 516.07731,1.89461 518.05691,2.41724 C520.03641,2.93985 521.95581,3.44236 522.32211,3.53395 C522.80981,3.65589 523.34231,3.39048 524.31101,2.54254 C526.50071,0.6261 528.69581,0.03499 533.62271,0.03505 C537.13041,0.03511 538.08101,0.13786 539.62141,0.68344 C540.62811,1.04002 541.58001,1.44488 541.73671,1.58313 C541.89341,1.72139 553.64821,1.83451 567.85841,1.83451 C597.01921,1.83451 602.74081,2.06276 613.27701,3.6465 C614.50931,3.83172 615.73441,4.09935 615.99951,4.24123 C616.26471,4.38311 617.21351,4.58383 618.10811,4.68727 C619.00271,4.79074 620.20701,5.05414 620.78441,5.27258 C621.36181,5.49106 623.58881,6.23685 625.73331,6.92992 C627.87791,7.62301 629.76071,8.31203 629.91741,8.46111 C630.07411,8.61022 630.49191,8.73219 630.84571,8.73219 C631.19961,8.73219 631.73341,9.0021 632.03201,9.33199 C632.33051,9.66188 632.86431,9.93179 633.21821,9.93179 C633.57201,9.93179 633.98981,10.05661 634.14651,10.20916 C634.30321,10.36172 635.52171,11.0284 636.85431,11.6907 C638.18681,12.35296 639.45181,13.10535 639.66541,13.36263 C639.87891,13.61995 640.15861,13.83048 640.28681,13.83048 C640.66151,13.83048 643.30341,15.67933 645.39531,17.40551 C648.22911,19.7438 650.00361,21.51701 652.73231,24.73676 C654.73621,27.10126 657.44641,31.19683 657.81941,32.42423 C657.94471,32.83659 658.22121,33.37641 658.43391,33.62382 C659.22391,34.54292 661.11251,39.84889 662.31521,44.52801 C663.03021,47.31005 663.07521,47.93177 663.07521,55.04502 C663.07521,60.47653 662.96081,63.02159 662.66891,64.08413 C662.44541,64.89755 662.09861,66.30534 661.89811,67.21253 C661.43531,69.30682 660.44181,72.40547 659.72851,73.97997 C659.42461,74.6506 659.17601,75.41861 659.17601,75.68669 C659.17601,75.95477 659.03791,76.25947 658.86911,76.36378 C658.70031,76.46811 658.17771,77.40128 657.70781,78.43749 C657.23791,79.4737 656.29631,81.16024 655.61531,82.18539 C654.93431,83.21054 654.37711,84.12121 654.37711,84.20911 C654.37711,84.47428 651.33871,88.03744 650.89271,88.29536 C650.66461,88.42725 650.47791,88.69422 650.47791,88.88859 C650.47791,89.2661 649.32781,90.38206 645.58681,93.63461 C643.47791,95.46811 640.33651,97.69414 637.19041,99.5844 C636.48161,100.01023 636.08581,100.45516 636.14441,100.76028 C636.22841,101.19942 637.32751,101.2693 646.58261,101.42389 C653.32801,101.5366 657.39611,101.72532 658.27621,101.96644 C659.91181,102.41449 662.35231,103.93351 662.98311,104.89619 C663.23671,105.28309 663.65201,105.59963 663.90621,105.59963 C665.00971,105.59963 667.93031,108.42804 668.86111,110.39802 C669.42191,111.58499 669.50021,112.29671 669.51121,116.30603 C669.52121,119.56737 669.41721,120.97117 669.14891,121.23937 C668.94261,121.44555 668.77391,121.80468 668.77391,122.03746 C668.77391,123.29713 664.46491,127.05532 662.32531,127.66174 C661.83051,127.80201 548.72601,127.98995 410.98221,128.07938 L160.53894,128.24202 L159.38909,130.57134 C157.82897,133.73176 155.5583,135.62746 152.50777,136.31629 C149.53068,136.98852 109.35381,136.96576 106.55402,136.29019 L106.55438,136.29045 L106.55438,136.29045 Z M149.52779,126.23291 C149.9011,125.85966 150.0249,123.10062 149.70566,122.26879 C149.57052,121.91665 149.08745,121.7903 147.83107,121.77851 C145.13459,121.75331 141.55634,121.06145 140.65542,120.3913 C139.99569,119.90057 139.82142,119.50405 139.74309,118.3154 C139.62816,116.57139 140.10107,113.82809 140.87525,111.74778 C141.18217,110.92306 141.65602,109.50604 141.92824,108.59884 C142.20045,107.69165 142.67244,106.27462 142.97709,105.4499 C143.28174,104.62518 143.82978,102.97021 144.19495,101.77218 C144.56012,100.57417 144.98666,99.51502 145.14282,99.41851 C145.29898,99.32201 146.19426,99.51221 147.13234,99.84107 C151.197,101.26619 151.98476,101.40126 156.23218,101.40126 C159.88642,101.40126 160.8841,101.28487 164.21674,100.4698 C166.31143,99.95752 168.49957,99.29327 169.07928,98.99373 C169.65898,98.69416 170.74066,98.21078 171.483,97.91955 C172.22533,97.62832 173.04578,97.21293 173.30622,96.99646 C173.56666,96.77999 173.93106,96.60287 174.116,96.60287 C174.30095,96.60287 175.03266,96.23175 175.74203,95.77815 C176.45139,95.32455 177.2557,94.81847 177.52938,94.65353 C178.46224,94.09131 183.02754,90.52296 184.01037,89.58787 C191.93079,82.05201 196.52444,75.08592 199.4574,66.16311 C201.80287,59.02757 201.8015,51.21421 199.4544,46.8451 C197.26225,42.76515 195.07689,40.98477 190.17752,39.28737 C187.83553,38.47596 187.3885,38.42252 182.95645,38.42375 C178.37675,38.42375 178.13879,38.45645 175.19431,39.44737 C170.41014,41.05749 166.12345,43.74357 161.77631,47.85519 C160.80896,48.77012 159.97242,49.5187 159.91732,49.5187 C159.73887,49.5187 160.41859,47.59839 160.97887,46.51971 C161.27873,45.9424 161.73434,44.86277 161.99135,44.12052 C162.24837,43.37826 162.78987,41.9742 163.19471,41.00039 C163.59954,40.02656 163.86105,39.04814 163.77584,38.82612 C163.55478,38.25011 161.46909,38.31534 158.35808,38.99557 C156.91639,39.31079 154.0497,39.71949 151.98765,39.90381 C149.9256,40.0881 146.14643,40.50472 143.58949,40.82963 C141.03254,41.15454 137.25337,41.58991 135.19132,41.79714 L131.44214,42.17387 L131.44214,44.42176 L131.44214,46.66966 L134.2044,46.89836 C137.60394,47.17982 139.00357,47.6273 139.78724,48.68327 L140.39133,49.49729 L139.60304,52.13211 C139.16947,53.58126 138.66634,55.37423 138.48498,56.11648 C138.30361,56.85873 137.90815,58.1408 137.60619,58.96553 C137.30422,59.79025 136.82502,61.27475 136.54128,62.26442 C136.25755,63.25408 135.84392,64.53615 135.62209,65.11346 C135.40027,65.69076 134.9867,67.04031 134.70305,68.11245 C134.4194,69.18459 133.94083,70.64654 133.63955,71.36123 C133.33828,72.07592 133.09178,72.87587 133.09178,73.13888 C133.09178,73.56681 132.76171,74.58152 130.87343,79.95847 C130.5838,80.78319 130.08684,82.40265 129.76906,83.55726 C129.45129,84.71187 128.93038,86.33133 128.61149,87.15605 C128.2926,87.98077 127.40181,90.67986 126.63197,93.15403 C125.86212,95.6282 124.99259,98.32729 124.69967,99.15202 C123.50896,102.50456 122.52495,105.5336 122.15997,106.96988 C121.94753,107.80585 121.6377,108.75053 121.47145,109.06917 C121.3052,109.38779 120.93746,110.5839 120.65425,111.72718 C119.62519,115.88138 116.88186,120.50985 115.14963,121.01443 C113.96929,121.35823 110.99107,121.79441 109.82387,121.79441 C108.94929,121.79441 108.50539,121.94019 108.37928,122.26879 C108.06004,123.10062 108.18384,125.85966 108.55714,126.23291 C109.0776,126.7533 149.00773,126.7533 149.52819,126.23291 L149.52779,126.23291 L149.52779,126.23291 Z M149.40328,94.73921 C147.73992,93.46263 147.48824,93.00477 147.48824,91.2554 C147.48824,89.70534 148.48082,85.89761 149.88584,82.05776 C150.18761,81.23304 150.73437,79.61358 151.10084,78.45897 C151.46732,77.30436 151.88137,76.21426 152.02095,76.03657 C152.16054,75.85885 152.56067,74.77921 152.91015,73.63737 C153.25963,72.49551 153.80231,71.1405 154.11611,70.62621 C154.42992,70.11188 154.68667,69.49463 154.68667,69.25447 C154.68667,68.74953 156.33218,64.88644 157.66414,62.26442 C158.16688,61.27475 158.57993,60.37919 158.58201,60.27429 C158.59101,59.84666 161.02556,56.47612 162.2384,55.21316 C163.94513,53.43589 167.73955,50.4184 168.26768,50.4184 C168.49644,50.4184 168.77317,50.3289 168.88264,50.21939 C169.39455,49.70755 172.37135,48.9189 173.79147,48.9189 C175.69883,48.9189 177.89912,50.12276 178.82569,51.67333 C179.74216,53.20698 179.5906,58.06802 178.51409,61.66732 C178.07054,63.15035 177.57136,64.90353 177.4048,65.56331 C177.23824,66.22309 176.7919,67.50515 176.41294,68.41235 C176.03398,69.31954 175.62962,70.46666 175.51438,70.96149 C175.39913,71.45633 175.05959,72.33353 174.75984,72.91084 C174.46009,73.48814 173.46824,75.52716 172.55573,77.44198 C171.64322,79.35681 170.69112,81.09401 170.43997,81.30241 C170.18881,81.51084 169.98332,81.80696 169.98332,81.96051 C169.98332,82.3552 167.44109,86.20243 166.86359,86.68167 C166.59988,86.90051 166.38411,87.19885 166.38411,87.34463 C166.38411,87.6155 163.04292,91.03872 161.42971,92.42066 C160.93783,92.84202 159.56383,93.68548 158.37638,94.29503 C156.31504,95.35313 156.0828,95.40328 153.24296,95.40328 C150.63306,95.40328 150.16251,95.32188 149.40328,94.73921 L149.40328,94.73921 Z M99.7632,116.28901 C100.32108,115.61687 101.28307,112.42694 101.29096,111.22296 L101.29796,110.09834 L55.61119,110.09834 L9.92442,110.09834 L9.14432,111.99769 C8.26109,114.14815 7.86469,115.90502 8.15628,116.37676 C8.2945,116.60036 22.00605,116.69612 53.88929,116.69612 C91.87564,116.69612 99.48092,116.62862 99.76282,116.28901 L99.7632,116.28901 L99.7632,116.28901 Z M653.73541,115.91908 C654.48741,114.26886 655.30491,111.49341 655.21821,110.8853 L655.12721,110.24829 L404.29641,110.17309 L153.46565,110.09799 L152.85429,111.52269 C152.05921,113.37556 151.5501,115.60642 151.78354,116.21467 C151.95297,116.65615 172.78748,116.69613 402.67481,116.69613 L653.38121,116.69613 L653.73531,115.91909 L653.73541,115.91908 L653.73541,115.91908 Z M113.11805,106.12467 C113.2372,105.69285 114.90989,100.4917 115.36044,99.15202 C116.19574,96.66831 117.00622,94.1057 117.68422,91.80449 C118.0973,90.40246 118.57701,88.96456 118.75025,88.60918 C119.47873,87.11466 118.03564,86.85153 116.72609,88.2401 C115.64376,89.38772 108.62259,95.40328 108.36544,95.40328 C108.26325,95.40328 107.33993,96.04821 106.31364,96.83644 C105.28734,97.62469 103.73266,98.7225 102.85878,99.27603 C100.72868,100.62524 100.87615,101.06417 103.73465,101.88302 C106.54739,102.68873 107.16089,102.99837 108.52441,104.30042 C110.38272,106.07492 112.86028,107.05883 113.11805,106.12467 L113.11805,106.12467 Z M68.30555,101.56833 C73.6722,100.73752 76.95896,99.97086 79.45872,98.96674 C80.23164,98.65628 81.14453,98.40227 81.48735,98.40227 C81.83018,98.40227 82.34504,98.27577 82.63149,98.12117 C82.91794,97.96658 83.82716,97.54999 84.65198,97.19538 C90.33518,94.75214 93.36574,93.13409 97.99906,90.06921 C102.62002,87.01255 108.65765,81.66121 112.45175,77.25938 C113.58913,75.93982 114.79472,74.57564 115.13084,74.22791 C115.46696,73.88014 115.96764,73.25497 116.24347,72.83865 C116.51929,72.4223 117.28959,71.28982 117.95526,70.32199 C118.62092,69.35415 119.60391,67.82005 120.13967,66.91285 C120.67543,66.00566 121.23969,65.06098 121.39357,64.81356 C121.9858,63.86138 125.29309,56.7242 125.29309,56.39836 C125.29309,56.20951 125.68016,54.88798 126.15325,53.46163 C127.18758,50.34309 128.09753,44.32607 128.06479,40.82162 C128.02999,37.09538 127.06935,32.07785 125.91166,29.5754 C125.60643,28.91563 125.18017,27.97094 124.96441,27.47611 C124.40811,26.20028 122.83346,23.72737 122.57734,23.72737 C122.45896,23.72737 122.13793,23.25503 121.86395,22.67772 C121.58997,22.10042 121.25792,21.62808 121.12608,21.62808 C120.99423,21.62808 120.157,20.91956 119.26556,20.0536 C117.1078,17.95752 112.22951,14.4305 111.48814,14.4305 C111.34758,14.4305 110.31334,13.95881 109.18982,13.38232 C108.0663,12.80582 106.91544,12.33348 106.63235,12.33267 C106.34926,12.33267 105.67441,12.14172 105.13268,11.91017 C103.81017,11.34486 102.34705,10.95586 98.59893,10.17301 C95.84019,9.59681 94.51967,9.5156 87.95125,9.51803 C81.03203,9.52103 80.14016,9.58293 76.40378,10.32467 C74.17677,10.76675 71.88227,11.25795 71.30489,11.41618 C70.72752,11.57444 69.64775,11.8618 68.90542,12.05481 C67.18519,12.50205 62.69905,14.22803 60.32048,15.35769 C59.31045,15.83741 58.38168,16.22989 58.25653,16.22989 C57.8424,16.22989 52.60765,19.29429 49.59195,21.30212 C47.96007,22.38859 46.39741,23.41335 46.11937,23.57934 C45.84133,23.7453 45.37761,24.11733 45.0889,24.40601 C44.80018,24.69469 44.33717,25.05223 44.06,25.20056 C42.67648,25.94093 37.16083,31.29266 33.9589,35.00151 C31.23671,38.15468 30.93167,38.53936 30.49216,39.37338 C30.28971,39.75755 30.04267,40.13935 29.94318,40.22183 C29.77692,40.35966 29.12404,41.33622 27.63748,43.67067 C26.39857,45.61623 25.14669,48.04365 23.15218,52.36774 C22.42782,53.93817 21.02129,58.54264 20.12903,62.26442 C19.34389,65.53941 19.26627,66.34889 19.26627,71.26139 C19.26627,76.58751 19.27937,76.69739 20.25081,79.49162 C21.62363,83.4406 22.79054,85.69125 24.70909,88.09051 C25.61708,89.22601 26.45103,90.29 26.56231,90.45494 C26.89039,90.94126 31.33387,94.80348 31.56527,94.80348 C31.68183,94.80348 32.26901,95.17655 32.87012,95.63252 C34.91935,97.18696 40.69115,99.7654 43.56096,100.40844 C44.55074,100.63025 46.30536,101.02411 47.4601,101.28376 C48.61485,101.54338 50.77438,101.86925 52.25906,102.00796 C55.93107,102.35095 64.82389,102.10736 68.30555,101.56833 L68.30555,101.56833 Z M56.1582,96.27367 C53.53239,95.82826 51.98484,95.2814 50.31572,94.20905 C46.76738,91.92936 44.94238,88.79728 44.13237,83.59712 C43.6584,80.55428 43.65892,80.10086 44.14137,76.10965 C44.42356,73.77302 44.8991,70.98399 45.19814,69.91185 C45.49717,68.83971 45.97018,66.95034 46.24927,65.71326 C47.49784,60.17889 51.70619,48.27292 53.88154,44.12052 C54.01115,43.8731 54.7676,42.3886 55.56252,40.82162 C56.35744,39.25465 57.47908,37.23033 58.05504,36.32314 C60.58414,32.33958 61.87322,30.45855 62.22712,30.23527 C62.43619,30.10338 62.60724,29.84981 62.60724,29.67182 C62.60724,28.99009 67.67064,23.58498 70.41856,21.3333 C72.58538,19.55781 75.83516,17.42949 76.37939,17.42949 C76.72158,17.42949 76.9995,17.31169 78.80089,16.40311 C80.69938,15.44556 86.41697,14.67509 89.00147,15.02849 C94.67679,15.8046 96.81026,16.71042 99.4207,19.45213 C101.1925,21.31306 101.67363,22.14483 102.58756,24.92697 C103.12988,26.57788 103.22354,27.54206 103.19934,31.22485 C103.18084,34.0463 103.01011,36.20528 102.7133,37.37278 C102.46169,38.36245 102.16632,39.84695 102.05691,40.67167 C101.83423,42.3503 101.52898,43.66434 100.69842,46.51971 C100.38657,47.59185 99.86056,49.41374 99.52952,50.56835 C98.65872,53.60552 97.29269,57.57327 96.76898,58.58657 C96.62095,58.87301 96.49983,59.29643 96.49983,59.5276 C96.49983,60.01478 93.90331,65.84728 92.07722,69.462 C91.82724,69.95683 91.35427,70.90151 91.02618,71.56129 C90.69809,72.22107 90.27702,72.94719 90.09048,73.17487 C89.62704,73.74051 87.87977,76.77195 87.43375,77.7842 C87.23388,78.2378 86.98376,78.60892 86.87794,78.60892 C86.77211,78.60892 86.11816,79.48613 85.42471,80.55827 C84.73126,81.63041 84.04671,82.50761 83.90348,82.50761 C83.76026,82.50761 83.55975,82.77011 83.45791,83.09095 C83.24953,83.7474 78.03058,89.07319 76.24163,90.45494 C69.80971,95.42283 62.91671,97.41998 56.15865,96.27367 L56.1582,96.27367 L56.1582,96.27367 Z M63.84472,87.71557 C65.06095,87.44599 66.23028,87.08749 66.44324,86.91892 C66.65621,86.75032 67.49847,86.3029 68.31493,85.92466 C70.46141,84.93032 76.31014,78.95348 78.87824,75.12997 C79.99174,73.47216 80.90279,72.01531 80.90279,71.89256 C80.90279,71.76978 81.30771,71.08091 81.8026,70.36169 C82.29749,69.64248 82.7024,68.98516 82.7024,68.90101 C82.7024,68.81681 83.56898,66.95178 84.62813,64.75646 C90.64903,52.27675 94.97402,35.69935 93.96475,28.96982 C93.81759,27.98861 93.44933,27.2397 92.71356,26.42541 C91.76679,25.37757 91.48894,25.25197 89.69195,25.05955 C86.22783,24.68861 82.631,25.50592 79.98479,27.26534 C76.32195,29.7007 75.4606,30.45642 72.90811,33.47409 C71.59065,35.03165 67.89814,40.20497 67.37738,41.22283 C67.27928,41.41452 67.01151,41.90876 66.7823,42.32112 C65.79102,44.1045 63.78494,47.93073 63.48035,48.619 C63.29786,49.03136 62.96736,49.77361 62.74591,50.26845 C61.75528,52.482 61.15178,53.95436 60.77911,55.06684 C60.55809,55.72661 60.20405,56.53262 59.99235,56.85798 C59.78066,57.18334 59.60745,57.69593 59.60745,57.99709 C59.60745,58.29825 59.33751,59.1033 59.00758,59.78608 C58.67765,60.46889 58.40771,61.26413 58.40771,61.5533 C58.40771,61.84246 58.27274,62.16248 58.10778,62.26442 C57.94281,62.36635 57.80784,62.83869 57.80784,63.31406 C57.80784,63.78943 57.68843,64.25215 57.54249,64.34233 C57.39655,64.43253 57.20899,64.87909 57.12571,65.33472 C57.04241,65.79033 56.70275,67.10779 56.37089,68.2624 C56.03903,69.41701 55.67534,70.96899 55.5627,71.71124 C55.45005,72.45349 55.16679,73.72632 54.93323,74.53974 C54.65239,75.5178 54.50856,77.52782 54.50856,80.47469 C54.50856,84.31873 54.58986,85.09001 55.10041,86.09069 C56.1291,88.10685 59.3658,88.7083 63.84472,87.71557 L63.84472,87.71557 Z M468.67491,100.30504 C469.57811,98.66804 469.84041,98.41789 470.99191,98.09556 C472.43651,97.69112 474.87051,97.99495 478.16601,98.99106 C485.97711,101.35211 491.34631,102.12624 499.91121,102.12624 C507.75911,102.12624 510.58901,101.78687 517.60731,100.00415 C520.49051,99.2718 525.60071,96.99385 528.55491,95.12413 C531.69651,93.1358 535.65691,89.02796 537.44491,85.90316 C538.90871,83.34499 539.22061,82.51493 540.41071,78.00912 C540.76101,76.68291 540.77171,71.89853 540.42771,70.51164 C539.26181,65.81447 538.20851,63.25819 536.37231,60.66964 C535.30661,59.16742 531.60941,55.27512 530.62291,54.61699 C530.25211,54.36957 529.16271,53.62342 528.20221,52.9589 C526.15101,51.53981 522.38501,49.67576 518.80741,48.30876 C516.03571,47.24969 512.70631,45.92984 510.10931,44.86073 C509.20201,44.4872 507.17741,43.68359 505.61031,43.07492 C501.94691,41.65207 501.48371,41.45681 500.17061,40.78219 C499.57081,40.47398 498.90671,40.22183 498.69481,40.22183 C498.08391,40.22183 492.17521,37.50474 488.47971,35.52447 C486.76931,34.60789 484.58521,32.45294 483.66621,30.775 C482.73571,29.07628 482.68091,28.80781 482.68701,25.97661 C482.69701,23.32631 482.78601,22.79957 483.48741,21.44637 C484.25631,19.96316 486.36331,17.42949 486.82781,17.42949 C486.95341,17.42949 487.64471,17.02462 488.36401,16.52979 C489.08331,16.03496 489.89261,15.63009 490.16241,15.63009 C490.43221,15.63009 490.94571,15.47345 491.30341,15.28203 C492.60831,14.58374 496.80561,13.84614 499.46161,13.84836 C503.32601,13.85136 509.10581,15.1319 512.10241,16.64846 C512.95121,17.07804 513.72931,17.42949 513.83161,17.42949 C514.52431,17.42949 520.73051,22.15617 521.70381,23.42495 C521.89471,23.67375 522.48331,24.34966 523.01191,24.92697 C525.43431,27.57274 527.72051,31.20281 529.15031,34.67369 C530.42631,37.77153 530.49271,37.82263 533.24021,37.82263 C535.24911,37.82263 535.62681,37.74003 535.89311,37.24254 C536.27921,36.52119 536.31531,9.6731 535.93111,9.06632 C535.60921,8.55808 533.11931,8.28721 531.29021,8.56147 C530.03581,8.74956 529.90791,8.85459 529.43881,10.08283 C528.59751,12.28559 528.19201,12.48721 524.69781,12.44048 C522.49621,12.41108 521.15281,12.22846 519.83091,11.77894 C518.05001,11.17332 515.29791,10.50649 509.50951,9.27805 C507.14641,8.77653 505.48281,8.66991 499.76161,8.65339 C491.87821,8.63059 489.25631,8.99002 482.36541,11.03831 C479.86291,11.78218 475.61991,13.77381 475.61791,14.20557 C475.61791,14.32928 475.42141,14.43049 475.18251,14.43049 C474.68281,14.43049 471.37821,17.04325 470.11451,18.43736 C467.13921,21.7199 464.80321,26.00381 464.06851,29.52511 C463.53821,32.06646 463.46951,38.6682 463.95161,40.74233 C465.67601,48.16004 473.23761,55.27038 484.91481,60.45449 C486.31701,61.077 488.44321,62.04255 489.63971,62.60015 C490.83611,63.15776 492.02251,63.61396 492.27601,63.61396 C492.52961,63.61396 493.23781,63.86885 493.84981,64.18035 C494.46191,64.49186 495.57001,64.92035 496.31231,65.13256 C497.05471,65.34474 497.79701,65.60904 497.96201,65.71985 C498.12691,65.8307 499.94901,66.5605 502.01111,67.34171 C505.91011,68.81883 506.66121,69.12518 508.90961,70.1556 C509.65191,70.49578 510.74681,70.98249 511.34271,71.23716 C511.93861,71.4918 512.59631,71.9051 512.80411,72.15554 C513.01201,72.40602 513.29381,72.61094 513.43031,72.61094 C513.94981,72.61094 516.42551,74.48546 517.38261,75.60339 C519.60271,78.19686 520.37161,81.27101 519.70921,84.90561 C518.77521,90.03025 514.54251,94.06921 508.30971,95.78319 C506.39501,96.30969 505.21201,96.40026 500.36151,96.39166 C495.94681,96.38366 494.32481,96.27203 493.16301,95.89565 C492.33821,95.62841 491.39341,95.40799 491.06351,95.40583 C490.01451,95.39883 485.00781,93.0682 482.42231,91.38319 C476.67451,87.63727 471.41921,80.28923 469.15501,72.83283 C467.91641,68.7542 468.03291,68.87596 465.27221,68.77337 C463.28191,68.69937 462.81811,68.77037 462.50091,69.20555 C462.00231,69.88731 461.94121,100.80716 462.43691,101.73274 C462.71921,102.25999 463.02171,102.31517 465.20541,102.23783 L467.65711,102.15103 L468.67561,100.30506 L468.67491,100.30504 L468.67491,100.30504 Z M201.37234,100.94005 C201.47745,100.66618 200.95588,99.60034 200.0882,98.31593 C199.28458,97.12635 198.22215,95.41155 197.72726,94.50535 C197.23237,93.59911 196.61127,92.81707 196.34704,92.76749 C196.07816,92.71699 194.86,93.64059 193.58041,94.86502 C192.323,96.06827 190.81728,97.45759 190.23437,97.95242 C189.65147,98.44725 188.75278,99.21428 188.23729,99.6569 C187.63792,100.17152 187.36503,100.63103 187.48033,100.93147 C187.63663,101.33873 188.56149,101.40126 194.42798,101.40126 C200.24081,101.40126 201.2203,101.33626 201.37234,100.94005 L201.37234,100.94005 Z M236.48531,100.77162 C239.72381,100.0764 241.36121,99.58765 242.71771,98.91135 C244.03491,98.25466 245.99781,97.25545 246.81261,96.82687 C249.11311,95.61678 254.06411,91.31724 256.41901,88.48451 C261.17151,82.76783 261.20581,82.60496 257.96871,81.12445 C255.42501,79.96108 254.66681,80.11229 252.91261,82.13274 C246.25421,89.80215 240.73591,92.54173 233.97231,91.53587 C230.20401,90.97548 228.07921,89.213 226.86057,85.63679 C226.02878,83.19591 226.31073,77.67684 227.33691,76.31256 C227.48047,76.12171 228.43541,75.87396 229.45891,75.76198 C230.48251,75.65 232.35471,75.30007 233.61941,74.98437 C234.88411,74.66864 236.24091,74.41033 236.63451,74.41033 C237.49801,74.41033 243.52481,72.69119 247.10611,71.42328 C249.89041,70.43751 257.02981,66.91198 258.01411,66.03676 C258.34401,65.74337 259.22131,65.08572 259.96361,64.57526 C264.80041,61.24944 268.45751,55.96821 268.84331,51.75223 C269.22691,47.55958 267.86371,44.48804 264.45561,41.86584 C263.03371,40.77187 261.88581,40.21784 259.42031,39.43564 C256.28521,38.44096 256.12841,38.42243 250.84651,38.42243 C245.87261,38.42243 245.16991,38.49273 241.54241,39.35263 C232.70801,41.44688 224.64952,45.96846 217.57548,52.80026 C215.11546,55.17606 210.17454,61.29952 210.17454,61.97252 C210.17454,62.18806 210.06607,62.40936 209.9335,62.46436 C209.51023,62.63989 207.15224,67.27381 206.14382,69.91185 C204.74947,73.55943 204.37415,75.54308 204.24292,79.95847 C204.11459,84.27621 204.64002,87.32594 205.89633,89.55524 C206.26815,90.21502 206.7212,91.12597 206.90312,91.57956 C207.08503,92.03316 207.35373,92.40429 207.50022,92.40429 C207.6467,92.40429 208.12383,92.9441 208.5605,93.60388 C208.99717,94.26366 209.4858,94.80348 209.64635,94.80348 C209.80689,94.80348 210.20029,95.13658 210.52057,95.54372 C210.84085,95.95083 211.41639,96.45691 211.79955,96.66834 C215.5777,98.753 217.95865,99.76408 220.82221,100.49976 C223.72084,101.24444 224.69413,101.35067 228.83701,101.37433 C232.57221,101.39563 234.16221,101.27036 236.48531,100.77162 L236.48531,100.77162 Z M229.41471,68.66846 C229.75321,67.78535 230.09901,66.72542 230.18311,66.31306 C230.26711,65.90069 230.72621,64.71948 231.20291,63.68813 C231.67971,62.6568 232.06971,61.6379 232.06971,61.42389 C232.06971,61.20991 232.19401,60.90662 232.34581,60.74993 C232.49771,60.59323 233.13881,59.47182 233.77051,58.25791 C234.40231,57.04401 235.10881,55.69446 235.34061,55.25892 C235.95321,54.108 237.88461,51.29794 238.70831,50.3592 C239.09871,49.91427 239.95801,48.93807 240.61791,48.18988 C241.27771,47.44169 241.98161,46.82732 242.18201,46.82459 C242.38241,46.82159 242.68351,46.56337 242.85111,46.25016 C243.25091,45.50323 247.31891,43.82062 248.72491,43.82062 C250.21671,43.82062 251.79921,44.62204 252.32851,45.64556 C253.67451,48.248 251.88131,54.57932 248.55611,58.96553 C247.06641,60.93049 243.92811,63.92277 243.09031,64.17696 C242.88521,64.23916 242.44751,64.52872 242.11751,64.82034 C241.56531,65.30848 237.82171,67.29181 236.41881,67.83951 C236.08891,67.96832 235.14411,68.36104 234.31921,68.71222 C233.49441,69.0634 232.21221,69.47384 231.46991,69.6243 C230.72751,69.77476 229.82301,69.98253 229.45981,70.086 L228.79941,70.27415 L229.41471,68.66846 L229.41471,68.66846 Z M261.61331,100.35161 C261.61331,99.20711 260.49631,98.90658 259.96081,99.90701 C259.45751,100.84735 259.80841,101.4589 260.78681,101.34638 C261.48401,101.26618 261.61331,101.11063 261.61331,100.35161 L261.61331,100.35161 Z M307.23291,100.98242 C307.32091,100.75207 306.99401,99.36878 306.50551,97.90846 C305.37181,94.51944 304.92011,94.42878 303.73591,97.35262 C302.90281,99.40963 302.65601,100.80311 303.05421,101.20132 C303.16421,101.31129 304.11321,101.40126 305.16321,101.40126 C306.52061,101.40126 307.11861,101.28022 307.23291,100.98242 L307.23291,100.98242 Z M331.42291,100.62932 C333.07521,100.3482 334.91441,99.80235 335.96991,99.27977 C336.94491,98.79715 337.85861,98.40227 338.00051,98.40227 C338.14241,98.40227 338.82941,98.03114 339.52721,97.57755 C340.22501,97.12395 340.95151,96.68535 341.14161,96.60287 C341.90851,96.27017 345.95631,92.40773 347.89891,90.15504 C349.03671,88.83548 350.14951,87.55342 350.37171,87.306 C352.90131,84.4892 353.56531,82.67514 352.19281,82.3307 C351.78001,82.22709 350.94161,81.88715 350.32981,81.57523 C349.71791,81.26333 349.05271,81.00812 348.85151,81.00812 C348.65031,81.00812 347.59471,82.05401 346.50571,83.33233 C341.27701,89.47019 338.65241,91.45921 336.85951,90.64244 C336.15861,90.32316 336.10191,90.16536 336.22331,88.8739 C336.29631,88.09404 336.53241,86.98361 336.74731,86.4063 C337.27051,85.0004 339.08111,80.61945 339.90801,78.75887 C340.27451,77.93415 340.67351,76.92199 340.79461,76.50963 C340.91571,76.09727 341.26011,75.28754 341.55991,74.71023 C342.05481,73.75706 343.57331,70.12471 344.75691,67.0628 C345.01191,66.40303 345.39371,65.45834 345.60531,64.96351 C346.25361,63.44755 347.47181,59.9973 348.30541,57.31608 C348.74141,55.91405 349.23711,54.42955 349.40711,54.01719 C349.57701,53.60483 349.78541,51.76666 349.87021,49.93238 C349.99501,47.23089 349.92021,46.26788 349.47871,44.86322 C348.75131,42.55072 347.04051,40.61292 344.72231,39.47547 C342.93921,38.6006 342.77061,38.57682 337.67181,38.48088 C332.51151,38.38378 332.41121,38.39418 329.42361,39.33394 C327.76011,39.85718 325.79181,40.62402 325.04941,41.03803 C322.46741,42.47797 319.09671,44.76779 318.93371,45.19253 C318.84371,45.42766 318.58601,45.62001 318.36171,45.62001 C317.75991,45.62001 311.10161,52.39605 307.41141,56.764 C305.64731,58.85204 304.16171,60.44598 304.11011,60.3061 C304.05811,60.1662 304.23691,59.71506 304.50651,59.30357 C304.77621,58.89208 305.24521,57.77046 305.54881,56.81111 C305.85251,55.85176 306.72551,53.58233 307.48881,51.76794 C308.25221,49.95355 309.08731,47.86176 309.34461,47.11951 C309.60191,46.37726 309.99201,45.3651 310.21151,44.87026 C311.30741,42.39987 312.15221,39.94169 312.15221,39.22361 C312.15221,38.53567 312.02671,38.42243 311.26401,38.42243 C310.77551,38.42243 309.25711,38.67707 307.88981,38.98828 C306.52241,39.29952 303.85161,39.71224 301.95451,39.90546 C300.05741,40.09866 296.61561,40.51024 294.30611,40.82003 C289.26501,41.49631 283.29381,42.02713 280.76621,42.02371 C279.36121,42.02071 278.88051,42.13386 278.74161,42.4956 C278.48761,43.15748 278.52221,45.9995 278.78861,46.4026 C278.90981,46.5856 280.22371,46.80428 281.70841,46.88852 C284.75951,47.06166 286.37891,47.61545 287.11391,48.73698 C287.59281,49.46787 287.57881,49.63164 286.82241,52.13589 C286.38531,53.58296 285.91001,55.23928 285.76631,55.81658 C285.62251,56.39389 285.27561,57.47353 284.99541,58.21578 C284.71521,58.95803 284.30371,60.17262 284.08081,60.91487 C283.85801,61.65712 283.12441,63.81639 282.45071,65.71326 C280.47671,71.27126 279.46291,74.15005 278.85991,75.90983 C278.54911,76.81702 277.59991,79.51612 276.75051,81.90781 C275.90111,84.29951 275.09121,86.66122 274.95061,87.15605 C274.81001,87.65088 273.85481,90.49768 272.82791,93.48227 C271.77431,96.54436 271.04451,99.12686 271.15281,99.40924 C271.32781,99.86515 272.25421,99.90263 281.57071,99.83075 L291.79661,99.75185 L293.53261,94.64768 C294.48741,91.84038 295.49061,89.11424 295.76191,88.5896 C296.03321,88.06495 296.25521,87.42029 296.25521,87.15701 C296.25521,86.89373 296.71051,85.70619 297.26691,84.51802 C297.82341,83.32985 298.72501,81.34553 299.27041,80.10845 C301.12941,75.8928 303.55841,71.13546 305.35011,68.20125 C305.87421,67.34285 306.74281,65.89209 307.28041,64.97733 C307.81801,64.06255 308.36991,63.31409 308.50701,63.31409 C308.64401,63.31409 308.90761,62.98181 309.09271,62.57568 C310.01421,60.55334 316.06481,53.99143 318.52001,52.35152 C319.22411,51.88131 320.03891,51.29818 320.33081,51.05568 C321.23911,50.30114 324.83191,48.91893 325.88481,48.91893 C327.72631,48.91893 329.33091,50.28383 329.05801,51.61802 C328.86651,52.55425 328.20941,54.29337 327.27081,56.3481 C326.87361,57.21768 326.54861,58.07821 326.54861,58.26031 C326.54861,58.44244 326.14371,59.38817 325.64881,60.36195 C325.15391,61.33572 324.74901,62.27527 324.74901,62.44984 C324.74901,62.62442 324.34411,63.64194 323.84921,64.71102 C323.35431,65.78013 322.94941,66.76353 322.94941,66.89636 C322.94941,67.02921 322.47701,68.17438 321.89961,69.44121 C321.32221,70.70802 320.84991,71.89265 320.84991,72.07373 C320.84991,72.25478 320.44491,73.25983 319.95011,74.30714 C319.45521,75.35448 319.05021,76.41489 319.05021,76.66369 C319.05021,76.91245 318.79161,77.68808 318.47561,78.3873 C318.15951,79.08651 317.73781,80.19842 317.53851,80.8582 C317.33911,81.51797 316.85771,83.00248 316.46861,84.15709 C315.34431,87.49374 314.78721,91.64815 315.17951,93.76994 C315.57401,95.90402 316.02701,96.83278 317.28881,98.09436 C318.77431,99.57973 319.55051,99.98076 322.01221,100.53467 C324.93961,101.19334 327.93061,101.22342 331.42241,100.62937 L331.42291,100.62932 L331.42291,100.62932 Z M422.07821,99.18501 C423.39791,98.91144 425.55751,98.55963 426.87721,98.40323 C428.19691,98.24686 430.28891,97.83846 431.52621,97.49567 C432.76341,97.15292 434.31551,96.76896 434.97541,96.64243 C435.63531,96.5159 436.64751,96.19444 437.22491,95.92804 C437.80231,95.66167 438.89541,95.2407 439.65401,94.9926 C440.41271,94.74449 441.73461,94.12808 442.59161,93.62284 C443.44861,93.11757 444.22981,92.70418 444.32771,92.70418 C444.85891,92.70418 448.79081,89.79789 450.47971,88.15681 C452.44221,86.24999 453.32481,85.00076 455.00091,81.75786 C456.37711,79.09521 456.79411,74.38217 455.96481,70.86475 C454.48821,64.60216 449.98931,59.72568 442.02391,55.75384 C440.78661,55.13692 439.50071,54.62874 439.16621,54.62457 C438.83181,54.62057 438.26661,54.41282 437.91021,54.16324 C437.55391,53.91369 435.39811,53.23526 433.11951,52.65565 C430.84101,52.076 428.84791,51.56248 428.69051,51.51447 C428.31901,51.4012 431.31931,50.4184 432.03661,50.4184 C432.33791,50.4184 433.32481,50.13838 434.22981,49.79614 C435.13481,49.45389 436.25471,49.05605 436.71851,48.91206 C438.24071,48.43951 442.27791,46.27295 443.89121,45.06289 C447.72801,42.18503 449.78581,39.01908 450.75421,34.50392 C451.54381,30.82254 450.18081,25.42006 447.62161,22.08806 C445.72741,19.62175 442.63901,17.28748 439.02451,15.59015 C436.34381,14.33132 430.20481,12.3166 429.07591,12.32514 C428.63561,12.32814 427.48831,12.14262 426.52651,11.91215 C421.70311,10.75643 419.36721,10.68176 388.03571,10.68176 L357.59231,10.68176 L357.50131,12.60063 C357.45131,13.65604 357.53931,14.64753 357.69531,14.80396 C357.85181,14.96042 359.78211,15.26164 361.98491,15.47339 C367.83371,16.03559 370.00291,17.25917 371.05231,20.58785 C371.51981,22.07073 371.56491,24.99774 371.58461,55.1778 C371.60461,85.96548 371.57061,88.25368 371.07471,89.74769 C370.42041,91.71737 369.07121,93.07987 367.14411,93.71697 C366.34441,93.9814 363.86791,94.50367 361.64091,94.87758 L357.59181,95.55746 L357.50081,97.32116 C357.45081,98.29119 357.48481,99.27908 357.57481,99.51645 C357.71791,99.88935 361.95421,99.93002 388.70921,99.81524 C416.04651,99.69798 419.95931,99.62409 422.07741,99.18501 L422.07821,99.18501 L422.07821,99.18501 Z M404.98201,94.21652 C401.92681,93.83696 400.28111,92.81986 399.38081,90.75484 C399.07651,90.05679 398.96771,85.97328 398.89531,72.53596 L398.80231,55.21679 L401.99121,55.21679 C405.02641,55.21679 411.27991,55.86475 413.53041,56.41242 C416.55131,57.14757 420.21481,59.21792 422.22321,61.32504 C425.12761,64.37208 426.38241,67.33073 427.04161,72.68591 C427.62671,77.43926 426.68011,83.15863 424.70901,86.77968 C423.04491,89.83679 418.68051,92.87192 414.73021,93.71931 C412.24091,94.25328 407.30501,94.50505 404.98231,94.21652 L404.98201,94.21652 L404.98201,94.21652 Z M414.42991,85.19468 C415.76621,84.52081 416.56841,83.60404 417.29881,81.91612 C417.78321,80.79669 417.87771,79.87909 417.87021,76.36799 C417.86021,72.46306 417.80521,72.04269 417.07781,70.51164 C416.64681,69.60445 415.97601,68.57106 415.58701,68.2152 C414.37371,67.10515 412.41101,66.2639 410.91451,66.21241 L409.48101,66.16311 L409.40201,75.75727 C409.35801,81.03409 409.38301,85.50933 409.45701,85.70229 C409.65101,86.2078 413.12381,85.85332 414.42981,85.19468 L414.42991,85.19468 L414.42991,85.19468 Z M398.89081,34.49369 C398.99701,16.78635 398.85281,17.73164 401.65941,16.40386 C403.14661,15.70039 403.63641,15.63009 407.05071,15.63009 C410.56061,15.63009 410.99241,15.69669 413.65281,16.64741 C419.63001,18.78347 422.17251,22.55869 422.66251,30.02525 C422.84851,32.85972 422.53321,37.27127 421.94921,40.00587 C421.42661,42.45314 419.95401,44.44878 416.88661,46.86675 C416.67071,47.03697 415.32271,47.58468 413.89111,48.08389 C411.21421,49.01736 408.91851,49.34047 402.34001,49.70968 L398.79831,49.90848 L398.89131,34.49369 L398.89081,34.49369 L398.89081,34.49369 Z M412.33031,39.66398 C413.02181,39.15595 413.10081,38.8449 413.34551,35.66927 C413.80741,29.67278 413.10361,26.72768 411.04571,26.04643 C409.32801,25.47776 409.33101,25.46559 409.33101,33.11478 C409.33101,36.96867 409.43131,40.22213 409.55391,40.34469 C409.88831,40.67905 411.47991,40.28879 412.33031,39.66398 L412.33031,39.66398 Z M605.63811,99.04594 C607.94761,98.66915 611.32191,98.02452 613.13651,97.61338 C614.95111,97.20228 616.97561,96.75399 617.63551,96.61721 C618.97631,96.33929 621.87851,95.30929 622.18541,95.00249 C622.29491,94.89303 622.64521,94.80348 622.96381,94.80348 C623.71101,94.80348 629.08691,92.30232 631.76391,90.70926 C638.07561,86.95302 642.20961,83.06048 646.68641,76.65817 C648.17411,74.53062 651.67801,66.27683 651.67801,64.89996 C651.67801,64.48769 651.90801,63.32117 652.18911,62.30769 C652.93811,59.60674 652.94341,48.31455 652.19911,45.87376 C651.91381,44.94116 651.68041,43.88656 651.68041,43.53016 C651.68041,42.95076 651.21271,41.61087 650.05471,38.87228 C649.11161,36.6419 647.10821,32.72435 646.91071,32.72435 C646.79071,32.72435 646.47781,32.28574 646.21531,31.74967 C645.14751,29.56905 639.67731,24.0249 636.35831,21.75937 C632.59701,19.19196 628.37571,16.92176 625.28611,15.80487 C622.07141,14.6427 621.60711,14.48817 619.88731,14.00782 C618.98001,13.75443 617.36791,13.27351 616.30481,12.93916 C615.24181,12.60477 613.95871,12.3312 613.45351,12.3312 C612.94831,12.3312 612.07681,12.19981 611.51681,12.03925 C610.95681,11.87865 608.79821,11.50789 606.71981,11.21528 C603.30401,10.73439 600.03131,10.68322 572.64761,10.68253 L542.35421,10.68253 L542.26521,12.70904 C542.18121,14.63323 542.21421,14.75001 542.92911,15.02166 C543.34301,15.17901 544.93511,15.39803 546.46711,15.50836 C549.45151,15.7233 552.25961,16.6445 553.55571,17.83387 C553.94301,18.18919 554.53021,19.00723 554.86061,19.65174 C555.45181,20.8047 555.46121,21.37583 555.44301,55.10384 C555.42501,88.65839 555.41201,89.40874 554.83061,90.54809 C554.50401,91.18831 553.78481,92.10885 553.23241,92.59379 C551.94331,93.72558 547.89221,95.03182 544.75351,95.32776 L542.35401,95.55401 L542.26301,97.31981 C542.21301,98.29101 542.24601,99.2783 542.33601,99.51379 C542.47721,99.88167 546.64731,99.92714 571.97071,99.83687 C600.98301,99.73343 601.50641,99.72114 605.64021,99.04672 L605.64021,99.04594 L605.63811,99.04594 Z M587.43481,93.59602 C585.85271,93.32923 584.85171,92.68484 583.92431,91.33607 L583.29301,90.41781 L583.29301,54.55668 C583.29301,14.00506 583.03281,17.90228 585.80021,16.99334 C590.15521,15.56297 593.81001,15.65654 602.18881,17.41299 C603.26141,17.63783 607.37171,19.57302 608.18611,20.2366 C608.43441,20.43883 609.02831,20.8005 609.50601,21.0403 C610.54331,21.56102 615.38601,26.36819 615.38601,26.87715 C615.38601,27.07299 615.67051,27.4903 616.01831,27.8045 C616.36601,28.11873 616.87221,28.80394 617.14301,29.32724 C618.54881,32.04321 619.03111,33.05343 619.83851,34.97359 C620.32401,36.1282 620.81391,37.54523 620.92721,38.12253 C621.04051,38.69984 621.38101,39.98191 621.68381,40.97157 C622.82641,44.7049 623.03431,47.01364 623.03431,55.96653 C623.03431,65.23288 622.81341,67.51367 621.50091,71.80169 C621.10711,73.08853 620.78481,74.37785 620.78481,74.66684 C620.78481,75.13858 620.33691,76.19965 618.74131,79.50802 C617.92901,81.19213 615.54471,84.65501 614.29201,85.96977 C610.48951,89.96098 604.68391,92.681 598.28971,93.46716 C594.58591,93.92252 589.71431,93.98035 587.43481,93.59602 L587.43481,93.59602 Z M599.84131,84.93188 C603.11541,84.09459 604.76161,83.2166 606.97141,81.12907 C608.44471,79.73729 609.29441,78.58604 610.36211,76.53536 C611.14561,75.03032 611.78671,73.53958 611.78671,73.22261 C611.78671,72.90565 611.90241,72.57483 612.04381,72.48747 C612.78201,72.03132 614.18821,61.32888 614.18351,56.20327 C614.18351,51.93982 612.98751,43.1857 612.20331,41.66125 C611.97421,41.21584 611.78671,40.62267 611.78671,40.34313 C611.78671,39.49577 609.11481,34.47693 608.01671,33.26156 C607.45081,32.63525 606.98781,32.00816 606.98781,31.86801 C606.98781,31.49677 603.73981,29.01039 602.33881,28.3092 C599.39241,26.83448 594.70271,25.7941 593.92191,26.442 C593.55241,26.74864 593.49071,30.9676 593.49071,55.95328 C593.49071,71.98769 593.58071,85.19672 593.69071,85.30666 C594.09261,85.7085 597.65281,85.49155 599.84131,84.93188 L599.84131,84.93188 Z M505.61811,87.73758 C508.87761,87.13944 510.35441,86.05791 510.61881,84.07536 C510.83431,82.45903 510.44831,82.00276 507.47861,80.36366 C505.40931,79.2215 504.23751,78.70666 500.81101,77.43434 C500.06871,77.1587 499.16651,76.77039 498.80611,76.57144 C498.44581,76.37251 497.95071,76.20973 497.70571,76.20973 C497.46081,76.20973 496.87831,76.02079 496.41131,75.78987 C495.14101,75.16173 490.99931,73.53823 489.02211,72.89332 C488.06451,72.58101 486.91721,72.12318 486.47261,71.87598 C484.77861,70.9339 479.68091,68.99967 479.28871,69.15013 C478.76081,69.35271 479.07661,71.70713 479.83341,73.21074 C480.12401,73.78804 480.71671,75.02711 481.15051,75.96423 C483.11101,80.19926 487.30081,84.41371 491.41891,86.293 C493.47891,87.23309 498.01061,88.12607 500.96101,88.17331 C502.11571,88.19191 504.21141,87.99571 505.61811,87.73758 L505.61811,87.73758 Z M269.37861,76.43465 C269.60871,75.5564 270.21931,73.61485 270.43961,73.06079 C271.05821,71.50554 271.38171,70.18769 271.21231,69.91359 C270.90131,69.41047 269.98831,69.57455 269.38411,70.24215 C269.07031,70.58878 267.96961,71.49201 266.93811,72.24935 C265.90651,73.00669 265.06251,73.82583 265.06251,74.06968 C265.06251,74.60077 265.92221,75.60723 266.38371,75.61659 C266.56441,75.62059 267.04961,75.88719 267.46201,76.20973 C268.31801,76.87919 269.23401,76.98668 269.37861,76.43465 L269.37861,76.43465 Z M464.71941,59.84189 C464.83811,59.5326 464.42971,58.88344 463.54031,57.96752 C460.39451,54.72807 459.07571,52.9918 457.46481,49.96855 C456.66031,48.45856 455.96841,48.355 454.54611,49.5316 C452.98761,50.82092 453.05391,51.59412 454.84611,53.02758 C456.63831,54.46116 460.61981,58.36234 460.61981,58.68491 C460.61981,58.81797 460.91321,59.23921 461.27191,59.62095 C462.07311,60.47369 464.41921,60.62403 464.71941,59.84189 L464.71941,59.84189 Z M546.25111,49.8186 C546.25111,43.81891 546.21411,43.37176 545.70271,43.27339 C545.35331,43.20609 544.78081,43.60406 544.12521,44.36994 C542.90401,45.79644 540.38111,47.41941 539.38481,47.41941 C538.33671,47.41941 537.83281,48.15719 538.25231,49.07773 C538.43801,49.4852 538.75391,49.8186 538.95431,49.8186 C539.34681,49.8186 541.46541,51.96195 543.80771,54.72879 C546.17811,57.52868 546.25111,57.382 546.25111,49.8186 L546.25111,49.8186 Z M520.50251,38.86112 C520.59951,38.60756 520.46051,38.15831 520.19321,37.86282 C519.92571,37.56733 519.70691,37.192 519.70691,37.0288 C519.70691,36.86556 518.91901,35.52411 517.95601,34.04774 C516.19051,31.34082 513.27691,28.37854 511.30871,27.28933 C510.73131,26.96979 509.67291,26.37968 508.95661,25.97796 C507.25291,25.02242 502.58981,24.02634 499.84141,24.03084 C497.48571,24.03484 494.91161,24.59642 493.74381,25.36155 C492.79631,25.98228 492.76941,27.30343 493.68781,28.12641 C494.54341,28.89334 499.18561,31.12579 503.23701,32.71859 C504.95471,33.3939 506.79861,34.14377 507.33481,34.38501 C509.25841,35.25058 510.29751,35.67259 512.80861,36.6081 C515.10771,37.46461 516.57261,38.04141 518.80731,38.96996 C519.87741,39.41462 520.30071,39.38745 520.50271,38.86112 L520.50251,38.86112 L520.50251,38.86112 Z" id="path2821" fill="#FFFFFF" sketch:type="MSShapeGroup"></path>
            </g>
        </g>
    </g>
</svg>