<?xml version="1.0" encoding="UTF-8" standalone="no"?>
<svg width="97px" height="40px" viewBox="0 0 97 40" version="1.1" xmlns="http://www.w3.org/2000/svg" xmlns:xlink="http://www.w3.org/1999/xlink" xmlns:sketch="http://www.bohemiancoding.com/sketch/ns">
    <!-- Generator: Sketch 3.3.1 (12002) - http://www.bohemiancoding.com/sketch -->
    <title>rhel logo</title>
    <desc>Created with Sketch.</desc>
    <defs>
        <path id="path-1" d="M0,27.687 L82.107,27.687 L82.107,0.704 L0,0.704 L0,27.687 L0,27.687 Z"></path>
    </defs>
    <g id="Page-1" stroke="none" stroke-width="1" fill="none" fill-rule="evenodd" sketch:type="MSPage">
        <g id="rhel-logo" sketch:type="MSArtboardGroup">
            <g id="Group-110" sketch:type="MSLayerGroup" transform="translate(8.000000, 6.000000)">
                <mask id="mask-2" sketch:name="Clip 109" fill="white">
                    <use xlink:href="#path-1"></use>
                </mask>
                <g id="Clip-109"></g>
                <path d="M57.7058,11.9357 C57.5348,12.1057 57.2458,12.1897 56.8358,12.1897 L55.3758,12.1897 L55.3758,10.2407 L56.8738,10.2407 C57.2668,10.2407 57.5468,10.3307 57.7118,10.5087 C57.8788,10.6867 57.9618,10.9167 57.9618,11.1967 C57.9618,11.5197 57.8758,11.7657 57.7058,11.9357 L57.7058,11.9357 Z M59.9868,12.7767 C60.2768,12.3527 60.4218,11.8037 60.4218,11.1327 C60.4218,10.6067 60.3378,10.1577 60.1718,9.7887 C60.0078,9.4197 59.7718,9.1207 59.4658,8.8907 C59.1598,8.6617 58.7918,8.4937 58.3638,8.3867 C57.9348,8.2807 57.4608,8.2277 56.9418,8.2277 L52.9548,8.2277 L52.9548,17.1467 L55.3758,17.1467 L55.3758,14.1397 L56.3708,14.1397 L57.8278,17.1467 L60.5998,17.1467 L58.8118,13.7447 C59.3058,13.5237 59.6978,13.2017 59.9868,12.7767 L59.9868,12.7767 Z M62.1408,17.1467 L64.6638,17.1467 L64.6638,8.2277 L62.1408,8.2277 L62.1408,17.1467 Z M77.6338,13.5407 L80.2728,13.5407 L80.2728,11.5027 L77.6338,11.5027 L77.6338,10.3047 L82.0178,10.3047 L82.0178,8.2277 L75.1888,8.2277 L75.1888,17.1467 L82.1068,17.1467 L82.1068,15.0697 L77.6338,15.0697 L77.6338,13.5407 Z M72.8578,12.5347 C72.5938,12.3137 72.2588,12.1227 71.8508,11.9607 C71.4428,11.7997 70.9588,11.6517 70.3978,11.5147 C70.1088,11.4467 69.8708,11.3857 69.6838,11.3317 C69.4978,11.2757 69.3488,11.2207 69.2388,11.1657 C69.1278,11.1087 69.0498,11.0507 69.0028,10.9867 C68.9548,10.9227 68.9328,10.8477 68.9328,10.7637 C68.9328,10.6027 68.9928,10.4707 69.1108,10.3687 C69.2298,10.2667 69.4758,10.2157 69.8498,10.2157 C70.3088,10.2157 70.7378,10.2877 71.1368,10.4327 C71.5358,10.5767 71.9348,10.7847 72.3348,11.0567 L73.5328,9.1207 C73.0558,8.7887 72.5348,8.5337 71.9708,8.3557 C71.4058,8.1767 70.7418,8.0877 69.9778,8.0877 C69.4418,8.0877 68.9578,8.1557 68.5248,8.2917 C68.0918,8.4277 67.7218,8.6187 67.4158,8.8647 C67.1108,9.1107 66.8748,9.4087 66.7088,9.7567 C66.5438,10.1057 66.4608,10.4877 66.4608,10.9037 C66.4608,11.3537 66.5258,11.7317 66.6578,12.0377 C66.7898,12.3437 66.9878,12.6047 67.2508,12.8217 C67.5138,13.0377 67.8448,13.2177 68.2448,13.3627 C68.6438,13.5077 69.1108,13.6427 69.6458,13.7697 C69.9428,13.8387 70.1898,13.9047 70.3858,13.9677 C70.5798,14.0317 70.7348,14.0957 70.8498,14.1587 C70.9648,14.2227 71.0458,14.2887 71.0928,14.3567 C71.1388,14.4247 71.1628,14.5007 71.1628,14.5857 C71.1628,14.7977 71.0798,14.9467 70.9138,15.0327 C70.7488,15.1167 70.4448,15.1587 70.0028,15.1587 C69.7988,15.1587 69.5778,15.1337 69.3408,15.0827 C69.1018,15.0327 68.8668,14.9637 68.6328,14.8787 C68.3988,14.7937 68.1738,14.6987 67.9578,14.5927 C67.7418,14.4867 67.5528,14.3767 67.3908,14.2667 L66.1938,16.2047 C66.6608,16.5097 67.2228,16.7667 67.8818,16.9747 C68.5388,17.1827 69.2298,17.2887 69.9518,17.2887 C70.4868,17.2887 70.9798,17.2317 71.4298,17.1217 C71.8798,17.0117 72.2688,16.8417 72.5958,16.6117 C72.9218,16.3827 73.1768,16.0847 73.3608,15.7207 C73.5428,15.3547 73.6338,14.9167 73.6338,14.4077 C73.6338,13.9917 73.5698,13.6307 73.4418,13.3247 C73.3158,13.0187 73.1208,12.7547 72.8578,12.5347 L72.8578,12.5347 Z M36.0058,6.6947 L36.0058,2.1637 L37.6788,2.1637 L37.6788,0.7207 L32.6778,0.7207 L32.6778,2.1637 L34.3498,2.1637 L34.3498,6.6947 L36.0058,6.6947 Z M48.9008,11.9867 C48.7318,12.1567 48.4408,12.2417 48.0308,12.2417 L46.7248,12.2417 L46.7248,10.2407 L48.0688,10.2407 C48.4708,10.2407 48.7528,10.3307 48.9148,10.5087 C49.0768,10.6867 49.1588,10.9247 49.1588,11.2227 C49.1588,11.5627 49.0728,11.8167 48.9008,11.9867 L48.9008,11.9867 Z M50.6618,8.8967 C50.3558,8.6627 49.9888,8.4937 49.5598,8.3867 C49.1308,8.2807 48.6578,8.2277 48.1388,8.2277 L44.3048,8.2277 L44.3048,17.1467 L46.7248,17.1467 L46.7248,14.2547 L47.9628,14.2547 C48.4998,14.2547 48.9928,14.2017 49.4398,14.0957 C49.8868,13.9897 50.2718,13.8157 50.5948,13.5727 C50.9198,13.3307 51.1698,13.0147 51.3488,12.6237 C51.5268,12.2337 51.6168,11.7527 51.6168,11.1837 C51.6168,10.6497 51.5348,10.1927 51.3698,9.8147 C51.2038,9.4367 50.9678,9.1307 50.6618,8.8967 L50.6618,8.8967 Z M39.9328,11.9357 C39.7628,12.1057 39.4718,12.1897 39.0618,12.1897 L37.6028,12.1897 L37.6028,10.2407 L39.1008,10.2407 C39.4928,10.2407 39.7728,10.3307 39.9398,10.5087 C40.1048,10.6867 40.1888,10.9167 40.1888,11.1967 C40.1888,11.5197 40.1038,11.7657 39.9328,11.9357 L39.9328,11.9357 Z M42.2148,12.7767 C42.5038,12.3527 42.6478,11.8037 42.6478,11.1327 C42.6478,10.6067 42.5648,10.1577 42.3998,9.7887 C42.2338,9.4197 41.9978,9.1207 41.6928,8.8907 C41.3868,8.6617 41.0188,8.4937 40.5908,8.3867 C40.1608,8.2807 39.6868,8.2277 39.1698,8.2277 L35.1818,8.2277 L35.1818,17.1467 L37.6028,17.1467 L37.6028,14.1397 L38.5988,14.1397 L40.0548,17.1467 L42.8258,17.1467 L41.0388,13.7447 C41.5328,13.5237 41.9238,13.2017 42.2148,12.7767 L42.2148,12.7767 Z M7.9188,27.5447 L10.4418,27.5447 L10.4418,18.6257 L7.9188,18.6257 L7.9188,27.5447 Z M41.0338,19.2657 C41.0088,19.2837 40.9788,19.2937 40.9408,19.2937 L40.7248,19.2937 L40.7248,19.0617 L40.9408,19.0617 C40.9788,19.0617 41.0088,19.0707 41.0338,19.0907 C41.0588,19.1097 41.0718,19.1387 41.0718,19.1777 C41.0718,19.2177 41.0588,19.2467 41.0338,19.2657 L41.0338,19.2657 Z M41.2098,19.1737 C41.2098,19.1307 41.2018,19.0937 41.1888,19.0627 C41.1738,19.0317 41.1538,19.0057 41.1298,18.9857 C41.1058,18.9657 41.0788,18.9507 41.0458,18.9417 C41.0138,18.9317 40.9788,18.9267 40.9428,18.9267 L40.5858,18.9267 L40.5858,19.7427 L40.7248,19.7427 L40.7248,19.4277 L40.8818,19.4277 L41.0408,19.7427 L41.2038,19.7427 L41.0358,19.4137 C41.0878,19.3987 41.1298,19.3707 41.1608,19.3307 C41.1938,19.2907 41.2098,19.2377 41.2098,19.1737 L41.2098,19.1737 Z M2.5168,18.6267 L0.0198,18.6267 L0.0198,27.5447 L6.4668,27.5447 L6.4668,25.3927 L2.5168,25.3927 L2.5168,18.6267 Z M39.2368,18.6267 L36.4338,18.6267 L35.9358,19.4927 C35.7758,19.7737 35.6158,20.0557 35.4588,20.3407 C35.3018,20.6247 35.1728,20.8857 35.0698,21.1237 C34.9758,20.8857 34.8518,20.6247 34.6948,20.3407 C34.5368,20.0557 34.3768,19.7737 34.2178,19.4927 L33.7198,18.6267 L30.8528,18.6267 L33.6688,23.0347 L30.7508,27.5447 L33.5538,27.5447 L34.1528,26.5127 C34.3228,26.2327 34.4838,25.9487 34.6358,25.6597 C34.7908,25.3717 34.9168,25.1077 35.0188,24.8697 C35.1298,25.1157 35.2588,25.3817 35.4078,25.6667 C35.5568,25.9517 35.7118,26.2327 35.8728,26.5127 L36.4718,27.5447 L39.3378,27.5447 L36.4208,22.9837 L39.2368,18.6267 Z M41.4498,19.5977 C41.4188,19.6737 41.3738,19.7397 41.3178,19.7967 C41.2608,19.8527 41.1938,19.8977 41.1178,19.9287 C41.0408,19.9607 40.9578,19.9767 40.8698,19.9767 C40.7808,19.9767 40.6968,19.9607 40.6218,19.9287 C40.5458,19.8977 40.4798,19.8527 40.4228,19.7967 C40.3658,19.7397 40.3218,19.6737 40.2908,19.5977 C40.2588,19.5217 40.2418,19.4387 40.2418,19.3497 C40.2418,19.2607 40.2588,19.1787 40.2908,19.1017 C40.3218,19.0257 40.3658,18.9587 40.4228,18.9017 C40.4798,18.8457 40.5458,18.8017 40.6218,18.7697 C40.6968,18.7377 40.7808,18.7217 40.8698,18.7217 C40.9578,18.7217 41.0408,18.7377 41.1178,18.7697 C41.1938,18.8017 41.2608,18.8457 41.3178,18.9017 C41.3738,18.9587 41.4188,19.0257 41.4498,19.1017 C41.4828,19.1787 41.4978,19.2607 41.4978,19.3497 C41.4978,19.4387 41.4828,19.5217 41.4498,19.5977 L41.4498,19.5977 Z M41.5608,19.0537 C41.5218,18.9617 41.4698,18.8827 41.4028,18.8157 C41.3368,18.7487 41.2578,18.6967 41.1668,18.6587 C41.0758,18.6207 40.9778,18.6017 40.8698,18.6017 C40.7628,18.6017 40.6648,18.6207 40.5738,18.6587 C40.4828,18.6967 40.4038,18.7487 40.3368,18.8157 C40.2698,18.8827 40.2178,18.9617 40.1788,19.0537 C40.1418,19.1447 40.1228,19.2427 40.1228,19.3497 C40.1228,19.4557 40.1418,19.5547 40.1788,19.6457 C40.2178,19.7367 40.2698,19.8157 40.3368,19.8817 C40.4038,19.9487 40.4828,20.0007 40.5738,20.0407 C40.6648,20.0777 40.7628,20.0967 40.8698,20.0967 C40.9778,20.0967 41.0758,20.0777 41.1668,20.0407 C41.2578,20.0007 41.3368,19.9487 41.4028,19.8817 C41.4698,19.8157 41.5218,19.7367 41.5608,19.6457 C41.5988,19.5547 41.6178,19.4557 41.6178,19.3497 C41.6178,19.2427 41.5988,19.1447 41.5608,19.0537 L41.5608,19.0537 Z M27.1968,23.7357 C27.1968,24.2877 27.0878,24.7217 26.8718,25.0357 C26.6558,25.3497 26.3038,25.5067 25.8208,25.5067 C25.3368,25.5067 24.9808,25.3497 24.7568,25.0357 C24.5328,24.7217 24.4188,24.2877 24.4188,23.7357 L24.4188,18.6267 L21.8968,18.6267 L21.8968,23.7357 C21.8968,24.4407 21.9938,25.0447 22.1888,25.5447 C22.3848,26.0467 22.6548,26.4557 22.9988,26.7747 C23.3428,27.0937 23.7518,27.3247 24.2278,27.4687 C24.7038,27.6127 25.2218,27.6867 25.7828,27.6867 C26.3438,27.6867 26.8628,27.6127 27.3438,27.4687 C27.8228,27.3247 28.2398,27.0937 28.5918,26.7747 C28.9438,26.4557 29.2198,26.0467 29.4198,25.5447 C29.6188,25.0447 29.7188,24.4407 29.7188,23.7357 L29.7188,18.6267 L27.1968,18.6267 L27.1968,23.7357 Z M29.1298,13.5407 L31.7668,13.5407 L31.7668,11.5027 L29.1298,11.5027 L29.1298,10.3047 L33.5118,10.3047 L33.5118,8.2277 L26.6828,8.2277 L26.6828,17.1467 L33.6018,17.1467 L33.6018,15.0697 L29.1298,15.0697 L29.1298,13.5407 Z M17.7678,21.6717 C17.7678,21.9017 17.7718,22.1247 17.7808,22.3407 C17.7898,22.5567 17.7978,22.7577 17.8068,22.9397 C17.8148,23.1217 17.8278,23.2637 17.8448,23.3657 C17.7938,23.2737 17.7138,23.1367 17.6028,22.9587 C17.4928,22.7807 17.3688,22.5887 17.2328,22.3857 C17.0978,22.1817 16.9588,21.9777 16.8188,21.7737 C16.6788,21.5697 16.5578,21.4007 16.4548,21.2637 L14.4938,18.6267 L12.3148,18.6267 L12.3148,27.5447 L14.6838,27.5447 L14.6838,24.2077 C14.6838,23.9777 14.6808,23.7547 14.6718,23.5387 C14.6628,23.3227 14.6558,23.1217 14.6468,22.9397 C14.6388,22.7577 14.6258,22.6147 14.6078,22.5127 C14.6678,22.6147 14.7548,22.7547 14.8688,22.9337 C14.9848,23.1117 15.1068,23.3007 15.2388,23.5007 C15.3698,23.6997 15.5038,23.8997 15.6408,24.0987 C15.7768,24.2987 15.8948,24.4667 15.9968,24.6017 L18.1248,27.5447 L20.1378,27.5447 L20.1378,18.6267 L17.7678,18.6267 L17.7678,21.6717 Z M13.9678,11.2727 C13.9678,11.5027 13.9728,11.7257 13.9808,11.9427 C13.9888,12.1587 13.9968,12.3587 14.0058,12.5407 C14.0138,12.7237 14.0268,12.8657 14.0448,12.9677 C13.9928,12.8747 13.9128,12.7387 13.8018,12.5597 C13.6918,12.3817 13.5678,12.1897 13.4318,11.9867 C13.2958,11.7827 13.1588,11.5787 13.0178,11.3747 C12.8778,11.1717 12.7568,11.0017 12.6538,10.8657 L10.6938,8.2277 L8.5128,8.2277 L8.5128,17.1467 L10.8828,17.1467 L10.8828,13.8087 C10.8828,13.5797 10.8798,13.3567 10.8718,13.1397 C10.8628,12.9237 10.8538,12.7237 10.8458,12.5407 C10.8378,12.3587 10.8248,12.2157 10.8068,12.1137 C10.8668,12.2157 10.9548,12.3567 11.0688,12.5347 C11.1838,12.7127 11.3068,12.9017 11.4388,13.1017 C11.5698,13.3007 11.7028,13.5007 11.8398,13.6997 C11.9748,13.8997 12.0948,14.0687 12.1958,14.2037 L14.3238,17.1467 L16.3358,17.1467 L16.3358,8.2277 L13.9678,8.2277 L13.9678,11.2727 Z M39.2258,1.1767 L39.4468,1.1767 C39.4838,1.1767 39.5168,1.1857 39.5428,1.2067 C39.5678,1.2257 39.5798,1.2547 39.5798,1.2947 C39.5798,1.3357 39.5678,1.3647 39.5428,1.3847 C39.5168,1.4037 39.4838,1.4127 39.4468,1.4127 L39.2258,1.4127 L39.2258,1.1767 Z M39.2258,1.5517 L39.3858,1.5517 L39.5488,1.8747 L39.7168,1.8747 L39.5438,1.5367 C39.5978,1.5207 39.6408,1.4917 39.6738,1.4507 C39.7058,1.4107 39.7218,1.3567 39.7218,1.2907 C39.7218,1.2467 39.7148,1.2087 39.7008,1.1767 C39.6848,1.1447 39.6658,1.1187 39.6408,1.0977 C39.6158,1.0777 39.5868,1.0617 39.5548,1.0517 C39.5208,1.0427 39.4868,1.0377 39.4488,1.0377 L39.0828,1.0377 L39.0828,1.8747 L39.2258,1.8747 L39.2258,1.5517 Z M10.7448,5.3037 L7.7488,5.3037 L7.7488,4.2797 L9.5158,4.2797 L9.5158,2.9147 L7.7488,2.9147 L7.7488,2.1127 L10.6848,2.1127 L10.6848,0.7207 L6.1108,0.7207 L6.1108,6.6947 L10.7448,6.6947 L10.7448,5.3037 Z M24.3318,2.8977 L22.4708,2.8977 L22.4708,0.7207 L20.7808,0.7207 L20.7808,6.6947 L22.4708,6.6947 L22.4708,4.3397 L24.3318,4.3397 L24.3318,6.6947 L26.0208,6.6947 L26.0208,0.7207 L24.3318,0.7207 L24.3318,2.8977 Z M2.4628,13.5407 L5.0998,13.5407 L5.0998,11.5027 L2.4628,11.5027 L2.4628,10.3047 L6.8448,10.3047 L6.8448,8.2277 L0.0158,8.2277 L0.0158,17.1467 L6.9348,17.1467 L6.9348,15.0697 L2.4628,15.0697 L2.4628,13.5407 Z M1.6218,2.0697 L2.6248,2.0697 C2.8888,2.0697 3.0748,2.1297 3.1868,2.2487 C3.2978,2.3687 3.3548,2.5217 3.3548,2.7097 C3.3548,2.9267 3.2968,3.0907 3.1818,3.2047 C3.0688,3.3187 2.8738,3.3757 2.5988,3.3757 L1.6218,3.3757 L1.6218,2.0697 Z M1.6218,4.6807 L2.2898,4.6807 L3.2648,6.6947 L5.1208,6.6947 L3.9238,4.4167 C4.2538,4.2697 4.5168,4.0527 4.7098,3.7687 C4.9038,3.4827 5.0008,3.1167 5.0008,2.6677 C5.0008,2.3147 4.9448,2.0137 4.8348,1.7657 C4.7238,1.5197 4.5658,1.3187 4.3618,1.1657 C4.1568,1.0117 3.9098,0.8997 3.6228,0.8277 C3.3368,0.7577 3.0188,0.7207 2.6718,0.7207 L-0.0002,0.7207 L-0.0002,6.6947 L1.6218,6.6947 L1.6218,4.6807 Z M17.7768,10.3807 L20.2738,10.3807 L20.2738,17.1467 L22.7458,17.1467 L22.7458,10.3807 L25.2438,10.3807 L25.2438,8.2277 L17.7768,8.2277 L17.7768,10.3807 Z M38.7798,1.2167 C38.8118,1.1377 38.8568,1.0697 38.9148,1.0117 C38.9728,0.9547 39.0418,0.9087 39.1188,0.8757 C39.1968,0.8437 39.2818,0.8267 39.3738,0.8267 C39.4638,0.8267 39.5488,0.8437 39.6278,0.8757 C39.7068,0.9087 39.7758,0.9547 39.8328,1.0117 C39.8908,1.0697 39.9358,1.1377 39.9688,1.2167 C40.0008,1.2947 40.0168,1.3807 40.0168,1.4707 C40.0168,1.5637 40.0008,1.6467 39.9688,1.7257 C39.9358,1.8037 39.8908,1.8707 39.8328,1.9297 C39.7758,1.9877 39.7068,2.0327 39.6278,2.0657 C39.5488,2.0977 39.4638,2.1157 39.3738,2.1157 C39.2818,2.1157 39.1968,2.0977 39.1188,2.0657 C39.0418,2.0327 38.9728,1.9877 38.9148,1.9297 C38.8568,1.8707 38.8118,1.8037 38.7798,1.7257 C38.7458,1.6467 38.7308,1.5637 38.7308,1.4707 C38.7308,1.3807 38.7458,1.2947 38.7798,1.2167 L38.7798,1.2167 Z M38.8268,2.0187 C38.8958,2.0867 38.9768,2.1397 39.0708,2.1797 C39.1648,2.2187 39.2648,2.2377 39.3738,2.2377 C39.4828,2.2377 39.5838,2.2187 39.6768,2.1797 C39.7708,2.1397 39.8518,2.0867 39.9208,2.0187 C39.9898,1.9487 40.0438,1.8687 40.0828,1.7747 C40.1208,1.6817 40.1408,1.5797 40.1408,1.4707 C40.1408,1.3617 40.1208,1.2597 40.0828,1.1667 C40.0438,1.0727 39.9898,0.9937 39.9208,0.9237 C39.8518,0.8547 39.7708,0.8017 39.6768,0.7627 C39.5838,0.7237 39.4828,0.7037 39.3738,0.7037 C39.2648,0.7037 39.1648,0.7237 39.0708,0.7627 C38.9768,0.8017 38.8958,0.8547 38.8268,0.9237 C38.7588,0.9937 38.7048,1.0727 38.6658,1.1667 C38.6268,1.2597 38.6058,1.3617 38.6058,1.4707 C38.6058,1.5797 38.6268,1.6817 38.6658,1.7747 C38.7048,1.8687 38.7588,1.9487 38.8268,2.0187 L38.8268,2.0187 Z M29.4858,3.9387 C29.5368,3.7507 29.5818,3.5857 29.6218,3.4447 C29.6618,3.3017 29.6978,3.1737 29.7288,3.0597 C29.7608,2.9457 29.7868,2.8407 29.8108,2.7437 C29.8328,2.6467 29.8528,2.5467 29.8698,2.4457 C29.8878,2.5467 29.9078,2.6457 29.9298,2.7397 C29.9518,2.8337 29.9788,2.9377 30.0108,3.0517 C30.0428,3.1647 30.0778,3.2927 30.1168,3.4347 C30.1578,3.5777 30.2028,3.7457 30.2538,3.9387 L30.3658,4.3317 L29.3748,4.3317 L29.4858,3.9387 Z M28.9738,5.6457 L30.7658,5.6457 L31.0898,6.6947 L32.8828,6.6947 L30.7138,0.7207 L29.0428,0.7207 L26.8738,6.6947 L28.6488,6.6947 L28.9738,5.6457 Z M15.1908,4.4467 C15.1398,4.6487 15.0558,4.8107 14.9398,4.9337 C14.8228,5.0547 14.6728,5.1437 14.4908,5.1977 C14.3088,5.2527 14.0898,5.2787 13.8338,5.2787 L13.4758,5.2787 L13.4758,2.1377 L13.8858,2.1377 C14.1418,2.1377 14.3568,2.1687 14.5328,2.2277 C14.7108,2.2867 14.8518,2.3797 14.9608,2.5047 C15.0698,2.6297 15.1468,2.7917 15.1958,2.9917 C15.2438,3.1907 15.2678,3.4267 15.2678,3.6997 C15.2678,3.9957 15.2418,4.2447 15.1908,4.4467 L15.1908,4.4467 Z M16.1338,1.3577 C15.8698,1.1267 15.5468,0.9627 15.1658,0.8657 C14.7838,0.7697 14.3608,0.7207 13.8938,0.7207 L11.8038,0.7207 L11.8038,6.6947 L13.7408,6.6947 C14.2688,6.6947 14.7348,6.6427 15.1358,6.5377 C15.5358,6.4327 15.8748,6.2617 16.1468,6.0257 C16.4198,5.7897 16.6248,5.4797 16.7618,5.0947 C16.8978,4.7107 16.9658,4.2367 16.9658,3.6737 C16.9658,3.1107 16.8938,2.6407 16.7478,2.2667 C16.6028,1.8907 16.3978,1.5867 16.1338,1.3577 L16.1338,1.3577 Z" id="Fill-108" fill="#4C4B4B" sketch:type="MSShapeGroup" mask="url(#mask-2)"></path>
            </g>
        </g>
    </g>
</svg>