<?xml version="1.0" encoding="UTF-8" standalone="no"?>
<svg width="296px" height="96px" viewBox="0 0 296 96" version="1.1" xmlns="http://www.w3.org/2000/svg" xmlns:xlink="http://www.w3.org/1999/xlink" xmlns:sketch="http://www.bohemiancoding.com/sketch/ns">
    <!-- Generator: Sketch 3.3.1 (12002) - http://www.bohemiancoding.com/sketch -->
    <title>Artboard 1</title>
    <desc>Created with Sketch.</desc>
    <defs></defs>
    <g id="Page-1" stroke="none" stroke-width="1" fill="none" fill-rule="evenodd" sketch:type="MSPage">
        <g id="Artboard-1" sketch:type="MSArtboardGroup" fill="#494949">
            <g id="smartos" sketch:type="MSLayerGroup" transform="translate(5.000000, 22.000000)">
                <path d="M65.888,30.695 C66.103,35.216 68.902,36.669 73.155,36.669 C76.168,36.669 79.29,35.596 79.29,32.742 C79.29,29.349 73.8,28.704 68.256,27.142 C62.766,25.582 57.007,23.107 57.007,16.056 C57.007,7.66 65.457,4.375 72.67,4.375 C80.313,4.375 88.009,8.088 88.063,16.754 L78.052,16.754 C78.214,13.255 74.93,12.126 71.863,12.126 C69.71,12.126 67.019,12.88 67.019,15.409 C67.019,18.37 72.562,18.907 78.16,20.469 C83.703,22.031 89.301,24.615 89.301,31.558 C89.301,41.299 81.012,44.419 72.562,44.419 C63.735,44.419 55.931,40.545 55.877,30.694 L65.888,30.694 L65.888,30.695 Z M91.456,15.68 L100.337,15.68 L100.337,19.501 L100.444,19.501 C102.112,16.702 105.073,14.872 108.464,14.872 C111.963,14.872 115.084,16.002 116.591,19.393 C118.798,16.434 121.543,14.872 125.31,14.872 C134.191,14.872 135.16,21.6 135.16,26.929 L135.16,43.614 L126.011,43.614 L126.011,27.197 C126.011,24.181 124.557,22.408 122.19,22.408 C118.26,22.408 117.884,25.421 117.884,29.941 L117.884,43.613 L108.734,43.613 L108.734,27.734 C108.734,24.452 107.765,22.408 105.29,22.408 C102.006,22.408 100.606,24.292 100.606,29.998 L100.606,43.613 L91.457,43.613 L91.456,15.68 L91.456,15.68 Z M138.77,24.292 C138.931,20.631 140.653,18.264 143.129,16.811 C145.606,15.412 148.834,14.873 152.01,14.873 C158.629,14.873 165.034,16.326 165.034,24.237 L165.034,36.456 C165.034,38.823 165.034,41.405 166.109,43.614 L156.904,43.614 C156.584,42.754 156.474,41.891 156.368,40.975 C154,43.452 150.502,44.419 147.165,44.419 C141.836,44.419 137.638,41.729 137.638,35.97 C137.638,26.873 147.542,27.574 153.892,26.282 C155.453,25.961 156.314,25.422 156.314,23.7 C156.314,21.6 153.785,20.794 151.9,20.794 C149.37,20.794 147.755,21.925 147.326,24.293 L138.77,24.293 L138.77,24.292 Z M150.609,38.77 C154.97,38.77 156.423,36.294 156.208,30.536 C154.917,31.344 152.549,31.505 150.557,32.044 C148.512,32.528 146.788,33.388 146.788,35.599 C146.788,37.854 148.564,38.77 150.609,38.77 L150.609,38.77 Z M168.158,15.68 L177.04,15.68 L177.04,20.577 L177.144,20.577 C178.491,17.025 181.613,15.14 185.541,15.14 C186.24,15.14 186.994,15.195 187.694,15.355 L187.694,23.699 C186.51,23.375 185.43,23.161 184.194,23.161 C179.673,23.161 177.305,26.281 177.305,29.779 L177.305,43.613 L168.156,43.613 L168.158,15.68 L168.158,15.68 Z M209.766,21.6 L204.114,21.6 L204.114,34.302 C204.114,36.51 205.407,36.994 207.397,36.994 C208.151,36.994 208.959,36.885 209.766,36.885 L209.766,43.614 C208.096,43.669 206.428,43.884 204.759,43.884 C196.954,43.884 194.964,41.623 194.964,34.035 L194.964,21.6 L190.335,21.6 L190.335,15.68 L194.964,15.68 L194.964,7.23 L204.113,7.23 L204.113,15.68 L209.763,15.68 L209.763,21.6 L209.766,21.6 L209.766,21.6 Z M230.648,4.377 C242.757,4.377 249.592,13.257 249.592,24.398 C249.592,35.541 242.757,44.419 230.648,44.419 C218.539,44.419 211.703,35.54 211.703,24.398 C211.703,13.256 218.539,4.377 230.648,4.377 L230.648,4.377 Z M230.648,35.811 C237.107,35.811 239.583,30.104 239.583,24.399 C239.583,18.694 237.107,12.989 230.648,12.989 C224.189,12.989 221.712,18.694 221.712,24.399 C221.714,30.104 224.189,35.811 230.648,35.811 L230.648,35.811 Z M260.686,30.695 C260.903,35.216 263.702,36.669 267.953,36.669 C270.967,36.669 274.09,35.596 274.09,32.742 C274.09,29.349 268.599,28.704 263.056,27.142 C257.568,25.582 251.808,23.107 251.808,16.056 C251.808,7.66 260.256,4.375 267.47,4.375 C275.113,4.375 282.808,8.088 282.863,16.754 L272.85,16.754 C273.012,13.255 269.727,12.126 266.661,12.126 C264.509,12.126 261.817,12.88 261.817,15.409 C261.817,18.37 267.36,18.907 272.958,20.469 C278.502,22.031 284.101,24.615 284.101,31.558 C284.101,41.299 275.812,44.419 267.361,44.419 C258.537,44.419 250.732,40.545 250.676,30.694 L260.686,30.694 L260.686,30.695 Z M10.765,3.507 C7.694,5.749 1.245,11.147 1.021,12.077 C0.729,13.661 3.473,24.83 9.643,32.693 C13.599,31 17.367,28.597 21.785,24.963 C14.647,17.439 10.944,10.226 10.765,3.507 L10.765,3.507 Z M13.276,2.706 C13.21,4.036 13.31,4.554 13.591,5.861 C14.282,5.368 15.922,4.278 16.578,3.842 C14.818,2.887 13.706,2.729 13.276,2.706 L13.276,2.706 Z M14.618,8.64 C16.314,12.591 18.715,16.363 22.353,20.779 C29.874,13.643 37.089,9.939 43.807,9.759 C41.562,6.688 36.165,0.238 35.236,0.017 C35.177,0.004 35.096,0 34.999,0 C32.788,0.001 22.193,2.696 14.618,8.64 L14.618,8.64 Z M41.449,12.585 C41.947,13.279 43.034,14.918 43.47,15.572 C44.424,13.814 44.582,12.681 44.604,12.27 C43.281,12.204 42.739,12.309 41.449,12.585 L41.449,12.585 Z M26.417,21.293 C33.556,28.816 37.257,36.029 37.436,42.747 C40.507,40.507 46.958,35.111 47.181,34.176 C47.473,32.594 44.729,21.426 38.559,13.56 C34.604,15.254 30.834,17.656 26.417,21.293 L26.417,21.293 Z M31.625,42.413 C33.384,43.366 34.495,43.525 34.926,43.549 C34.995,42.219 34.893,41.699 34.614,40.393 C33.918,40.886 32.282,41.977 31.625,42.413 L31.625,42.413 Z M4.396,36.49 C6.639,39.564 12.037,46.013 12.966,46.236 C13.026,46.248 13.107,46.252 13.204,46.252 C15.414,46.252 26.008,43.559 33.583,37.616 C31.888,33.666 29.486,29.892 25.848,25.472 C18.328,32.611 11.114,36.314 4.396,36.49 L4.396,36.49 Z M3.597,33.98 C4.922,34.045 5.465,33.945 6.752,33.668 C6.256,32.977 5.17,31.338 4.732,30.682 C3.777,32.441 3.62,33.572 3.597,33.98 L3.597,33.98 Z" id="Shape" sketch:type="MSShapeGroup"></path>
            </g>
        </g>
    </g>
</svg>