<?xml version="1.0" encoding="UTF-8" standalone="no"?>
<svg width="296px" height="96px" viewBox="0 0 296 96" version="1.1" xmlns="http://www.w3.org/2000/svg" xmlns:xlink="http://www.w3.org/1999/xlink" xmlns:sketch="http://www.bohemiancoding.com/sketch/ns">
    <!-- Generator: Sketch 3.3.1 (12002) - http://www.bohemiancoding.com/sketch -->
    <title>Artboard 1</title>
    <desc>Created with Sketch.</desc>
    <defs></defs>
    <g id="Page-1" stroke="none" stroke-width="1" fill="none" fill-rule="evenodd" sketch:type="MSPage">
        <g id="Artboard-1" sketch:type="MSArtboardGroup" fill="#CCCCCC">
            <path d="M70.888,52.695 C71.103,57.216 73.902,58.669 78.155,58.669 C81.168,58.669 84.29,57.596 84.29,54.742 C84.29,51.349 78.8,50.704 73.256,49.142 C67.766,47.582 62.007,45.107 62.007,38.056 C62.007,29.66 70.457,26.375 77.67,26.375 C85.313,26.375 93.009,30.088 93.063,38.754 L83.052,38.754 C83.214,35.255 79.93,34.126 76.863,34.126 C74.71,34.126 72.019,34.88 72.019,37.409 C72.019,40.37 77.562,40.907 83.16,42.469 C88.703,44.031 94.301,46.615 94.301,53.558 C94.301,63.299 86.012,66.419 77.562,66.419 C68.735,66.419 60.931,62.545 60.877,52.694 L70.888,52.694 L70.888,52.695 Z M96.456,37.68 L105.337,37.68 L105.337,41.501 L105.444,41.501 C107.112,38.702 110.073,36.872 113.464,36.872 C116.963,36.872 120.084,38.002 121.591,41.393 C123.798,38.434 126.543,36.872 130.31,36.872 C139.191,36.872 140.16,43.6 140.16,48.929 L140.16,65.614 L131.011,65.614 L131.011,49.197 C131.011,46.181 129.557,44.408 127.19,44.408 C123.26,44.408 122.884,47.421 122.884,51.941 L122.884,65.613 L113.734,65.613 L113.734,49.734 C113.734,46.452 112.765,44.408 110.29,44.408 C107.006,44.408 105.606,46.292 105.606,51.998 L105.606,65.613 L96.457,65.613 L96.456,37.68 L96.456,37.68 Z M143.77,46.292 C143.931,42.631 145.653,40.264 148.129,38.811 C150.606,37.412 153.834,36.873 157.01,36.873 C163.629,36.873 170.034,38.326 170.034,46.237 L170.034,58.456 C170.034,60.823 170.034,63.405 171.109,65.614 L161.904,65.614 C161.584,64.754 161.474,63.891 161.368,62.975 C159,65.452 155.502,66.419 152.165,66.419 C146.836,66.419 142.638,63.729 142.638,57.97 C142.638,48.873 152.542,49.574 158.892,48.282 C160.453,47.961 161.314,47.422 161.314,45.7 C161.314,43.6 158.785,42.794 156.9,42.794 C154.37,42.794 152.755,43.925 152.326,46.293 L143.77,46.293 L143.77,46.292 Z M155.609,60.77 C159.97,60.77 161.423,58.294 161.208,52.536 C159.917,53.344 157.549,53.505 155.557,54.044 C153.512,54.528 151.788,55.388 151.788,57.599 C151.788,59.854 153.564,60.77 155.609,60.77 L155.609,60.77 Z M173.158,37.68 L182.04,37.68 L182.04,42.577 L182.144,42.577 C183.491,39.025 186.613,37.14 190.541,37.14 C191.24,37.14 191.994,37.195 192.694,37.355 L192.694,45.699 C191.51,45.375 190.43,45.161 189.194,45.161 C184.673,45.161 182.305,48.281 182.305,51.779 L182.305,65.613 L173.156,65.613 L173.158,37.68 L173.158,37.68 Z M214.766,43.6 L209.114,43.6 L209.114,56.302 C209.114,58.51 210.407,58.994 212.397,58.994 C213.151,58.994 213.959,58.885 214.766,58.885 L214.766,65.614 C213.096,65.669 211.428,65.884 209.759,65.884 C201.954,65.884 199.964,63.623 199.964,56.035 L199.964,43.6 L195.335,43.6 L195.335,37.68 L199.964,37.68 L199.964,29.23 L209.113,29.23 L209.113,37.68 L214.763,37.68 L214.763,43.6 L214.766,43.6 L214.766,43.6 Z M235.648,26.377 C247.757,26.377 254.592,35.257 254.592,46.398 C254.592,57.541 247.757,66.419 235.648,66.419 C223.539,66.419 216.703,57.54 216.703,46.398 C216.703,35.256 223.539,26.377 235.648,26.377 L235.648,26.377 Z M235.648,57.811 C242.107,57.811 244.583,52.104 244.583,46.399 C244.583,40.694 242.107,34.989 235.648,34.989 C229.189,34.989 226.712,40.694 226.712,46.399 C226.714,52.104 229.189,57.811 235.648,57.811 L235.648,57.811 Z M265.686,52.695 C265.903,57.216 268.702,58.669 272.953,58.669 C275.967,58.669 279.09,57.596 279.09,54.742 C279.09,51.349 273.599,50.704 268.056,49.142 C262.568,47.582 256.808,45.107 256.808,38.056 C256.808,29.66 265.256,26.375 272.47,26.375 C280.113,26.375 287.808,30.088 287.863,38.754 L277.85,38.754 C278.012,35.255 274.727,34.126 271.661,34.126 C269.509,34.126 266.817,34.88 266.817,37.409 C266.817,40.37 272.36,40.907 277.958,42.469 C283.502,44.031 289.101,46.615 289.101,53.558 C289.101,63.299 280.812,66.419 272.361,66.419 C263.537,66.419 255.732,62.545 255.676,52.694 L265.686,52.694 L265.686,52.695 Z M15.765,25.507 C12.694,27.749 6.245,33.147 6.021,34.077 C5.729,35.661 8.473,46.83 14.643,54.693 C18.599,53 22.367,50.597 26.785,46.963 C19.647,39.439 15.944,32.226 15.765,25.507 L15.765,25.507 Z M18.276,24.706 C18.21,26.036 18.31,26.554 18.591,27.861 C19.282,27.368 20.922,26.278 21.578,25.842 C19.818,24.887 18.706,24.729 18.276,24.706 L18.276,24.706 Z M19.618,30.64 C21.314,34.591 23.715,38.363 27.353,42.779 C34.874,35.643 42.089,31.939 48.807,31.759 C46.562,28.688 41.165,22.238 40.236,22.017 C40.177,22.004 40.096,22 39.999,22 C37.788,22.001 27.193,24.696 19.618,30.64 L19.618,30.64 Z M46.449,34.585 C46.947,35.279 48.034,36.918 48.47,37.572 C49.424,35.814 49.582,34.681 49.604,34.27 C48.281,34.204 47.739,34.309 46.449,34.585 L46.449,34.585 Z M31.417,43.293 C38.556,50.816 42.257,58.029 42.436,64.747 C45.507,62.507 51.958,57.111 52.181,56.176 C52.473,54.594 49.729,43.426 43.559,35.56 C39.604,37.254 35.834,39.656 31.417,43.293 L31.417,43.293 Z M36.625,64.413 C38.384,65.366 39.495,65.525 39.926,65.549 C39.995,64.219 39.893,63.699 39.614,62.393 C38.918,62.886 37.282,63.977 36.625,64.413 L36.625,64.413 Z M9.396,58.49 C11.639,61.564 17.037,68.013 17.966,68.236 C18.026,68.248 18.107,68.252 18.204,68.252 C20.414,68.252 31.008,65.559 38.583,59.616 C36.888,55.666 34.486,51.892 30.848,47.472 C23.328,54.611 16.114,58.314 9.396,58.49 L9.396,58.49 Z M8.597,55.98 C9.922,56.045 10.465,55.945 11.752,55.668 C11.256,54.977 10.17,53.338 9.732,52.682 C8.777,54.441 8.62,55.572 8.597,55.98 L8.597,55.98 Z" id="Shape" sketch:type="MSShapeGroup"></path>
        </g>
    </g>
</svg>