<?xml version="1.0" encoding="UTF-8" standalone="no"?>
<svg width="604px" height="275px" viewBox="0 0 604 275" version="1.1" xmlns="http://www.w3.org/2000/svg" xmlns:xlink="http://www.w3.org/1999/xlink" xmlns:sketch="http://www.bohemiancoding.com/sketch/ns">
    <!-- Generator: Sketch 3.3.1 (12002) - http://www.bohemiancoding.com/sketch -->
    <title>Artboard 1</title>
    <desc>Created with Sketch.</desc>
    <defs></defs>
    <g id="Page-1" stroke="none" stroke-width="1" fill="none" fill-rule="evenodd" sketch:type="MSPage">
        <g id="Artboard-1" sketch:type="MSArtboardGroup">
            <g id="ubuntu" sketch:type="MSLayerGroup" transform="translate(13.000000, 66.000000)">
                <path d="M438.2642,42.6439 L438.2642,95.83032 C438.26416,109.37246 444.82415,116.92989 457.94406,116.92989 C461.45642,116.92989 464.91721,116.77483 468.32636,116.4647 C471.73539,116.15457 474.62798,115.68943 477.0041,115.06913 L477.0041,42.6439 L492.50005,42.6439 L492.50005,124.68301 C487.85119,126.33702 482.47928,127.52585 476.38425,128.24944 C470.28912,129.07648 464.14241,129.48994 457.94406,129.48994 C446.3737,129.48994 437.59269,125.80909 431.60094,120.02007 C425.60915,114.23108 422.61328,105.44423 422.61328,93.65945 L422.61328,42.6439 L438.2642,42.6439 L438.2642,42.6439 Z M198.1998,42.6439 L198.1998,95.83032 C198.19976,109.37246 204.75975,116.92989 217.87967,116.92989 C221.39202,116.92989 224.85281,116.77483 228.26196,116.4647 C231.671,116.15457 234.56359,115.68943 236.9397,115.06913 L236.9397,42.6439 L252.43566,42.6439 L252.43566,124.68301 C247.78679,126.33702 242.41488,127.52585 236.31986,128.24944 C230.22472,129.07648 224.07801,129.48994 217.87967,129.48994 C206.30931,129.48994 197.52829,125.80909 191.53654,120.02007 C185.54476,114.23108 182.54888,105.44423 182.54888,93.65945 L182.54888,42.6439 L198.1998,42.6439 L198.1998,42.6439 Z M374.71826,15.2012 L360.74576,17.73481 L360.71456,102.3136 C360.71464,118.54335 369.49774,129.18234 388.81585,129.18238 C393.56798,129.18234 402.78341,127.89189 408.25857,126.96157 L406.41432,116.01386 C406.30662,116.44447 394.08603,117.68416 387.56552,117.32759 C381.04501,116.97096 375.16172,111.65353 374.59329,106.19221 L374.62449,55.05082 L406.82062,55.05082 L406.82062,42.633 L374.62449,42.633 L374.71819,15.2012 L374.71826,15.2012 Z M106.52132,0.5 L90.86087,3.03361 L90.86087,124.68301 C100.05512,127.88765 109.81932,129.5 120.14997,129.5 C121.91841,129.5 123.63046,129.4388 125.27635,129.31233 L125.27635,129.28113 C155.82223,129.4283 171.6309,105.2087 167.5422,77.1027 C164.32876,57.27866 147.87544,40.53739 128.62105,40.53739 C120.97647,40.53739 114.88041,42.60561 110.33489,44.25961 C108.94924,44.78342 107.69537,45.32314 106.52137,45.88613 L106.52137,0.50009 L106.52137,0.50004 L106.52132,0.50004 L106.52132,0.5 Z M128.46471,53.11151 C145.65029,53.95863 152.53557,69.08294 153.06952,83.95275 C153.79947,104.28155 139.61039,118.61983 120.46256,116.92579 C116.04156,116.53465 111.3767,116.37386 106.52132,115.23672 L106.52132,59.2735 C108.56648,57.52866 110.87301,56.13663 113.42942,55.11338 C117.04519,53.7695 122.07044,52.79633 128.46471,53.11151 L128.46471,53.11151 Z M289.16123,127.308 L273.51031,127.308 L273.51031,46.05527 C278.26239,44.40137 283.53101,43.21254 289.31619,42.48883 C295.20462,41.66191 301.24804,41.24841 307.44647,41.24833 C330.587,41.24841 342.15729,52.7747 342.15741,75.82725 L342.15741,127.308 L326.66145,127.308 L326.66145,73.65638 C326.66137,60.42447 320.25639,53.80846 307.44647,53.80839 C304.03727,53.80846 300.73148,53.96346 297.52905,54.27357 C294.3265,54.58371 291.53723,54.99729 289.16123,55.51409 L289.16123,127.308 L289.16123,127.308 Z M16.150966,42.6439 L16.150966,95.83032 C16.150926,109.37246 22.710916,116.92989 35.830836,116.92989 C39.343186,116.92989 42.803976,116.77483 46.213126,116.4647 C49.622166,116.15457 52.514746,115.68943 54.890866,115.06913 L54.890866,42.6439 L70.386826,42.6439 L70.386826,124.68301 C65.737956,126.33702 60.366046,127.52585 54.271016,128.24944 C48.175886,129.07648 42.029176,129.48994 35.830836,129.48994 C24.260466,129.48994 15.479456,125.80909 9.487706,120.02007 C3.495923,114.23108 0.50005,105.44423 0.50005,93.65945 L0.50005,42.6439 L16.150966,42.6439 L16.150966,42.6439 Z" id="text" fill="#454545" sketch:type="MSShapeGroup"></path>
                <g id="logo" transform="translate(508.766573, 7.767054)" sketch:type="MSShapeGroup">
                    <path d="M66.733443,33.73365 C66.733443,51.9583641 51.9584726,66.733333 33.732701,66.733333 C15.5073511,66.733333 0.733232497,51.9583641 0.733232497,33.73365 C0.733232497,15.5076679 15.5073511,0.733333183 33.732701,0.733333183 C51.9584726,0.733333183 66.733443,15.5076679 66.733443,33.73365" id="roundel" fill="#444444"></path>
                    <path d="M42.7503353,18.1141304 C44.8574777,19.3310032 47.5511481,18.6092198 48.7671798,16.5027125 C49.9838348,14.3953589 49.2626843,11.7019004 47.1553315,10.4852403 C45.048401,9.26900402 42.354941,9.99057542 41.138286,12.097929 C39.9220527,14.2044356 40.643616,16.8978949 42.750336,18.1141304 L42.7503353,18.1141304 Z M33.7333332,46.603196 C31.7959487,46.603196 29.9599577,46.1724551 28.3119194,45.4057976 L25.250582,50.8917755 C27.8077249,52.1579657 30.6866082,52.8733991 33.7333332,52.8733991 C35.5051948,52.8733991 37.2184265,52.6278652 38.8465732,52.1770155 C39.1346448,50.4074822 40.1853648,48.7765899 41.860491,47.8092726 C43.5326553,46.8438621 45.4679227,46.7481885 47.1430569,47.3812832 C50.4008169,44.1779204 52.5206643,39.8197028 52.8292686,34.9661853 L46.5501753,34.8747482 C45.9723269,41.4491123 40.4569277,46.603196 33.7333332,46.603196 L33.7333332,46.603196 Z M33.7333332,20.8632577 C40.4569277,20.8632577 45.9723269,26.0183996 46.5501753,32.5919204 L52.8292686,32.5002721 C52.5202331,27.6471791 50.4003952,23.2889616 47.1422136,20.08581 C45.4672898,20.7184816 43.5322336,20.622596 41.8598581,19.6569728 C40.1849336,18.6900794 39.1344336,17.0593991 38.846362,15.2896538 C37.2184265,14.839228 35.5051948,14.5934829 33.7333332,14.5934829 C30.6866082,14.5934829 27.8079449,15.3087043 25.2510037,16.5753177 L28.3121299,22.0606598 C29.959957,21.294003 31.7959487,20.8632614 33.7333332,20.8632614 L33.7333332,20.8632577 Z M20.8635811,33.7332276 C20.8635811,29.3790316 23.0274461,25.53326 26.3360077,23.2045036 L23.1150794,17.8086963 C19.2595699,20.3848912 16.3912745,24.3227379 15.2000111,28.9353789 C16.5917216,30.0697003 17.4809345,31.7971117 17.4809345,33.73365 C17.4809345,35.6699778 16.5915111,37.3973892 15.1997999,38.5314994 C16.3908528,43.1443509 19.2591482,47.0821991 23.1148682,49.6583932 L26.3360077,44.2623747 C23.0274461,41.9338295 20.8635811,38.0880579 20.8635811,33.7332276 L20.8635811,33.7332276 Z M42.7509777,49.3521121 C40.643616,50.5687715 39.9220527,53.2620188 41.1384965,55.3685254 C42.355161,57.4758783 45.048401,58.1978735 47.1557531,56.9812141 C49.2624731,55.7647652 49.9842564,53.0713074 48.7676014,50.9641658 C47.5513593,48.8578704 44.8576881,48.1358751 42.7509777,49.3521121 L42.7509777,49.3521121 Z M11.2937095,29.3280202 C8.85995949,29.3280202 6.88786117,31.2999066 6.88786117,33.73365 C6.88786117,36.166759 8.85995949,38.1388581 11.2937095,38.1388581 C13.7266066,38.1388581 15.6989161,36.166759 15.6989161,33.73365 C15.6989161,31.2999066 13.7266066,29.3280202 11.2937095,29.3280202 L11.2937095,29.3280202 Z" id="circle-of-friends" fill="#FFFFFF"></path>
                </g>
            </g>
        </g>
    </g>
</svg>