<?xml version="1.0" encoding="UTF-8" standalone="no"?>
<svg width="566px" height="167px" viewBox="0 0 566 167" version="1.1" xmlns="http://www.w3.org/2000/svg" xmlns:xlink="http://www.w3.org/1999/xlink" xmlns:sketch="http://www.bohemiancoding.com/sketch/ns">
    <!-- Generator: Sketch 3.3.2 (12043) - http://www.bohemiancoding.com/sketch -->
    <title>archlinux</title>
    <desc>Created with Sketch.</desc>
    <defs></defs>
    <g id="Page-1" stroke="none" stroke-width="1" fill="none" fill-rule="evenodd" sketch:type="MSPage">
        <g id="archlinux" sketch:type="MSLayerGroup" fill="#CCCCCC">
            <g id="g2809" transform="translate(152.212693, 34.600206)" sketch:type="MSShapeGroup">
                <path d="M27.3193639,17.3470116 C19.2458535,17.3336779 12.5456656,18.9892669 9.9549182,19.8924022 L7.28748828,34.2930369 C7.28101671,34.3460926 20.5628121,30.75122 26.4127865,30.9631081 C36.098705,31.3111278 36.9901635,34.6649624 36.8209934,39.1920422 C36.9861021,39.4568298 34.3220028,35.1016092 25.9420635,34.9555359 C15.3701929,34.7731771 0.450309591,38.6987078 0.470722927,54.6561621 C0.18571728,72.6059054 13.8789259,77.8862032 23.2048969,77.9830982 C31.5890427,77.8304362 35.5219097,74.8079235 37.6752683,73.188698 C40.5044819,70.2305441 43.7412927,67.2557927 46.8282141,63.6870686 C43.9072661,68.99419 41.3749581,72.6634689 38.7387535,75.472576 L38.7387535,77.8436248 L51.4831409,75.6992203 L51.5703118,41.0574997 C51.4412096,36.1545111 54.3827829,17.3926082 27.3193639,17.3470116 L27.3193639,17.3470116 Z M25.4887748,47.5081473 C30.7714102,47.5806456 36.8295738,50.1844086 36.8384276,56.4518829 C36.8657644,62.1525593 29.6973585,65.217416 25.035486,65.1689741 C20.3716274,65.1205489 14.183932,61.503712 14.1565562,55.9462916 C14.2459085,50.9785594 19.9918635,47.3802891 25.4887748,47.5081473 L25.4887748,47.5081473 Z" id="path2284"></path>
                <path d="M59.9741791,20.548039 L59.8876777,77.9145498 L74.734421,75.0540942 L74.7594705,42.5280075 C74.7628178,37.6849924 81.6804448,32.0259293 90.3596885,32.1161073 C92.2018651,28.7832049 95.6645337,20.2652203 96.5081696,18.3276829 C77.1177379,18.2812104 76.8708811,23.9010033 73.4984072,26.6655012 C73.4632041,21.3918144 73.4865241,18.2260124 73.4865241,18.2260124 L59.9742237,20.548039 L59.9741791,20.548039 Z" id="path2286"></path>
                <path d="M143.528679,28.0791205 C143.385322,28.0117939 135.785458,19.1895341 120.506419,19.1199591 C106.195053,18.8820844 90.142612,24.4305227 89.8856852,48.4276846 C90.0109714,69.5264039 105.305982,77.771835 120.587364,77.9326088 C136.940862,78.1024931 143.447923,67.7067104 143.838232,67.4490918 C141.886931,65.7575019 134.578354,58.515482 134.578354,58.515482 C134.578354,58.515482 130.013466,65.0155142 121.156533,65.0981439 C112.297502,65.1824975 104.596877,58.2509733 104.487753,48.5794373 C104.374227,38.9078176 111.566762,33.6679336 121.223034,33.2446819 C129.582884,33.2430082 134.405898,38.6413787 134.405898,38.6413787 L143.528679,28.0791205 L143.528679,28.0791205 Z" id="path2288"></path>
                <path d="M162.242502,0.470722927 L148.225419,3.76578342 L148.330025,78.4886895 L162.137897,75.9956014 L162.294805,40.8308554 C162.324317,37.1435844 167.628978,31.4810232 176.486229,31.6604754 C184.954907,31.7484831 186.847634,37.3050611 186.824699,38.0065178 L187.068778,78.7153339 L200.684875,76.3094167 L200.737149,33.1423809 C200.826803,28.9886437 191.638832,20.2162373 176.869753,20.1539149 C169.850963,20.1651844 165.963961,21.754094 163.985893,22.92595 C160.601396,25.5400452 156.733384,28.0448658 152.932621,31.242055 C156.446286,26.7281415 159.396105,23.6071885 162.277343,21.2871368 L162.242474,0.470722927 L162.242502,0.470722927 Z" id="path2290"></path>
            </g>
            <g id="g5326" transform="translate(363.360033, 34.700454)" sketch:type="MSShapeGroup">
                <path d="M1.3926189,2.30943339 L7.77618198,0.727117722 L7.00457865,76.0603924 L0.526221986,77.1541663 L1.3926189,2.30943339 L1.3926189,2.30943339 Z" id="path2292"></path>
                <path d="M18.3675847,24.7930426 L23.9774503,22.3261747 L23.256065,76.3428015 L17.8563209,77.4488739 L18.3675847,24.7930426 L18.3675847,24.7930426 Z M17.3200188,5.31450751 L21.8670444,1.66766119 L25.5422882,5.79701984 L20.9920133,9.54040331 L17.3200188,5.31450751 L17.3200188,5.31450751 Z" id="path2294"></path>
                <path d="M34.4394228,23.8089798 L40.8195621,22.518836 L40.6888439,33.8114036 C40.6830268,34.2963772 44.3614201,21.196125 61.2024017,21.4874379 C77.5566096,21.5778961 80.0530955,34.1627631 79.9243634,36.9842366 L79.5607206,76.6945576 L73.9676415,77.8973983 L74.4938053,38.6738103 C74.5747459,37.5283483 72.0992929,27.8419499 60.5418882,27.8063267 C48.9865858,27.7729582 40.8604895,36.1488284 40.7985209,41.5000742 L40.3985795,76.0535452 L33.9134584,77.7312995 L34.4394228,23.8089798 L34.4394228,23.8089798 Z" id="path2296"></path>
                <path d="M135.066948,76.9803118 L128.686767,78.2703317 L128.817543,66.9779459 C128.823361,66.4927657 125.142798,79.5931996 108.303969,79.3018454 C91.949786,79.2114533 89.4532918,66.6265863 89.5820239,63.8051128 L89.94565,24.0945358 L96.7240022,22.7381095 L96.2699037,61.9624244 C96.2575217,63.0335342 97.4071027,72.9473995 108.964483,72.9827585 C120.519801,73.0162095 128.714506,66.0665832 128.920855,55.601313 L129.279063,24.6537377 L135.592929,23.0580416 L135.066948,76.9803118 L135.066948,76.9803118 Z" id="path2298"></path>
                <path d="M148.297995,23.3634948 L143.787966,26.8326295 L160.573536,49.0781996 L141.966403,74.7786733 L146.64915,78.2691423 L164.136684,54.4018835 L181.486478,78.8348279 L185.913506,75.3649829 L167.318955,49.2412589 L182.750548,28.1154966 L178.153445,24.205205 L164.09181,43.753632 L148.297995,23.3634948 L148.297995,23.3634948 Z" id="path2300"></path>
            </g>
            <path d="M83.8125006,0.624999839 C76.4156306,18.760158 71.9541965,30.622682 63.7187505,48.2187502 C68.7681105,53.5710702 74.9659616,59.8041142 85.0312506,66.8437503 C74.2100775,62.3909043 66.8287135,57.9203522 61.3125005,53.2812502 C50.7727004,75.2741634 34.2598643,106.602091 0.750000047,166.812501 C27.0876282,151.607331 47.5040894,142.233181 66.5312505,138.656251 C65.7142165,135.142201 65.2497005,131.341071 65.2812505,127.375001 L65.3125005,126.531251 C65.7304175,109.657431 74.5081656,96.6814605 84.9062506,97.5625005 C95.3043407,98.4435405 103.386661,112.844921 102.968751,129.718751 C102.890151,132.893871 102.532011,135.948301 101.906251,138.781251 C120.726831,142.462891 140.924981,151.813041 166.906251,166.812501 C161.783251,157.380701 157.210531,148.878621 152.843751,140.781251 C145.965361,135.450041 138.790861,128.511451 124.156251,121.000001 C134.215241,123.613751 141.417351,126.629321 147.031251,130.000001 C102.632971,47.3381612 99.0376607,36.3541091 83.8125006,0.624999839 L83.8125006,0.624999839 Z" id="path2518" sketch:type="MSShapeGroup"></path>
            <g id="text2634" transform="translate(555.329320, 102.387893)" sketch:type="MSShapeGroup">
                <path d="M2.15765605,5.97921887 L2.15765605,1.31790092 L0.416414009,1.31790092 L0.416414009,0.694224515 L4.60548122,0.694224515 L4.60548122,1.31790092 L2.85703217,1.31790092 L2.85703217,5.97921887 L2.15765605,5.97921887" id="path4714"></path>
                <path d="M5.33370282,5.97921887 L5.33370282,0.694224515 L6.38637049,0.694224515 L7.63732681,4.43626547 C7.75268249,4.78474653 7.8367962,5.04551913 7.88967667,5.21855704 C7.94976413,5.0262859 8.04349009,4.7438923 8.17087201,4.3713675 L9.43624232,0.694224515 L10.3771578,0.694224515 L10.3771578,5.97921887 L9.70301493,5.97921887 L9.70301493,1.55582804 L8.16726852,5.97921887 L7.53638511,5.97921887 L6.0078457,1.48012833 L6.0078457,5.97921887 L5.33370282,5.97921887" id="path4716"></path>
            </g>
            <path d="M167.726271,151.979426 L167.726271,147.423055 L166.024247,147.423055 L166.024247,146.813434 L170.118976,146.813434 L170.118976,147.423055 L168.409904,147.423055 L168.409904,151.979426 L167.726271,151.979426" id="path4719" sketch:type="MSShapeGroup"></path>
            <path d="M170.830799,151.979426 L170.830799,146.813434 L171.859772,146.813434 L173.082557,150.471204 C173.195315,150.811848 173.277539,151.066743 173.329221,151.235889 C173.38791,151.047947 173.479571,150.771912 173.604084,150.407775 L174.840968,146.813434 L175.760691,146.813434 L175.760691,151.979426 L175.101732,151.979426 L175.101732,147.655638 L173.60056,151.979426 L172.983889,151.979426 L171.489767,147.581635 L171.489767,151.979426 L170.830799,151.979426" id="path4721" sketch:type="MSShapeGroup"></path>
        </g>
    </g>
</svg>