<?xml version="1.0" encoding="UTF-8" standalone="no"?>
<svg width="643px" height="256px" viewBox="0 0 643 256" version="1.1" xmlns="http://www.w3.org/2000/svg" xmlns:xlink="http://www.w3.org/1999/xlink" xmlns:sketch="http://www.bohemiancoding.com/sketch/ns">
    <!-- Generator: Sketch 3.3.2 (12043) - http://www.bohemiancoding.com/sketch -->
    <title>freebsd</title>
    <desc>Created with Sketch.</desc>
    <defs></defs>
    <g id="Page-1" stroke="none" stroke-width="1" fill="none" fill-rule="evenodd" sketch:type="MSPage">
        <g id="freebsd" sketch:type="MSArtboardGroup">
            <g id="text" sketch:type="MSLayerGroup" transform="translate(210.000000, 88.237157)" fill="#555555">
                <g id="g4013" transform="translate(82.888368, 24.422732)" sketch:type="MSShapeGroup">
                    <path d="M57.229932,28.776932 C57.229932,30.7040865 55.6723214,32.2582434 53.7451668,32.2582434 L6.7612771,32.2582434 C4.83412255,32.2582434 3.27305829,30.7040865 3.27305829,28.776932 L3.27305829,28.776932 C3.27305829,26.8497774 4.83412255,25.2887132 6.7612771,25.2887132 L53.7451668,25.2887132 C55.6723214,25.2887132 57.229932,26.8497774 57.229932,28.776932 L57.229932,28.776932 L57.229932,28.776932 Z" id="path4015"></path>
                    <ellipse id="circle4017" cx="44.4996256" cy="48.2074159" rx="3.45368199" ry="3.45368199"></ellipse>
                    <path d="M12.2733535,25.2818058 C10.3634674,25.2818058 8.81967156,23.7311026 8.81967156,21.8246701 C8.81967156,21.6450787 8.83348629,21.4654872 8.86456943,21.2962568 L3.68404645,21.2962568 L3.68404645,27.8409842 L12.3147977,27.8409842 L12.3147977,25.2818058 C12.300983,25.2748985 12.2871683,25.2818058 12.2733535,25.2818058 L12.2733535,25.2818058 Z" id="path4019"></path>
                    <path d="M8.81967156,35.5081582 C8.81967156,33.598272 10.3634674,32.0510225 12.2733535,32.0510225 C12.2871683,32.0510225 12.300983,32.0544762 12.3147977,32.0544762 L12.3147977,29.6230841 L3.68404645,29.6230841 L3.68404645,36.1712651 L8.88183784,36.1712651 C8.84039365,35.9571368 8.81967156,35.7361012 8.81967156,35.5081582 L8.81967156,35.5081582 Z" id="path4021"></path>
                    <path d="M48.7407816,20.3982995 C48.9410952,20.8334634 49.0481593,21.3135252 49.0481593,21.8212165 C49.0481593,23.7276489 47.5043635,25.2783521 45.5944774,25.2783521 C45.511589,25.2783521 45.4252469,25.2679911 45.3389049,25.2610837 L45.3389049,28.7285804 L53.0751525,28.7285804 L53.0751525,20.3982995 L48.7407816,20.3982995 L48.7407816,20.3982995 Z" id="path4023"></path>
                    <path d="M28.8130366,0.470554426 C13.1436814,0.470554426 0.444492746,13.1731968 0.444492746,28.8425519 C0.444492746,44.5119071 13.1436814,57.2145495 28.8130366,57.2145495 C35.7583911,57.2145495 42.1166196,54.7175374 47.0450238,50.5800264 L42.068268,45.6792516 C38.4211799,48.5561687 33.8174218,50.2726487 28.8130366,50.2726487 C16.9807221,50.2726487 7.38639354,40.6783201 7.38639354,28.8425519 C7.38639354,17.0067838 16.9807221,7.4159089 28.8130366,7.4159089 C40.6522584,7.4159089 50.2431333,17.0067838 50.2431333,28.8425519 L50.2431333,29.0290508 L57.1850341,29.0290508 C57.1850341,28.9668845 57.1919415,28.9081719 57.1919415,28.8425519 C57.1919415,13.1731968 44.4858454,0.470554426 28.8130366,0.470554426 L28.8130366,0.470554426 Z" id="path4025"></path>
                </g>
                <g id="g4027" transform="translate(147.508325, 24.422732)" sketch:type="MSShapeGroup">
                    <path d="M57.6842502,28.776932 C57.6842502,30.7040865 56.1266396,32.2582434 54.1994851,32.2582434 L7.21559534,32.2582434 C5.2884408,32.2582434 3.73083022,30.7040865 3.73083022,28.776932 L3.73083022,28.776932 C3.73083022,26.8497774 5.2884408,25.2887132 7.21559534,25.2887132 L54.1994851,25.2887132 C56.1266396,25.2887132 57.6842502,26.8497774 57.6842502,28.776932 L57.6842502,28.776932 L57.6842502,28.776932 Z" id="path4029"></path>
                    <ellipse id="circle4031" cx="44.9539784" cy="48.2074159" rx="3.45368199" ry="3.45368199"></ellipse>
                    <path d="M12.7276718,25.2818058 C10.8177857,25.2818058 9.27398981,23.7311026 9.27398981,21.8246701 C9.27398981,21.6450787 9.2947119,21.4654872 9.31888767,21.2962568 L4.13836469,21.2962568 L4.13836469,27.8409842 L12.769116,27.8409842 L12.769116,25.2818058 C12.7483939,25.2748985 12.7414865,25.2818058 12.7276718,25.2818058 L12.7276718,25.2818058 Z" id="path4033"></path>
                    <path d="M9.27398981,35.5081582 C9.27398981,33.598272 10.8177857,32.0510225 12.7276718,32.0510225 C12.7414865,32.0510225 12.7518476,32.0544762 12.769116,32.0544762 L12.769116,29.6230841 L4.13836469,29.6230841 L4.13836469,36.1712651 L9.33615608,36.1712651 C9.2947119,35.9571368 9.27398981,35.7361012 9.27398981,35.5081582 L9.27398981,35.5081582 Z" id="path4035"></path>
                    <path d="M49.1950999,20.3982995 C49.3919598,20.8334634 49.5059313,21.3135252 49.5059313,21.8212165 C49.5059313,23.7276489 47.9586817,25.2783521 46.0487956,25.2783521 C45.9624535,25.2783521 45.8795652,25.2679911 45.7932231,25.2610837 L45.7932231,28.7285804 L53.5294708,28.7285804 L53.5294708,20.3982995 L49.1950999,20.3982995 L49.1950999,20.3982995 Z" id="path4037"></path>
                    <path d="M29.2673548,0.470554426 C13.6014533,0.470554426 0.89535731,13.1731968 0.89535731,28.8425519 C0.89535731,44.5119071 13.6014533,57.2145495 29.2673548,57.2145495 C36.216163,57.2145495 42.5743915,54.7175374 47.499342,50.5800264 L42.5225863,45.6792516 C38.8754981,48.5561687 34.27174,50.2726487 29.2673548,50.2726487 C17.4350403,50.2726487 7.84416547,40.6783201 7.84416547,28.8425519 C7.84416547,17.0067838 17.4350403,7.4159089 29.2673548,7.4159089 C41.1065767,7.4159089 50.7009052,17.0067838 50.7009052,28.8425519 C50.7009052,28.9081719 50.6974516,28.9668845 50.6974516,29.0290508 L57.6393523,29.0290508 C57.6393523,28.9668845 57.642806,28.9081719 57.642806,28.8425519 C57.642806,13.1731968 44.9401637,0.470554426 29.2673548,0.470554426 L29.2673548,0.470554426 Z" id="path4039"></path>
                </g>
                <g id="g4041" transform="translate(40.444184, 24.422732)" sketch:type="MSShapeGroup">
                    <path d="M19.0928077,7.01182811 C19.0997151,7.03945756 19.1135298,7.07399438 19.1273445,7.10162384 C12.4099331,8.34149567 7.31575212,14.2300235 7.31575212,21.3066178 C7.31575212,21.5690977 7.32265949,21.8246701 7.33647421,22.0906037 L7.33647421,53.6434423 C7.33647421,55.612041 5.73741945,57.2110958 3.76882072,57.2110958 C1.79676831,57.2110958 0.197713549,55.612041 0.197713549,53.6434423 L0.197713549,20.1876249 C0.919533084,9.85766206 8.96661211,1.54464952 19.1756961,0.40838815 C20.6262425,0.802107896 21.6899765,2.1248681 21.6899765,3.6962934 C21.6865229,5.30225552 20.5813446,6.64228413 19.0928077,7.01182811 L19.0928077,7.01182811 Z" id="path4043"></path>
                    <ellipse id="circle4045" cx="35.7775108" cy="10.8316004" rx="3.45368199" ry="3.45368199"></ellipse>
                    <path d="M33.6293552,13.7361469 C34.9175786,11.6950209 36.454467,9.82657893 38.2089375,8.17917262 C34.2786474,3.29566629 28.255426,0.170084093 21.5034777,0.170084093 C10.1063272,0.170084093 0.788293168,9.06676889 0.114825181,20.2912353 L7.1085312,20.2912353 C7.77163814,12.921078 13.9571826,7.14306802 21.5034777,7.14306802 C26.5872976,7.14306802 31.0529084,9.76786633 33.6293552,13.7361469 L33.6293552,13.7361469 Z" id="path4047"></path>
                </g>
                <path d="M303.553439,81.3575329 C313.924846,80.1660126 323.574433,70.1537885 321.89249,59.4750038 C321.184485,54.9575878 318.22468,50.3020245 313.327359,47.0590171 C309.497225,44.5274682 290.792084,35.6825886 287.507632,33.4100659 C285.494135,31.8697237 281.546577,27.6458706 281.256468,24.9243692 C280.469028,17.5887487 284.471846,14.4528054 288.526468,12.5740024 C290.19805,11.7865629 292.356602,11.4964537 293.247652,11.3962969 C300.814669,10.5087006 303.27369,11.8867197 310.198323,15.1711713 C310.913235,15.5096321 311.62124,15.5269005 312.387957,15.402568 C314.719192,15.0399314 316.325155,14.0176415 315.959064,11.6898598 C315.68277,9.96301885 314.7261,9.17212568 312.919824,8.27762205 C308.09503,5.89112779 299.039476,3.02802543 291.410293,4.22645308 C291.282506,4.24717517 291.161628,4.27480462 291.033841,4.29552672 L291.016573,4.18846257 C280.434491,5.94984039 272.052405,15.5165395 273.720534,26.1331579 C274.621945,31.8386406 279.008121,36.6185364 283.497907,39.5403514 C286.502611,42.0580856 297.367894,46.4235396 308.112299,52.3845947 C311.928617,54.4982481 313.462052,56.5877257 314.021549,61.3158163 C314.601767,66.2234984 308.917007,71.7942875 304.475572,73.4831379 C297.568208,75.5104493 289.448601,72.6369859 284.043589,69.7773372 C282.423812,68.7239642 281.684724,68.1679214 280.199641,68.4062254 C277.871859,68.768862 276.283166,70.9550427 276.649256,73.2828244 C276.894467,74.8300739 277.785517,75.9179837 279.305137,76.5845444 C288.920188,80.8118511 295.406203,82.2865733 303.553439,81.3575329 L303.553439,81.3575329 Z" id="path4049" sketch:type="MSShapeGroup"></path>
                <g id="g4051" transform="translate(0.000000, 1.850320)" sketch:type="MSShapeGroup">
                    <path d="M7.03411798,20.6599256 C7.06520111,20.6737404 7.09973793,20.6875551 7.13082107,20.6979161 C8.42595182,13.6869417 14.5700521,8.37172513 21.9574778,8.37172513 C22.2337724,8.37172513 22.5031596,8.38208618 22.7725468,8.39590091 L37.8962202,8.39590091 C39.9546147,8.39590091 41.6227431,6.72777251 41.6227431,4.66937805 C41.6227431,2.61098358 39.9546147,0.942855182 37.8962202,0.942855182 L20.7901333,0.942855182 C10.0042845,1.69921154 1.32863533,10.0951124 0.144022413,20.7566287 C0.558464251,22.2658878 1.93302968,23.371066 3.57352863,23.371066 C5.25547175,23.371066 6.65421296,22.2175362 7.03411798,20.6599256 L7.03411798,20.6599256 Z" id="path4053"></path>
                    <path d="M2.54433139,41.3163976 C2.54433139,43.3402552 4.18483034,44.9773005 6.2052343,44.9773005 L29.4899582,44.9773005 C31.5138159,44.9773005 33.1543148,43.3368016 33.1543148,41.3163976 L33.1543148,41.3163976 C33.1543148,39.2959936 31.5138159,37.6554947 29.4899582,37.6554947 L6.2052343,37.6554947 C4.18483034,37.6554947 2.54433139,39.2959936 2.54433139,41.3163976 L2.54433139,41.3163976 L2.54433139,41.3163976 Z" id="path4055"></path>
                    <path d="M16.732057,4.6210265 C16.732057,6.61034732 18.5521474,8.22667049 20.8004944,8.22667049 L24.0124186,8.22667049 C26.2573119,8.22667049 28.0843097,6.61034732 28.0843097,4.6210265 L28.0843097,4.6210265 C28.0843097,2.62479831 26.2607656,1.00847514 24.0124186,1.00847514 L20.8004944,1.00847514 C18.5521474,1.00847514 16.732057,2.62479831 16.732057,4.6210265 L16.732057,4.6210265 L16.732057,4.6210265 Z" id="path4057"></path>
                    <g id="g4059" transform="translate(0.000000, 13.814728)">
                        <path d="M3.87399896,0.124332552 C5.93239342,0.124332552 7.60052182,1.33657493 7.60052182,2.82511186 L7.60052182,62.8121143 C7.60052182,64.3041049 5.93239342,65.5094399 3.87399896,65.5094399 L3.87399896,65.5094399 C1.81560449,65.5094399 0.147476095,64.3006512 0.147476095,62.8121143 L0.147476095,6.33405276 C0.147476095,4.84551583 1.81905818,0.124332552 3.87399896,0.124332552 L3.87399896,0.124332552 L3.87399896,0.124332552 Z" id="path4061"></path>
                    </g>
                    <path d="M8.03223207,50.3063318 C8.03223207,49.3841987 8.26362876,48.5207782 8.67461692,47.7713292 C9.5794816,46.1135619 11.333952,44.9807542 13.354356,44.9807542 L15.1088265,44.9807542 L15.1088265,39.6206397 L2.16442637,39.6206397 L2.16442637,51.3631585 L8.02877839,51.3631585 L8.02877839,50.3063318 L8.03223207,50.3063318 Z" id="path4063"></path>
                    <path d="M8.03223207,32.2988339 C8.03223207,33.2175133 8.26362876,34.0809338 8.67461692,34.8338365 C9.5794816,36.4985112 11.333952,37.6244116 13.354356,37.6244116 L15.1088265,37.6244116 L15.1088265,42.984526 L2.16442637,42.984526 L2.16442637,31.2420072 L8.02877839,31.2420072 L8.02877839,32.2988339 L8.03223207,32.2988339 Z" id="path4065"></path>
                    <path d="M7.40020827,22.3729519 C7.72485437,15.040785 13.3785318,9.09354467 20.5829124,8.3199199 L20.5829124,1.04646564 C9.37226068,1.85117354 0.482483248,11.0414213 0.147476095,22.3764056 L7.40020827,22.3764056 L7.40020827,22.3729519 Z" id="path4067"></path>
                </g>
                <g id="g4069" transform="translate(216.581965, 1.000000)" sketch:type="MSShapeGroup">
                    <path d="M1.14056873,77.1041644 C1.14056873,75.1631952 2.91921495,73.5814088 5.10884933,73.5814088 L37.3075265,73.5814088 C39.5006146,73.5814088 41.2758071,75.1597415 41.2758071,77.1041644 L41.2758071,77.1041644 C41.2758071,79.0451337 39.4971609,80.6234664 37.3075265,80.6234664 L5.10884933,80.6234664 C2.91921495,80.6234664 1.14056873,79.0485874 1.14056873,77.1041644 L1.14056873,77.1041644 L1.14056873,77.1041644 Z" id="path4071"></path>
                    <path d="M4.1176426,80.4162455 C2.17321964,80.4162455 0.598340659,78.6410529 0.598340659,76.4514185 L0.598340659,22.9849677 C0.598340659,20.7918797 2.17321964,19.0166871 4.1176426,19.0166871 L4.1176426,19.0166871 C6.05861188,19.0166871 7.64039823,20.7953333 7.64039823,22.9849677 L7.64039823,76.4514185 C7.64039823,78.6410529 6.06206556,80.4162455 4.1176426,80.4162455 L4.1176426,80.4162455 L4.1176426,80.4162455 Z" id="path4073"></path>
                    <path d="M35.466714,35.8326647 L35.466714,42.7193066 C43.8729759,42.8505465 50.6525537,49.6991979 50.6525537,58.1399967 C50.6525537,66.5807954 43.8729759,73.4294468 35.466714,73.5606867 L35.466714,80.8479557 C47.8723397,80.8168726 57.9191006,70.7528433 57.9191006,58.3403102 C57.9191006,45.9312308 47.868886,35.8637478 35.466714,35.8326647 L35.466714,35.8326647 Z" id="path4075"></path>
                    <path d="M2.45296789,39.0411353 C2.45296789,41.0131877 4.05202265,42.6087888 6.02062138,42.6087888 L34.9866522,42.6087888 C36.9552509,42.6087888 38.5543057,41.0131877 38.5543057,39.0411353 L38.5543057,39.0411353 C38.5543057,37.0725365 36.9552509,35.4734818 34.9866522,35.4734818 L6.02062138,35.4734818 C4.05202265,35.4700281 2.45296789,37.0690829 2.45296789,39.0411353 L2.45296789,39.0411353 L2.45296789,39.0411353 Z" id="path4077"></path>
                    <path d="M17.89438,3.52777708 C17.89438,5.46874636 18.8821331,7.04707903 20.1012828,7.04707903 L28.9910603,7.04707903 C30.2067563,7.04707903 31.1910557,5.47220004 31.1910557,3.52777708 L31.1910557,3.52777708 C31.1910557,1.58680781 30.2067563,0.00847513997 28.9910603,0.00847513997 L20.1012828,0.00847513997 C18.8821331,0.00847513997 17.89438,1.58335413 17.89438,3.52777708 L17.89438,3.52777708 L17.89438,3.52777708 Z" id="path4079"></path>
                    <path d="M7.80272128,46.8982618 C7.80272128,46.0037582 8.03066429,45.1610598 8.4312914,44.4254255 C9.30852663,42.8056486 11.0284603,41.7073778 12.997059,41.7073778 L14.7066316,41.7073778 L14.7066316,36.4819569 L2.08342391,36.4819569 L2.08342391,47.927459 L7.80272128,47.927459 L7.80272128,46.8982618 L7.80272128,46.8982618 Z" id="path4081"></path>
                    <path d="M7.80272128,30.5485313 C7.80272128,31.4464886 8.03066429,32.289187 8.4312914,33.0248213 C9.30852663,34.6445981 11.0284603,35.742869 12.997059,35.742869 L14.7066316,35.742869 L14.7066316,40.9682898 L2.08342391,40.9682898 L2.08342391,29.5227877 L7.80272128,29.5227877 L7.80272128,30.5485313 L7.80272128,30.5485313 Z" id="path4083"></path>
                    <path d="M28.1932597,1.8415266 L28.1932597,8.53821597 C35.7291938,8.56584543 41.8283962,14.6788625 41.8283962,22.2251577 C41.8283962,29.7679991 35.7257401,35.8810163 28.1932597,35.9120994 L28.1932597,42.6122424 C39.4280872,42.584613 48.5319929,33.4668925 48.5319929,22.2286114 C48.5319929,10.9834228 39.4280872,1.86570237 28.1932597,1.8415266 L28.1932597,1.8415266 Z" id="path4085"></path>
                    <path d="M27.1813309,2.24215371 L27.1813309,8.80760317 C34.7207187,8.8386863 40.8199211,14.8308245 40.8199211,22.2251577 C40.8199211,29.6194908 34.717265,35.6116291 27.1813309,35.6392585 L27.1813309,42.204708 C38.4196121,42.1805322 47.5200641,33.2424032 47.5200641,22.2251577 C47.5200641,11.2044585 38.4196121,2.26978317 27.1813309,2.24215371 L27.1813309,2.24215371 Z" id="path4087"></path>
                    <path d="M7.56787091,22.6879511 C7.88215597,15.5388294 13.3976861,9.7400973 20.4259289,8.98374095 L20.4259289,1.88987815 C9.49157177,2.67386396 0.822829988,11.6292613 0.494730199,22.6844974 L7.56787091,22.6844974 L7.56787091,22.6879511 Z" id="path4089"></path>
                </g>
                <g id="g4091" transform="translate(328.703151, 3.700640)" sketch:type="MSShapeGroup">
                    <path d="M0.935947818,73.7715009 C0.935947818,71.9721326 2.15164388,70.5181325 3.65399554,70.5181325 L25.705755,70.5181325 C27.2115604,70.5181325 28.4238027,71.9755863 28.4238027,73.7715009 L28.4238027,73.7715009 C28.4238027,75.5743229 21.1192653,77.028323 19.6169137,77.028323 L3.65399554,77.028323 C2.15164388,77.0317767 0.935947818,75.5743229 0.935947818,73.7715009 L0.935947818,73.7715009 L0.935947818,73.7715009 Z" id="path4093"></path>
                    <path d="M7.2665469,65.4481273 C7.2665469,66.3426309 7.49448991,67.1853294 7.89511702,67.9244173 C8.77235224,69.5407405 10.4853785,70.6390113 12.4574309,70.6390113 L14.1670035,70.6390113 L14.1670035,75.8678859 L1.54724953,75.8678859 L1.54724953,64.4189301 L7.2665469,64.4189301 L7.2665469,65.4481273 L7.2665469,65.4481273 Z" id="path4095"></path>
                    <path d="M20.4216216,0.788293168 C20.0797071,0.743395302 19.8034125,0.719219529 19.6203674,0.719219529 L12.5610414,0.719219529 L12.5644951,0.760663712 L12.3849036,0.760663712 C6.00595297,0.760663712 0.770171083,5.63380899 0.196859873,11.8642513 L0.196859873,73.0634961 C0.196859873,75.2565842 1.77173886,77.0317767 3.71616182,77.0317767 C5.66058478,77.0317767 7.23546376,75.2531305 7.23546376,73.0634961 L7.23546376,12.2648784 C7.24237113,11.3841895 7.46686045,10.5587595 7.86403388,9.83348629 C8.57203869,8.53144818 9.81881789,7.56787091 11.3108085,7.23977112 L22.9980683,7.23977112 C38.933357,9.24290667 51.2560944,22.6604612 51.2560944,38.9134886 C51.2560944,56.2544259 37.2375992,70.3592631 19.7723294,70.8358712 L19.7723294,77.0628598 C40.7292717,76.5862517 57.5728787,59.6908394 57.5728787,38.9134886 C57.5659713,18.3571734 41.0746399,1.59990844 20.4216216,0.788293168 L20.4216216,0.788293168 Z" id="path4097"></path>
                </g>
            </g>
            <path d="M22.0333627,57.2034355 C13.1617347,66.075065 35.957698,103.258265 39.879278,107.177985 C43.800868,111.103295 54.171318,107.088385 63.042948,98.214895 C71.918308,89.341395 75.931348,78.967205 72.009768,75.047485 C68.088188,71.124035 30.908728,48.3318055 22.0333627,57.2034355 L22.0333627,57.2034355 Z" id="dark" fill="#555555" sketch:type="MSShapeGroup"></path>
            <path d="M24.1966737,58.3065555 C16.1145887,65.994805 37.861558,101.983425 41.564758,105.877005 C45.266088,109.766865 54.819008,106.694545 62.902958,99.004435 C70.986908,91.319915 74.537048,81.933125 70.835718,78.041405 C67.132518,74.149685 32.278758,50.6220455 24.1966737,58.3065555 L24.1966737,58.3065555 Z" id="path4139" fill="#FFFFFF" sketch:type="MSShapeGroup"></path>
            <path d="M23.6889767,57.0671855 C15.7972777,64.5687755 38.669768,101.427195 42.498028,105.451435 C46.326278,109.477545 55.826928,106.657215 63.714898,99.159355 C71.602868,91.654025 74.891688,82.310165 71.065308,78.284055 C67.238908,74.259815 31.573208,49.5693155 23.6889767,57.0671855 L23.6889767,57.0671855 Z" id="dark" fill="#555555" sketch:type="MSShapeGroup"></path>
            <path d="M24.7286377,57.6906055 C17.9288577,64.8730155 41.736478,98.448205 45.574068,102.080485 C49.407928,105.707155 58.027578,102.828965 64.823618,95.648405 C71.625258,88.464125 74.027488,79.698885 70.191768,76.068485 C66.359778,72.438075 31.526548,50.5100555 24.7286377,57.6906055 L24.7286377,57.6906055 Z" id="path4143" fill="#FFFFFF" sketch:type="MSShapeGroup"></path>
            <g id="g4145" sketch:type="MSLayerGroup" transform="translate(23.196203, 56.703175)" fill="#555555">
                <ellipse id="dark" sketch:type="MSShapeGroup" cx="72.6939895" cy="73.1661476" rx="72.3299952" ry="72.3299952"></ellipse>
            </g>
            <circle id="circle4149" fill="#FFFFFF" sketch:type="MSShapeGroup" cx="95.892059" cy="129.869354" r="70.487732"></circle>
            <g id="g4151" sketch:type="MSLayerGroup" transform="translate(23.196203, 56.703175)" fill="#555555">
                <circle id="dark" sketch:type="MSShapeGroup" cx="69.9296364" cy="70.4037169" r="69.5656625"></circle>
            </g>
            <ellipse id="circle4155" fill="#FFFFFF" sketch:type="MSShapeGroup" cx="90.592987" cy="121.345001" rx="62.424309" ry="62.424309"></ellipse>
            <path d="M168.34524,56.9943855 C177.17767,65.826815 154.042,103.276925 150.08308,107.243305 C146.1223,111.202225 135.74812,107.256405 126.91755,98.422075 C118.085118,89.591505 114.135538,79.217325 118.096318,75.256535 C122.05897,71.293895 159.50907,48.1619555 168.34524,56.9943855 L168.34524,56.9943855 Z" id="dark" fill="#555555" sketch:type="MSShapeGroup"></path>
            <path d="M166.0326,59.7680555 C174.10162,67.837075 152.20906,102.814025 148.49093,106.532165 C144.7728,110.250295 135.21429,106.724415 127.1434,98.653525 C119.076248,90.586365 115.548498,81.031595 119.268498,77.309725 C122.9885,73.591595 157.96172,51.6971655 166.0326,59.7680555 L166.0326,59.7680555 Z" id="path4159" fill="#FFFFFF" sketch:type="MSShapeGroup"></path>
            <path d="M165.74142,57.9855155 C173.4894,65.737225 150.56652,101.231205 146.74572,105.050135 C142.92493,108.869055 133.54747,105.684755 125.79203,97.933045 C118.042188,90.183195 114.856018,80.802005 118.671208,76.981215 C122.49574,73.156685 157.98785,50.2319355 165.74142,57.9855155 L165.74142,57.9855155 Z" id="dark" fill="#555555" sketch:type="MSShapeGroup"></path>
            <path d="M166.11473,57.1773055 C173.22622,64.7983555 148.24828,99.653985 144.22591,103.405715 C140.20539,107.155585 131.18258,104.017945 124.07482,96.396885 C116.963328,88.775835 114.460308,79.557025 118.480818,75.809035 C122.5032,72.055435 159.00698,49.5581255 166.11473,57.1773055 L166.11473,57.1773055 Z" id="path4163" fill="#FFFFFF" sketch:type="MSShapeGroup"></path>
            <path d="M149.94123,105.542895 C146.2063,109.275965 136.43127,105.551895 128.10653,97.229365 C119.783658,88.906495 116.065528,79.133325 119.796728,75.396525 C120.61427,74.582725 122.95117,72.893505 126.184,70.845925 C121.39635,68.927125 117.364638,68.815135 115.205058,70.974715 C110.798178,75.381595 115.837808,87.568185 126.45838,98.188765 C137.08082,108.811195 149.26741,113.850835 153.67429,109.440215 C155.66215,107.454225 155.72188,103.877955 154.22119,99.579325 C152.29866,102.590045 150.72144,104.757085 149.94123,105.542895 L149.94123,105.542895 Z" id="dark" fill="#555555" sketch:type="MSShapeGroup"></path>
        </g>
    </g>
</svg>