<?xml version="1.0" encoding="UTF-8" standalone="no"?>
<!-- Generator: Adobe Illustrator 17.0.2, SVG Export Plug-In . SVG Version: 6.00 Build 0)  -->

<svg
   xmlns:dc="http://purl.org/dc/elements/1.1/"
   xmlns:cc="http://creativecommons.org/ns#"
   xmlns:rdf="http://www.w3.org/1999/02/22-rdf-syntax-ns#"
   xmlns:svg="http://www.w3.org/2000/svg"
   xmlns="http://www.w3.org/2000/svg"
   xmlns:sodipodi="http://sodipodi.sourceforge.net/DTD/sodipodi-0.dtd"
   xmlns:inkscape="http://www.inkscape.org/namespaces/inkscape"
   version="1.1"
   id="Layer_1"
   x="0px"
   y="0px"
   width="403.8847"
   height="332.90256"
   viewBox="0 0 403.8847 332.90255"
   enable-background="new 0 0 595.276 841.89"
   xml:space="preserve"
   inkscape:version="0.91 r13725"
   sodipodi:docname="freebsd.svg"><metadata
     id="metadata4647"><rdf:RDF><cc:Work
         rdf:about=""><dc:format>image/svg+xml</dc:format><dc:type
           rdf:resource="http://purl.org/dc/dcmitype/StillImage" /><dc:title></dc:title></cc:Work></rdf:RDF></metadata><defs
     id="defs4645" /><sodipodi:namedview
     pagecolor="#ffffff"
     bordercolor="#666666"
     borderopacity="1"
     objecttolerance="10"
     gridtolerance="10"
     guidetolerance="10"
     inkscape:pageopacity="0"
     inkscape:pageshadow="2"
     inkscape:window-width="1079"
     inkscape:window-height="935"
     id="namedview4643"
     showgrid="false"
     inkscape:zoom="1.9851475"
     inkscape:cx="204.13071"
     inkscape:cy="168.5214"
     inkscape:window-x="584"
     inkscape:window-y="0"
     inkscape:window-maximized="0"
     inkscape:current-layer="Layer_1"
     fit-margin-top="0"
     fit-margin-left="0"
     fit-margin-right="0"
     fit-margin-bottom="0" /><g
     id="g4011"
     transform="matrix(1.8665324,0,0,1.8665324,-597.82723,-1114.4832)"
     style="fill:#4b4b4b"><g
       id="g4013"
       style="fill:#4b4b4b"><path
         d="m 465.396,638.868 c 0,0.558 -0.451,1.008 -1.009,1.008 l -13.604,0 c -0.558,0 -1.01,-0.45 -1.01,-1.008 l 0,0 c 0,-0.558 0.452,-1.01 1.01,-1.01 l 13.604,0 c 0.558,0 1.009,0.452 1.009,1.01 l 0,0 z"
         id="path4015"
         inkscape:connector-curvature="0"
         style="fill:#4b4b4b" /><circle
         cx="461.70999"
         cy="644.49402"
         r="1"
         id="circle4017"
         style="fill:#4b4b4b" /><path
         d="m 452.379,637.856 c -0.553,0 -1,-0.449 -1,-1.001 0,-0.052 0.004,-0.104 0.013,-0.153 l -1.5,0 0,1.895 2.499,0 0,-0.741 c -0.004,-0.002 -0.008,0 -0.012,0 z"
         id="path4019"
         inkscape:connector-curvature="0"
         style="fill:#4b4b4b" /><path
         d="m 451.379,640.817 c 0,-0.553 0.447,-1.001 1,-1.001 0.004,0 0.008,10e-4 0.012,10e-4 l 0,-0.704 -2.499,0 0,1.896 1.505,0 c -0.012,-0.062 -0.018,-0.126 -0.018,-0.192 z"
         id="path4021"
         inkscape:connector-curvature="0"
         style="fill:#4b4b4b" /><path
         d="m 462.938,636.442 c 0.058,0.126 0.089,0.265 0.089,0.412 0,0.552 -0.447,1.001 -1,1.001 -0.024,0 -0.049,-0.003 -0.074,-0.005 l 0,1.004 2.24,0 0,-2.412 -1.255,0 z"
         id="path4023"
         inkscape:connector-curvature="0"
         style="fill:#4b4b4b" /><path
         d="m 457.168,630.672 c -4.537,0 -8.214,3.678 -8.214,8.215 0,4.537 3.677,8.215 8.214,8.215 2.011,0 3.852,-0.723 5.279,-1.921 l -1.441,-1.419 c -1.056,0.833 -2.389,1.33 -3.838,1.33 -3.426,0 -6.204,-2.778 -6.204,-6.205 0,-3.427 2.778,-6.204 6.204,-6.204 3.428,0 6.205,2.777 6.205,6.204 0,0.019 0,0.036 0,0.054 l 2.01,0 c 0,-0.018 0.002,-0.035 0.002,-0.054 0,-4.537 -3.679,-8.215 -8.217,-8.215 z"
         id="path4025"
         inkscape:connector-curvature="0"
         style="fill:#4b4b4b" /></g><g
       id="g4027"
       style="fill:#4b4b4b"><path
         d="m 484.238,638.868 c 0,0.558 -0.451,1.008 -1.009,1.008 l -13.604,0 c -0.558,0 -1.009,-0.45 -1.009,-1.008 l 0,0 c 0,-0.558 0.451,-1.01 1.009,-1.01 l 13.604,0 c 0.558,0 1.009,0.452 1.009,1.01 l 0,0 z"
         id="path4029"
         inkscape:connector-curvature="0"
         style="fill:#4b4b4b" /><circle
         cx="480.552"
         cy="644.49402"
         r="1"
         id="circle4031"
         style="fill:#4b4b4b" /><path
         d="m 471.221,637.856 c -0.553,0 -1,-0.449 -1,-1.001 0,-0.052 0.006,-0.104 0.013,-0.153 l -1.5,0 0,1.895 2.499,0 0,-0.741 c -0.006,-0.002 -0.008,0 -0.012,0 z"
         id="path4033"
         inkscape:connector-curvature="0"
         style="fill:#4b4b4b" /><path
         d="m 470.221,640.817 c 0,-0.553 0.447,-1.001 1,-1.001 0.004,0 0.007,10e-4 0.012,10e-4 l 0,-0.704 -2.499,0 0,1.896 1.505,0 c -0.012,-0.062 -0.018,-0.126 -0.018,-0.192 z"
         id="path4035"
         inkscape:connector-curvature="0"
         style="fill:#4b4b4b" /><path
         d="m 481.78,636.442 c 0.057,0.126 0.09,0.265 0.09,0.412 0,0.552 -0.448,1.001 -1.001,1.001 -0.025,0 -0.049,-0.003 -0.074,-0.005 l 0,1.004 2.24,0 0,-2.412 -1.255,0 z"
         id="path4037"
         inkscape:connector-curvature="0"
         style="fill:#4b4b4b" /><path
         d="m 476.01,630.672 c -4.536,0 -8.215,3.678 -8.215,8.215 0,4.537 3.679,8.215 8.215,8.215 2.012,0 3.853,-0.723 5.279,-1.921 l -1.441,-1.419 c -1.056,0.833 -2.389,1.33 -3.838,1.33 -3.426,0 -6.203,-2.778 -6.203,-6.205 0,-3.427 2.777,-6.204 6.203,-6.204 3.428,0 6.206,2.777 6.206,6.204 0,0.019 -0.001,0.036 -0.001,0.054 l 2.01,0 c 0,-0.018 10e-4,-0.035 10e-4,-0.054 0,-4.537 -3.678,-8.215 -8.216,-8.215 z"
         id="path4039"
         inkscape:connector-curvature="0"
         style="fill:#4b4b4b" /></g><g
       id="g4041"
       style="fill:#4b4b4b"><path
         d="m 442.064,632.566 c 0.002,0.008 0.006,0.018 0.01,0.026 -1.945,0.359 -3.42,2.064 -3.42,4.113 0,0.076 0.002,0.15 0.006,0.227 l 0,9.136 c 0,0.57 -0.463,1.033 -1.033,1.033 -0.571,0 -1.034,-0.463 -1.034,-1.033 l 0,-9.687 c 0.209,-2.991 2.539,-5.398 5.495,-5.727 0.42,0.114 0.728,0.497 0.728,0.952 -10e-4,0.465 -0.321,0.853 -0.752,0.96 z"
         id="path4043"
         inkscape:connector-curvature="0"
         style="fill:#4b4b4b" /><circle
         cx="446.89499"
         cy="633.672"
         r="1"
         id="circle4045"
         style="fill:#4b4b4b" /><path
         d="m 446.273,634.513 c 0.373,-0.591 0.818,-1.132 1.326,-1.609 -1.138,-1.414 -2.882,-2.319 -4.837,-2.319 -3.3,0 -5.998,2.576 -6.193,5.826 l 2.025,0 c 0.192,-2.134 1.983,-3.807 4.168,-3.807 1.472,0 2.765,0.76 3.511,1.909 z"
         id="path4047"
         inkscape:connector-curvature="0"
         style="fill:#4b4b4b" /></g><path
       d="m 512.718,647.021 c 3.003,-0.345 5.797,-3.244 5.31,-6.336 -0.205,-1.308 -1.062,-2.656 -2.48,-3.595 -1.109,-0.733 -6.525,-3.294 -7.476,-3.952 -0.583,-0.446 -1.726,-1.669 -1.81,-2.457 -0.228,-2.124 0.931,-3.032 2.105,-3.576 0.484,-0.228 1.109,-0.312 1.367,-0.341 2.191,-0.257 2.903,0.142 4.908,1.093 0.207,0.098 0.412,0.103 0.634,0.067 0.675,-0.105 1.14,-0.401 1.034,-1.075 -0.08,-0.5 -0.357,-0.729 -0.88,-0.988 -1.397,-0.691 -4.019,-1.52 -6.228,-1.173 -0.037,0.006 -0.072,0.014 -0.109,0.02 l -0.005,-0.031 c -3.064,0.51 -5.491,3.28 -5.008,6.354 0.261,1.652 1.531,3.036 2.831,3.882 0.87,0.729 4.016,1.993 7.127,3.719 1.105,0.612 1.549,1.217 1.711,2.586 0.168,1.421 -1.478,3.034 -2.764,3.523 -2,0.587 -4.351,-0.245 -5.916,-1.073 -0.469,-0.305 -0.683,-0.466 -1.113,-0.397 -0.674,0.105 -1.134,0.738 -1.028,1.412 0.071,0.448 0.329,0.763 0.769,0.956 2.784,1.224 4.662,1.651 7.021,1.382 z"
       id="path4049"
       inkscape:connector-curvature="0"
       style="fill:#4b4b4b" /><g
       id="g4051"
       style="fill:#4b4b4b"><path
         d="m 426.862,629.982 c 0.009,0.004 0.019,0.008 0.028,0.011 0.375,-2.03 2.154,-3.569 4.293,-3.569 0.08,0 0.158,0.003 0.236,0.007 l 4.379,0 c 0.596,0 1.079,-0.483 1.079,-1.079 0,-0.596 -0.483,-1.079 -1.079,-1.079 l -4.953,0 c -3.123,0.219 -5.635,2.65 -5.978,5.737 0.12,0.437 0.518,0.757 0.993,0.757 0.487,0 0.892,-0.334 1.002,-0.785 z"
         id="path4053"
         inkscape:connector-curvature="0"
         style="fill:#4b4b4b" /><path
         d="m 425.562,635.963 c 0,0.586 0.475,1.06 1.06,1.06 l 6.742,0 c 0.586,0 1.061,-0.475 1.061,-1.06 l 0,0 c 0,-0.585 -0.475,-1.06 -1.061,-1.06 l -6.742,0 c -0.585,0 -1.06,0.475 -1.06,1.06 l 0,0 z"
         id="path4055"
         inkscape:connector-curvature="0"
         style="fill:#4b4b4b" /><path
         d="m 429.67,625.338 c 0,0.576 0.527,1.044 1.178,1.044 l 0.93,0 c 0.65,0 1.179,-0.468 1.179,-1.044 l 0,0 c 0,-0.578 -0.528,-1.046 -1.179,-1.046 l -0.93,0 c -0.651,0 -1.178,0.468 -1.178,1.046 l 0,0 z"
         id="path4057"
         inkscape:connector-curvature="0"
         style="fill:#4b4b4b" /><g
         id="g4059"
         style="fill:#4b4b4b"><path
           d="m 425.947,628.036 c 0.596,0 1.079,0.351 1.079,0.782 l 0,17.369 c 0,0.432 -0.483,0.781 -1.079,0.781 l 0,0 c -0.596,0 -1.079,-0.35 -1.079,-0.781 l 0,-16.353 c 0,-0.431 0.484,-1.798 1.079,-1.798 l 0,0 z"
           id="path4061"
           inkscape:connector-curvature="0"
           style="fill:#4b4b4b" /></g><path
         d="m 427.151,638.566 c 0,-0.267 0.067,-0.517 0.186,-0.734 0.262,-0.48 0.77,-0.808 1.355,-0.808 l 0.508,0 0,-1.552 -3.748,0 0,3.4 1.698,0 0,-0.306 z"
         id="path4063"
         inkscape:connector-curvature="0"
         style="fill:#4b4b4b" /><path
         d="m 427.151,633.352 c 0,0.266 0.067,0.516 0.186,0.734 0.262,0.482 0.77,0.808 1.355,0.808 l 0.508,0 0,1.552 -3.748,0 0,-3.4 1.698,0 0,0.306 z"
         id="path4065"
         inkscape:connector-curvature="0"
         style="fill:#4b4b4b" /><path
         d="m 426.968,630.478 c 0.094,-2.123 1.731,-3.845 3.817,-4.069 l 0,-2.106 c -3.246,0.233 -5.82,2.894 -5.917,6.176 l 2.1,0 z"
         id="path4067"
         inkscape:connector-curvature="0"
         style="fill:#4b4b4b" /></g><g
       id="g4069"
       style="fill:#4b4b4b"><path
         d="m 487.866,646.079 c 0,-0.562 0.515,-1.02 1.149,-1.02 l 9.323,0 c 0.635,0 1.149,0.457 1.149,1.02 l 0,0 c 0,0.562 -0.515,1.019 -1.149,1.019 l -9.323,0 c -0.634,0 -1.149,-0.456 -1.149,-1.019 l 0,0 z"
         id="path4071"
         inkscape:connector-curvature="0"
         style="fill:#4b4b4b" /><path
         d="m 488.728,647.038 c -0.563,0 -1.019,-0.514 -1.019,-1.148 l 0,-15.481 c 0,-0.635 0.456,-1.149 1.019,-1.149 l 0,0 c 0.562,0 1.02,0.515 1.02,1.149 l 0,15.481 c 0,0.634 -0.457,1.148 -1.02,1.148 l 0,0 z"
         id="path4073"
         inkscape:connector-curvature="0"
         style="fill:#4b4b4b" /><path
         d="m 497.805,634.129 0,1.994 c 2.434,0.038 4.397,2.021 4.397,4.465 0,2.444 -1.963,4.427 -4.397,4.465 l 0,2.11 c 3.592,-0.009 6.501,-2.923 6.501,-6.517 0,-3.593 -2.91,-6.508 -6.501,-6.517 z"
         id="path4075"
         inkscape:connector-curvature="0"
         style="fill:#4b4b4b" /><path
         d="m 488.246,635.058 c 0,0.571 0.463,1.033 1.033,1.033 l 8.387,0 c 0.57,0 1.033,-0.462 1.033,-1.033 l 0,0 c 0,-0.57 -0.463,-1.033 -1.033,-1.033 l -8.387,0 c -0.57,-10e-4 -1.033,0.462 -1.033,1.033 l 0,0 z"
         id="path4077"
         inkscape:connector-curvature="0"
         style="fill:#4b4b4b" /><path
         d="m 492.717,625.311 c 0,0.562 0.286,1.019 0.639,1.019 l 2.574,0 c 0.352,0 0.637,-0.456 0.637,-1.019 l 0,0 c 0,-0.562 -0.285,-1.019 -0.637,-1.019 l -2.574,0 c -0.353,0 -0.639,0.456 -0.639,1.019 l 0,0 z"
         id="path4079"
         inkscape:connector-curvature="0"
         style="fill:#4b4b4b" /><path
         d="m 489.795,637.333 c 0,-0.259 0.066,-0.503 0.182,-0.716 0.254,-0.469 0.752,-0.787 1.322,-0.787 l 0.495,0 0,-1.513 -3.655,0 0,3.314 1.656,0 0,-0.298 z"
         id="path4081"
         inkscape:connector-curvature="0"
         style="fill:#4b4b4b" /><path
         d="m 489.795,632.599 c 0,0.26 0.066,0.504 0.182,0.717 0.254,0.469 0.752,0.787 1.322,0.787 l 0.495,0 0,1.513 -3.655,0 0,-3.314 1.656,0 0,0.297 z"
         id="path4083"
         inkscape:connector-curvature="0"
         style="fill:#4b4b4b" /><path
         d="m 495.699,624.287 0,1.939 c 2.182,0.008 3.948,1.778 3.948,3.963 0,2.184 -1.767,3.954 -3.948,3.963 l 0,1.94 c 3.253,-0.008 5.889,-2.648 5.889,-5.902 0,-3.256 -2.636,-5.896 -5.889,-5.903 z"
         id="path4085"
         inkscape:connector-curvature="0"
         style="fill:#4b4b4b" /><path
         d="m 495.406,624.403 0,1.901 c 2.183,0.009 3.949,1.744 3.949,3.885 0,2.141 -1.767,3.876 -3.949,3.884 l 0,1.901 c 3.254,-0.007 5.889,-2.595 5.889,-5.785 0,-3.191 -2.635,-5.778 -5.889,-5.786 z"
         id="path4087"
         inkscape:connector-curvature="0"
         style="fill:#4b4b4b" /><path
         d="m 489.727,630.323 c 0.091,-2.07 1.688,-3.749 3.723,-3.968 l 0,-2.054 c -3.166,0.227 -5.676,2.82 -5.771,6.021 l 2.048,0 z"
         id="path4089"
         inkscape:connector-curvature="0"
         style="fill:#4b4b4b" /></g><g
       id="g4091"
       style="fill:#4b4b4b"><path
         d="m 520.271,645.896 c 0,-0.521 0.352,-0.942 0.787,-0.942 l 6.385,0 c 0.436,0 0.787,0.422 0.787,0.942 l 0,0 c 0,0.522 -2.115,0.943 -2.55,0.943 l -4.622,0 c -0.435,10e-4 -0.787,-0.421 -0.787,-0.943 l 0,0 z"
         id="path4093"
         inkscape:connector-curvature="0"
         style="fill:#4b4b4b" /><path
         d="m 522.104,643.486 c 0,0.259 0.066,0.503 0.182,0.717 0.254,0.468 0.75,0.786 1.321,0.786 l 0.495,0 0,1.514 -3.654,0 0,-3.315 1.656,0 0,0.298 z"
         id="path4095"
         inkscape:connector-curvature="0"
         style="fill:#4b4b4b" /><path
         d="m 525.913,624.764 c -0.099,-0.013 -0.179,-0.02 -0.232,-0.02 l -2.044,0 0.001,0.012 c -0.017,0 -0.034,0 -0.052,0 -1.847,0 -3.363,1.411 -3.529,3.215 l 0,17.72 c 0,0.635 0.456,1.149 1.019,1.149 0.563,0 1.019,-0.515 1.019,-1.149 l 0,-17.604 c 0.002,-0.255 0.067,-0.494 0.182,-0.704 0.205,-0.377 0.566,-0.656 0.998,-0.751 l 3.384,0 c 4.614,0.58 8.182,4.465 8.182,9.171 0,5.021 -4.059,9.105 -9.116,9.243 l 0,1.803 c 6.068,-0.138 10.945,-5.03 10.945,-11.046 -0.002,-5.952 -4.777,-10.804 -10.757,-11.039 z"
         id="path4097"
         inkscape:connector-curvature="0"
         style="fill:#4b4b4b" /></g></g><path
     d="M 2.0333627,2.2034355 C -6.8382653,11.075065 15.957698,48.258265 19.879278,52.177985 c 3.92159,3.92531 14.29204,-0.0896 23.16367,-8.96309 8.87536,-8.8735 12.8884,-19.24769 8.96682,-23.16741 C 48.088188,16.124035 10.908728,-6.6681945 2.0333627,2.2034355 Z"
     id="path4137"
     inkscape:connector-curvature="0"
     style="fill:#4b4b4b" /><path
     d="M 4.1966737,3.3065555 C -3.8854113,10.994805 17.861558,46.983425 21.564758,50.877005 c 3.70133,3.88986 13.25425,0.81754 21.3382,-6.87257 8.08395,-7.68452 11.63409,-17.07131 7.93276,-20.96303 -3.7032,-3.89172 -38.55696,-27.4193595 -46.6390443,-19.7348495 z"
     id="path4139"
     inkscape:connector-curvature="0"
     style="fill:#ffffff" /><path
     d="m 3.6889767,2.0671855 c -7.891699,7.50159 14.9807913,44.3600095 18.8090513,48.3842495 3.82825,4.02611 13.3289,1.20578 21.21687,-6.29208 7.88797,-7.50533 11.17679,-16.84919 7.35041,-20.8753 -3.8264,-4.02424 -39.4921,-28.7147395 -47.3763313,-21.2168695 z"
     id="path4141"
     inkscape:connector-curvature="0"
     style="fill:#4b4b4b" /><path
     d="m 4.7286377,2.6906055 c -6.79978,7.18241 17.0078403,40.7575995 20.8454303,44.3898795 3.83386,3.62667 12.45351,0.74848 19.24955,-6.43208 6.80164,-7.18428 9.20387,-15.94952 5.36815,-19.57992 C 46.359778,17.438075 11.526548,-4.4899445 4.7286377,2.6906055 Z"
     id="path4143"
     inkscape:connector-curvature="0"
     style="fill:#ffffff" /><g
     id="g4145"
     transform="matrix(1.8665324,0,0,1.8665324,-597.82723,-1114.4832)"
     style="fill:#4b4b4b"><circle
       cx="360.94601"
       cy="637.19897"
       r="38.750999"
       id="circle4147"
       style="fill:#4b4b4b" /></g><circle
     cx="75.892059"
     cy="74.869354"
     r="70.487732"
     id="circle4149"
     style="fill:#ffffff" /><g
     id="g4151"
     transform="matrix(1.8665324,0,0,1.8665324,-597.82723,-1114.4832)"
     style="fill:#4b4b4b"><circle
       cx="359.465"
       cy="635.71899"
       r="37.27"
       id="circle4153"
       style="fill:#4b4b4b" /></g><circle
     cx="70.592987"
     cy="66.345001"
     r="62.424309"
     id="circle4155"
     style="fill:#ffffff" /><path
     d="m 148.34524,1.9943855 c 8.83243,8.8324295 -14.30324,46.2825395 -18.26216,50.2489195 -3.96078,3.95892 -14.33496,0.0131 -23.16553,-8.82123 -8.832432,-8.83057 -12.782012,-19.20475 -8.821232,-23.16554 3.962652,-3.96264 41.412752,-27.0945795 50.248922,-18.2621495 z"
     id="path4157"
     inkscape:connector-curvature="0"
     style="fill:#4b4b4b" /><path
     d="m 146.0326,4.7680555 c 8.06902,8.0690195 -13.82354,43.0459695 -17.54167,46.7641095 -3.71813,3.71813 -13.27664,0.19225 -21.34753,-7.87864 -8.067152,-8.06716 -11.594902,-17.62193 -7.874902,-21.3438 C 102.9885,18.591595 137.96172,-3.3028345 146.0326,4.7680555 Z"
     id="path4159"
     inkscape:connector-curvature="0"
     style="fill:#ffffff" /><path
     d="m 145.74142,2.9855155 c 7.74798,7.7517095 -15.1749,43.2456895 -18.9957,47.0646195 -3.82079,3.81892 -13.19825,0.63462 -20.95369,-7.11709 -7.749842,-7.74985 -10.936012,-17.13104 -7.120822,-20.95183 3.824532,-3.82453 39.316642,-26.7492795 47.070212,-18.9956995 z"
     id="path4161"
     inkscape:connector-curvature="0"
     style="fill:#4b4b4b" /><path
     d="m 146.11473,2.1773055 c 7.11149,7.62105 -17.86645,42.4766795 -21.88882,46.2284095 -4.02052,3.74987 -13.04333,0.61223 -20.15109,-7.00883 -7.111492,-7.62105 -9.614512,-16.83986 -5.594002,-20.58785 4.022382,-3.7536 40.526162,-26.2509095 47.633912,-18.6317295 z"
     id="path4163"
     inkscape:connector-curvature="0"
     style="fill:#ffffff" /><path
     d="m 129.94123,50.542895 c -3.73493,3.73307 -13.50996,0.009 -21.8347,-8.31353 -8.322872,-8.32287 -12.041002,-18.09604 -8.309802,-21.83284 0.817542,-0.8138 3.154442,-2.50302 6.387272,-4.5506 -4.78765,-1.9188 -8.819362,-2.03079 -10.978942,0.12879 -4.40688,4.40688 0.63275,16.59347 11.253322,27.21405 10.62244,10.62243 22.80903,15.66207 27.21591,11.25145 1.98786,-1.98599 2.04759,-5.56226 0.5469,-9.86089 -1.92253,3.01072 -3.49975,5.17776 -4.27996,5.96357 z"
     id="path4165"
     inkscape:connector-curvature="0"
     style="fill:#4b4b4b" /><rect
     x="-95.344849"
     y="-480.96371"
     width="1086"
     height="846"
     id="rect4641"
     style="fill:none" /></svg>