<?xml version="1.0" encoding="UTF-8" standalone="no"?>
<svg width="521px" height="520px" viewBox="0 0 521 520" version="1.1" xmlns="http://www.w3.org/2000/svg" xmlns:xlink="http://www.w3.org/1999/xlink" xmlns:sketch="http://www.bohemiancoding.com/sketch/ns">
    <!-- Generator: Sketch 3.3.1 (12002) - http://www.bohemiancoding.com/sketch -->
    <title>osx</title>
    <desc>Created with Sketch.</desc>
    <defs></defs>
    <g id="Page-1" stroke="none" stroke-width="1" fill="none" fill-rule="evenodd" sketch:type="MSPage">
        <g id="osx" sketch:type="MSLayerGroup" fill="#CCCCCC">
            <path d="M260.306,0.346 C117.493,0.346 0.037,116.466 0.037,260.615 C0.037,403.427 116.155,519.549 260.306,519.549 C403.118,519.549 520.574,403.43 520.574,259.279 C519.239,116.466 403.118,0.346 260.306,0.346 L260.306,0.346 Z M260.306,508.871 C122.83,508.871 10.715,396.756 10.715,259.279 C10.715,121.804 122.83,9.689 260.306,9.689 C397.781,9.689 509.896,121.805 509.896,259.279 C509.896,396.755 397.781,508.871 260.306,508.871 L260.306,508.871 Z M380.429,107.123 L355.07,107.123 L260.306,243.264 L164.206,107.123 L138.847,107.123 L246.958,257.945 L136.177,412.771 L161.537,412.771 L258.971,272.626 L357.739,412.771 L383.099,412.771 L272.318,257.945 L380.429,107.123 L380.429,107.123 Z" id="Shape" sketch:type="MSShapeGroup"></path>
        </g>
    </g>
</svg>