<?xml version="1.0" encoding="utf-8"?>
<!-- Generator: Adobe Illustrator 13.0.2, SVG Export Plug-In . SVG Version: 6.00 Build 14948)  -->
<!DOCTYPE svg PUBLIC "-//W3C//DTD SVG 1.1//EN" "http://www.w3.org/Graphics/SVG/1.1/DTD/svg11.dtd">
<svg version="1.1" id="Layer_1" xmlns="http://www.w3.org/2000/svg" xmlns:xlink="http://www.w3.org/1999/xlink" x="0px" y="0px"
	 width="1036px" height="270.792px" viewBox="-336.5 260.604 1036 270.792" enable-background="new -336.5 260.604 1036 270.792"
	 xml:space="preserve">
<g>
	<g>
		<g>
			<g>
				<polygon fill="#303035" points="-269.334,398.38 -269.334,339.68 -330.442,348.338 -330.442,398.38 				"/>
			</g>
		</g>
		<g>
			<g>
				<polygon fill="#303035" points="-263.56,398.38 -183.207,398.38 -183.207,327.649 -263.56,339.197 				"/>
			</g>
		</g>
		<g>
			<g>
				<polygon fill="#303035" points="-269.334,404.155 -330.442,404.155 -330.442,454.677 -269.334,462.855 				"/>
			</g>
		</g>
		<g>
			<g>
				<polygon fill="#303035" points="-263.56,404.155 -263.56,463.818 -183.207,474.885 -183.207,404.155 				"/>
			</g>
		</g>
	</g>
	<g>
		<g>
			<g>
				<path fill="#303035" d="M424.018,423.401c0,7.217-2.406,13.472-7.697,17.32c-5.294,4.331-12.51,6.255-21.653,6.255
					c-3.367,0-7.218-0.48-11.067-1.442c-4.329-0.962-7.217-2.405-8.66-3.367v-12.029c2.404,2.405,5.773,4.329,10.104,5.773
					c4.329,1.443,7.698,2.405,11.548,2.405c11.547,0,16.84-4.33,16.84-13.473c0-3.849-1.443-6.735-3.848-9.624
					c-2.408-2.886-7.219-6.254-14.917-10.584c-7.218-4.331-12.511-8.181-15.396-11.548c-2.888-3.85-4.331-8.181-4.331-13.474
					c0-6.735,2.404-12.51,7.698-16.84c5.292-4.331,12.029-6.736,20.208-6.736c7.699,0,13.475,0.962,17.322,3.369v11.546
					c-4.812-3.85-10.584-5.292-17.803-5.292c-4.811,0-8.66,1.442-12.029,3.849c-2.887,2.406-4.811,5.774-4.811,9.624
					c0,2.887,0.48,5.293,1.443,7.218c0.961,1.923,2.404,3.367,4.812,5.292c2.404,1.924,5.773,3.849,11.064,6.735
					c7.699,4.33,13.475,8.661,16.359,12.511C422.574,413.777,424.018,418.59,424.018,423.401z"/>
			</g>
		</g>
		<g>
			<g>
				<path fill="#303035" d="M487.051,416.665h-44.749c0,7.217,1.925,12.511,5.774,16.358c3.367,3.85,8.66,5.774,14.916,5.774
					c7.217,0,13.473-2.405,19.727-6.736v9.624c-5.293,3.849-12.991,6.255-22.133,6.255c-9.143,0-15.879-2.888-21.172-8.662
					c-4.811-5.773-7.697-13.953-7.697-24.059c0-6.254,1.441-12.028,3.85-16.84c2.404-5.292,5.773-9.142,10.584-12.028
					c4.331-2.888,9.143-4.331,14.917-4.331c8.179,0,14.435,2.886,19.246,8.179c4.812,5.293,6.737,12.992,6.737,22.134V416.665z
					 M476.945,408.004c0-5.775-1.443-10.586-4.33-13.473c-2.888-3.37-6.736-4.812-11.548-4.812s-8.661,1.926-12.028,5.293
					c-3.37,3.368-5.294,7.698-6.256,13.472h34.162V408.004z"/>
			</g>
		</g>
		<g>
			<g>
				<path fill="#303035" d="M531.316,392.607c-1.924-1.445-4.331-1.924-7.698-1.924c-4.331,0-8.181,1.924-11.067,6.255
					c-2.888,4.329-4.33,9.623-4.33,16.358v32.238h-10.104v-63.032h10.104v12.991h0.48c1.445-4.332,3.369-7.699,6.255-10.104
					c2.889-2.407,6.256-3.85,10.105-3.85c2.405,0,4.812,0.481,6.255,0.962V392.607L531.316,392.607z"/>
			</g>
		</g>
		<g>
			<g>
				<path fill="#303035" d="M594.829,382.502l-25.02,63.032h-10.105l-24.057-63.032h11.065l15.879,45.71
					c0.962,2.406,1.443,5.293,1.924,8.661h0.481c0.481-2.887,0.962-5.773,1.926-8.661l16.839-46.191h11.067V382.502z"/>
			</g>
		</g>
		<g>
			<g>
				<path fill="#303035" d="M651.606,416.665H607.34c0,7.217,1.924,12.511,5.773,16.358c3.368,3.85,8.66,5.774,14.916,5.774
					c7.217,0,13.473-2.405,19.727-6.736v9.624c-5.291,3.849-12.991,6.255-22.132,6.255s-15.88-2.888-21.17-8.662
					c-4.812-5.773-7.701-13.953-7.701-24.059c0-6.254,1.445-12.028,3.851-16.84c2.405-5.292,5.774-9.142,10.586-12.028
					c4.33-2.888,9.141-4.331,14.916-4.331c8.179,0,14.434,2.886,19.245,8.179c4.812,5.293,6.737,12.992,6.737,22.134v4.331H651.606z
					 M641.502,408.004c0-5.775-1.443-10.586-4.33-13.473c-2.888-3.37-6.736-4.812-11.548-4.812c-4.812,0-8.661,1.926-12.029,5.293
					c-3.367,3.368-5.293,7.698-6.255,13.472h34.162V408.004z"/>
			</g>
		</g>
		<g>
			<g>
				<path fill="#303035" d="M695.873,392.607c-1.924-1.445-4.331-1.924-7.699-1.924c-4.33,0-8.179,1.924-11.066,6.255
					c-2.886,4.329-4.331,9.623-4.331,16.358v32.238h-10.103v-63.032h10.103v12.991h0.483c1.443-4.332,3.367-7.699,6.255-10.104
					c2.886-2.407,6.255-3.85,10.104-3.85c2.406,0,4.812,0.481,6.255,0.962V392.607L695.873,392.607z"/>
			</g>
		</g>
	</g>
	<g>
		<g>
			<g>
				<g>
					<g>
						<path fill="#303035" d="M-24.424,357.481l-25.021,88.053h-12.027l-18.286-64.476c-0.479-2.407-0.962-5.293-1.441-9.142h-0.483
							c-0.481,2.887-0.961,5.773-1.442,8.661l-18.285,64.475h-12.029l-25.502-87.571h11.067l18.765,67.844
							c0.962,2.887,1.443,5.774,1.443,8.661h0.481c0-2.405,0.962-5.294,1.925-8.661l19.729-67.844h10.103l18.765,68.325
							c0.483,2.405,0.962,5.293,1.445,8.18l0,0c0-1.925,0.962-4.811,1.443-8.661l18.284-67.844H-24.424L-24.424,357.481z"/>
					</g>
				</g>
				<g>
					<g>
						<path fill="#303035" d="M-4.214,361.812c0,1.924-0.482,3.367-1.924,4.812c-1.444,1.443-2.888,1.924-4.814,1.924
							c-1.923,0-3.367-0.481-4.81-1.924c-1.444-1.444-1.924-2.888-1.924-4.812c0-1.926,0.479-3.369,1.924-4.812
							c1.443-1.443,2.887-1.924,4.81-1.924c1.926,0,3.37,0.481,4.814,1.924C-5.176,358.443-4.214,359.887-4.214,361.812z
							 M-6.139,445.534h-10.105v-63.032h10.105V445.534z"/>
					</g>
				</g>
				<g>
					<g>
						<path fill="#303035" d="M61.223,445.534H51.12v-36.088c0-13.472-4.814-20.208-14.437-20.208c-4.812,0-9.143,1.924-12.51,5.774
							c-3.367,3.849-4.812,8.66-4.812,14.434v36.088H9.258v-63.032h10.104v10.586h0.482c4.811-8.181,11.548-12.029,20.689-12.029
							c6.736,0,12.028,2.405,15.879,6.736c3.849,4.33,5.292,11.067,5.292,19.247v38.493H61.223z"/>
					</g>
				</g>
				<g>
					<g>
						<path fill="#303035" d="M131.472,445.534h-10.105v-10.586h-0.479c-4.812,8.181-12.031,12.028-21.653,12.028
							c-8.179,0-14.435-2.886-19.246-8.66c-4.811-5.773-7.217-13.473-7.217-23.097c0-10.584,2.407-18.765,7.698-25.02
							c5.293-6.255,12.029-9.622,21.17-9.622c8.663,0,14.917,3.367,18.766,10.105h0.483v-38.494h10.103v93.346H131.472z
							 M121.367,417.146v-9.143c0-5.294-1.924-9.624-5.291-12.992c-3.368-3.368-7.698-5.293-12.51-5.293
							c-6.255,0-11.067,2.405-14.436,6.736c-3.367,4.331-5.293,10.586-5.293,18.765c0,7.218,1.445,12.992,4.814,17.323
							c3.367,4.33,7.696,6.255,13.472,6.255c5.772,0,10.103-1.925,13.473-6.255C119.442,428.692,121.367,423.401,121.367,417.146z"
							/>
					</g>
				</g>
				<g>
					<g>
						<path fill="#303035" d="M206.052,413.777c0,10.104-2.886,18.284-8.66,24.058c-5.774,6.256-13.474,9.142-23.096,9.142
							c-9.143,0-16.84-2.886-22.133-8.66c-5.775-5.773-8.181-13.953-8.181-23.577c0-10.584,2.888-18.765,8.661-24.54
							c5.775-6.255,13.474-9.141,23.579-9.141c9.142,0,16.84,2.886,22.133,8.66C203.166,395.493,206.052,403.672,206.052,413.777z
							 M195.466,414.258c0-7.697-1.924-13.953-5.292-18.284c-3.369-4.33-8.662-6.255-14.917-6.255
							c-6.255,0-11.547,2.405-15.397,6.255c-3.85,4.331-5.774,10.586-5.774,18.284c0,7.699,1.924,13.473,5.774,17.804
							c3.85,4.331,9.142,6.255,15.397,6.255c6.736,0,11.548-1.924,14.917-6.255C194.023,428.212,195.466,421.957,195.466,414.258z"
							/>
					</g>
				</g>
				<g>
					<g>
						<path fill="#303035" d="M297.954,382.502l-18.766,63.032h-10.586l-12.991-45.229c-0.481-1.443-0.962-3.367-0.962-5.773h-0.48
							c0,1.443-0.481,3.368-1.444,5.773l-13.955,45.229h-10.104l-19.246-63.032h10.584l12.992,47.636
							c0.482,1.443,0.482,3.367,0.963,5.773h0.481c0-1.444,0.481-3.368,0.962-5.773l14.435-47.155h9.143l12.991,47.635
							c0.481,1.443,0.481,3.368,0.962,5.774h0.481c0-1.926,0.481-3.85,0.962-5.774l12.991-47.635h10.586V382.502z"/>
					</g>
				</g>
				<g>
					<g>
						<path fill="#303035" d="M340.777,428.692c0,5.294-1.926,10.105-6.254,13.475c-4.332,3.367-9.625,5.291-16.842,5.291
							c-5.773,0-11.067-1.442-15.398-3.848v-11.067c4.812,3.85,10.585,6.255,16.36,6.255c8.179,0,12.028-2.887,12.028-8.66
							c0-2.407-0.961-4.331-2.404-5.774c-1.445-1.443-5.293-3.368-10.586-6.255c-5.773-2.407-9.624-4.812-12.029-7.699
							s-3.369-6.254-3.369-11.066c0-5.293,1.925-9.624,6.255-12.991c4.33-3.369,9.623-5.293,15.879-5.293
							c4.812,0,9.624,0.962,13.471,2.886v10.105c-4.33-2.888-8.659-4.331-14.433-4.331c-3.37,0-5.774,0.964-8.181,2.405
							c-1.924,1.445-2.887,3.85-2.887,6.256c0,2.887,0.963,4.812,2.404,6.256c1.445,1.443,4.812,3.368,9.625,5.292
							c5.773,2.406,10.105,5.292,12.51,8.181C339.813,420.995,340.777,424.363,340.777,428.692z"/>
					</g>
				</g>
			</g>
		</g>
	</g>
</g>
</svg>
