<?xml version="1.0" encoding="UTF-8" standalone="no"?>
<svg width="1027px" height="148px" viewBox="0 0 1027 148" version="1.1" xmlns="http://www.w3.org/2000/svg" xmlns:xlink="http://www.w3.org/1999/xlink" xmlns:sketch="http://www.bohemiancoding.com/sketch/ns">
    <!-- Generator: Sketch 3.3.1 (12002) - http://www.bohemiancoding.com/sketch -->
    <title>windows</title>
    <desc>Created with Sketch.</desc>
    <defs></defs>
    <g id="Page-1" stroke="none" stroke-width="1" fill="none" fill-rule="evenodd" sketch:type="MSPage">
        <g id="windows" sketch:type="MSLayerGroup" fill="#CCCCCC">
            <g id="Group" sketch:type="MSShapeGroup">
                <g id="Shape">
                    <path d="M61.666,71.38 L61.666,12.68 L0.558,21.338 L0.558,71.38 L61.666,71.38 Z"></path>
                    <path d="M67.44,71.38 L147.793,71.38 L147.793,0.649 L67.44,12.197 L67.44,71.38 Z"></path>
                    <path d="M61.666,77.155 L0.558,77.155 L0.558,127.677 L61.666,135.855 L61.666,77.155 Z"></path>
                    <path d="M67.44,77.155 L67.44,136.818 L147.793,147.885 L147.793,77.155 L67.44,77.155 Z"></path>
                </g>
                <g transform="translate(705.000000, 29.000000)" id="Shape">
                    <path d="M50.018,67.401 C50.018,74.618 47.612,80.873 42.321,84.721 C37.027,89.052 29.811,90.976 20.668,90.976 C17.301,90.976 13.45,90.496 9.601,89.534 C5.272,88.572 2.384,87.129 0.941,86.167 L0.941,74.138 C3.345,76.543 6.714,78.467 11.045,79.911 C15.374,81.354 18.743,82.316 22.593,82.316 C34.14,82.316 39.433,77.986 39.433,68.843 C39.433,64.994 37.99,62.108 35.585,59.219 C33.177,56.333 28.366,52.965 20.668,48.635 C13.45,44.304 8.157,40.454 5.272,37.087 C2.384,33.237 0.941,28.906 0.941,23.613 C0.941,16.878 3.345,11.103 8.639,6.773 C13.931,2.442 20.668,0.037 28.847,0.037 C36.546,0.037 42.322,0.999 46.169,3.406 L46.169,14.952 C41.357,11.102 35.585,9.66 28.366,9.66 C23.555,9.66 19.706,11.102 16.337,13.509 C13.45,15.915 11.526,19.283 11.526,23.133 C11.526,26.02 12.006,28.426 12.969,30.351 C13.93,32.274 15.373,33.718 17.781,35.643 C20.185,37.567 23.554,39.492 28.845,42.378 C36.544,46.708 42.32,51.039 45.204,54.889 C48.574,57.777 50.018,62.59 50.018,67.401 L50.018,67.401 Z"></path>
                    <path d="M113.051,60.665 L68.302,60.665 C68.302,67.882 70.227,73.176 74.076,77.023 C77.443,80.873 82.736,82.797 88.992,82.797 C96.209,82.797 102.465,80.392 108.719,76.061 L108.719,85.685 C103.426,89.534 95.728,91.94 86.586,91.94 C77.443,91.94 70.707,89.052 65.414,83.278 C60.603,77.505 57.717,69.325 57.717,59.219 C57.717,52.965 59.158,47.191 61.567,42.379 C63.971,37.087 67.34,33.237 72.151,30.351 C76.482,27.463 81.294,26.02 87.068,26.02 C95.247,26.02 101.503,28.906 106.314,34.199 C111.126,39.492 113.051,47.191 113.051,56.333 L113.051,60.665 L113.051,60.665 Z M102.945,52.004 C102.945,46.229 101.502,41.418 98.615,38.531 C95.727,35.161 91.879,33.719 87.067,33.719 C82.255,33.719 78.406,35.645 75.039,39.012 C71.669,42.38 69.745,46.71 68.783,52.484 L102.945,52.484 L102.945,52.004 L102.945,52.004 Z"></path>
                    <path d="M157.316,36.607 C155.392,35.162 152.985,34.683 149.618,34.683 C145.287,34.683 141.437,36.607 138.551,40.938 C135.663,45.267 134.221,50.561 134.221,57.296 L134.221,89.534 L124.117,89.534 L124.117,26.502 L134.221,26.502 L134.221,39.493 L134.701,39.493 C136.146,35.161 138.07,31.794 140.956,29.389 C143.845,26.982 147.212,25.539 151.061,25.539 C153.466,25.539 155.873,26.02 157.316,26.501 L157.316,36.607 L157.316,36.607 L157.316,36.607 Z"></path>
                    <path d="M220.829,26.502 L195.809,89.534 L185.704,89.534 L161.647,26.502 L172.712,26.502 L188.591,72.212 C189.553,74.618 190.034,77.505 190.515,80.873 L190.996,80.873 C191.477,77.986 191.958,75.1 192.922,72.212 L209.761,26.021 L220.828,26.021 L220.828,26.502 L220.829,26.502 Z"></path>
                    <path d="M277.606,60.665 L233.34,60.665 C233.34,67.882 235.264,73.176 239.113,77.023 C242.481,80.873 247.773,82.797 254.029,82.797 C261.246,82.797 267.502,80.392 273.756,76.061 L273.756,85.685 C268.465,89.534 260.765,91.94 251.624,91.94 C242.483,91.94 235.744,89.052 230.454,83.278 C225.642,77.505 222.753,69.325 222.753,59.219 C222.753,52.965 224.198,47.191 226.604,42.379 C229.009,37.087 232.378,33.237 237.19,30.351 C241.52,27.463 246.331,26.02 252.106,26.02 C260.285,26.02 266.54,28.906 271.351,34.199 C276.163,39.492 278.088,47.191 278.088,56.333 L278.088,60.664 L277.606,60.664 L277.606,60.665 Z M267.502,52.004 C267.502,46.229 266.059,41.418 263.172,38.531 C260.284,35.161 256.436,33.719 251.624,33.719 C246.812,33.719 242.963,35.645 239.595,39.012 C236.228,42.38 234.302,46.71 233.34,52.484 L267.502,52.484 L267.502,52.004 L267.502,52.004 Z"></path>
                    <path d="M321.873,36.607 C319.949,35.162 317.542,34.683 314.174,34.683 C309.844,34.683 305.995,36.607 303.108,40.938 C300.222,45.267 298.777,50.561 298.777,57.296 L298.777,89.534 L288.674,89.534 L288.674,26.502 L298.777,26.502 L298.777,39.493 L299.26,39.493 C300.703,35.161 302.627,31.794 305.515,29.389 C308.401,26.982 311.77,25.539 315.619,25.539 C318.025,25.539 320.431,26.02 321.874,26.501 L321.874,36.607 L321.873,36.607 L321.873,36.607 Z"></path>
                </g>
                <g transform="translate(192.000000, 25.000000)" id="Shape">
                    <path d="M114.576,5.481 L89.555,93.534 L77.528,93.534 L59.242,29.058 C58.763,26.651 58.28,23.765 57.801,19.916 L57.318,19.916 C56.837,22.803 56.357,25.689 55.876,28.577 L37.591,93.052 L25.562,93.052 L0.06,5.481 L11.127,5.481 L29.892,73.325 C30.854,76.212 31.335,79.099 31.335,81.986 L31.816,81.986 C31.816,79.581 32.778,76.692 33.741,73.325 L53.47,5.481 L63.573,5.481 L82.338,73.806 C82.821,76.211 83.3,79.099 83.783,81.986 L83.783,81.986 C83.783,80.061 84.745,77.175 85.226,73.325 L103.51,5.481 L114.576,5.481 L114.576,5.481 Z"></path>
                    <path d="M134.786,9.812 C134.786,11.736 134.304,13.179 132.862,14.624 C131.418,16.067 129.974,16.548 128.048,16.548 C126.125,16.548 124.681,16.067 123.238,14.624 C121.794,13.18 121.314,11.736 121.314,9.812 C121.314,7.886 121.793,6.443 123.238,5 C124.681,3.557 126.125,3.076 128.048,3.076 C129.974,3.076 131.418,3.557 132.862,5 C133.824,6.443 134.786,7.887 134.786,9.812 L134.786,9.812 Z M132.861,93.534 L122.756,93.534 L122.756,30.502 L132.861,30.502 L132.861,93.534 L132.861,93.534 Z"></path>
                    <path d="M200.223,93.534 L190.12,93.534 L190.12,57.446 C190.12,43.974 185.306,37.238 175.683,37.238 C170.871,37.238 166.54,39.162 163.173,43.012 C159.806,46.861 158.361,51.672 158.361,57.446 L158.361,93.534 L148.258,93.534 L148.258,30.502 L158.362,30.502 L158.362,41.088 L158.844,41.088 C163.655,32.907 170.392,29.059 179.533,29.059 C186.269,29.059 191.561,31.464 195.412,35.795 C199.261,40.125 200.704,46.862 200.704,55.042 L200.704,93.535 L200.223,93.535 L200.223,93.534 Z"></path>
                    <path d="M270.472,93.534 L260.367,93.534 L260.367,82.948 L259.888,82.948 C255.076,91.129 247.857,94.976 238.235,94.976 C230.056,94.976 223.8,92.09 218.989,86.316 C214.178,80.543 211.772,72.843 211.772,63.219 C211.772,52.635 214.179,44.454 219.47,38.199 C224.763,31.944 231.499,28.577 240.64,28.577 C249.303,28.577 255.557,31.944 259.406,38.682 L259.889,38.682 L259.889,0.188 L269.992,0.188 L269.992,93.534 L270.472,93.534 L270.472,93.534 Z M260.367,65.146 L260.367,56.003 C260.367,50.709 258.443,46.379 255.076,43.011 C251.708,39.643 247.378,37.718 242.566,37.718 C236.311,37.718 231.499,40.123 228.13,44.454 C224.763,48.785 222.837,55.04 222.837,63.219 C222.837,70.437 224.282,76.211 227.651,80.542 C231.018,84.872 235.347,86.797 241.123,86.797 C246.895,86.797 251.226,84.872 254.596,80.542 C258.442,76.692 260.367,71.401 260.367,65.146 L260.367,65.146 Z"></path>
                    <path d="M345.052,61.777 C345.052,71.881 342.166,80.061 336.392,85.835 C330.618,92.091 322.918,94.977 313.296,94.977 C304.153,94.977 296.456,92.091 291.163,86.317 C285.388,80.544 282.982,72.364 282.982,62.74 C282.982,52.156 285.87,43.975 291.643,38.2 C297.418,31.945 305.117,29.059 315.222,29.059 C324.364,29.059 332.062,31.945 337.355,37.719 C342.166,43.493 345.052,51.672 345.052,61.777 L345.052,61.777 Z M334.466,62.258 C334.466,54.561 332.542,48.305 329.174,43.974 C325.805,39.644 320.512,37.719 314.257,37.719 C308.002,37.719 302.71,40.124 298.86,43.974 C295.01,48.305 293.086,54.56 293.086,62.258 C293.086,69.957 295.01,75.731 298.86,80.062 C302.71,84.393 308.002,86.317 314.257,86.317 C320.993,86.317 325.805,84.393 329.174,80.062 C333.023,76.212 334.466,69.957 334.466,62.258 L334.466,62.258 Z"></path>
                    <path d="M436.954,30.502 L418.188,93.534 L407.602,93.534 L394.611,48.305 C394.13,46.862 393.649,44.938 393.649,42.532 L393.169,42.532 C393.169,43.975 392.688,45.9 391.725,48.305 L377.77,93.534 L367.666,93.534 L348.42,30.502 L359.004,30.502 L371.996,78.138 C372.478,79.581 372.478,81.505 372.959,83.911 L373.44,83.911 C373.44,82.467 373.921,80.543 374.402,78.138 L388.837,30.983 L397.98,30.983 L410.971,78.618 C411.452,80.061 411.452,81.986 411.933,84.392 L412.414,84.392 C412.414,82.466 412.895,80.542 413.376,78.618 L426.367,30.983 L436.953,30.983 L436.953,30.502 L436.954,30.502 Z"></path>
                    <path d="M479.777,76.692 C479.777,81.986 477.851,86.797 473.523,90.167 C469.191,93.534 463.898,95.458 456.681,95.458 C450.908,95.458 445.614,94.016 441.283,91.61 L441.283,80.543 C446.095,84.393 451.868,86.798 457.643,86.798 C465.822,86.798 469.671,83.911 469.671,78.138 C469.671,75.731 468.71,73.807 467.267,72.364 C465.822,70.921 461.974,68.996 456.681,66.109 C450.908,63.702 447.057,61.297 444.652,58.41 C442.247,55.523 441.283,52.156 441.283,47.344 C441.283,42.051 443.208,37.72 447.538,34.353 C451.868,30.984 457.161,29.06 463.417,29.06 C468.229,29.06 473.041,30.022 476.888,31.946 L476.888,42.051 C472.558,39.163 468.229,37.72 462.455,37.72 C459.085,37.72 456.681,38.684 454.274,40.125 C452.35,41.57 451.387,43.975 451.387,46.381 C451.387,49.268 452.35,51.193 453.791,52.637 C455.236,54.08 458.603,56.005 463.416,57.929 C469.189,60.335 473.521,63.221 475.926,66.11 C478.813,68.995 479.777,72.363 479.777,76.692 L479.777,76.692 Z"></path>
                </g>
            </g>
        </g>
    </g>
</svg>